<svg width="348" height="67" viewBox="0 0 348 67" fill="none" xmlns="http://www.w3.org/2000/svg">
<path d="M30 2.02073C32.1658 0.770297 34.8342 0.770297 37 2.02073L59.0118 14.7293C61.1777 15.9797 62.5118 18.2906 62.5118 20.7915V46.2085C62.5118 48.7094 61.1777 51.0203 59.0118 52.2707L37 64.9793C34.8342 66.2297 32.1658 66.2297 30 64.9793L7.98815 52.2707C5.82234 51.0203 4.48815 48.7094 4.48815 46.2085V20.7915C4.48815 18.2906 5.82234 15.9797 7.98815 14.7293L30 2.02073Z" fill="#0B5FCC"/>
<path d="M49.8265 19.3647C34.7443 38.2698 23.4857 26.1632 17.7502 19.3647C14.7763 18.0915 14.7762 20.2147 15.2011 21.4898L24.5478 32.1111C26.4597 33.8105 29.0201 43.5429 29.2325 48.287C32.8438 55.2971 37.9307 50.8046 38.5679 47.6182C38.7379 38.9512 41.8959 33.6689 43.4537 32.1111L52.3756 21.7014C53.5652 18.4725 51.1719 18.7982 49.8265 19.3647Z" fill="white"/>
<circle cx="33.6932" cy="21.5231" r="5.52307" fill="white"/>
<path d="M310.376 55.6589V11.6084H329.39C332.659 11.6084 335.52 12.2035 337.972 13.3936C340.424 14.5838 342.331 16.2974 343.693 18.5343C345.056 20.7712 345.737 23.4527 345.737 26.5787C345.737 29.7333 345.034 32.3933 343.629 34.5585C342.238 36.7238 340.281 38.3584 337.757 39.4626C335.248 40.5667 332.315 41.1188 328.96 41.1188H317.603V31.8269H326.551C327.956 31.8269 329.153 31.6548 330.143 31.3107C331.147 30.9522 331.914 30.3858 332.444 29.6114C332.989 28.8371 333.262 27.8262 333.262 26.5787C333.262 25.3168 332.989 24.2915 332.444 23.5029C331.914 22.6999 331.147 22.112 330.143 21.7391C329.153 21.352 327.956 21.1584 326.551 21.1584H322.335V55.6589H310.376ZM336.187 35.4404L347.199 55.6589H334.208L323.453 35.4404H336.187Z" fill="#0B5FCC"/>
<path d="M267.977 55.6589V11.6084H279.936V28.8156H295.767V11.6084H307.726V55.6589H295.767V38.4517H279.936V55.6589H267.977Z" fill="#0B5FCC"/>
<path d="M222.885 11.6084H236.22L244.824 29.5039H245.168L253.772 11.6084H267.107L250.933 41.8071V55.6589H239.06V41.8071L222.885 11.6084Z" fill="white"/>
<path d="M192.348 55.6589V11.6084H223.321V21.2444H204.307V28.8156H221.429V38.4517H204.307V55.6589H192.348Z" fill="white"/>
<path d="M189.709 11.6084V55.6589H177.75V11.6084H189.709Z" fill="white"/>
<path d="M162.598 26.1423C162.411 25.3824 162.118 24.7156 161.716 24.142C161.315 23.5541 160.813 23.0594 160.21 22.6579C159.622 22.242 158.934 21.9338 158.146 21.733C157.371 21.5179 156.518 21.4104 155.586 21.4104C153.578 21.4104 151.865 21.8907 150.445 22.8515C149.04 23.8122 147.965 25.196 147.219 27.0027C146.488 28.8095 146.122 30.989 146.122 33.5415C146.122 36.1225 146.473 38.3308 147.176 40.1662C147.879 42.0017 148.925 43.4069 150.316 44.382C151.707 45.3571 153.435 45.8446 155.5 45.8446C157.321 45.8446 158.834 45.5793 160.038 45.0488C161.257 44.5182 162.168 43.7654 162.77 42.7903C163.372 41.8153 163.673 40.6681 163.673 39.3489L165.738 39.564H155.672V31.0464H175.202V37.155C175.202 41.17 174.349 44.6043 172.643 47.4578C170.951 50.297 168.613 52.4766 165.631 53.9965C162.662 55.5022 159.257 56.255 155.414 56.255C151.126 56.255 147.362 55.3444 144.122 53.5233C140.881 51.7022 138.35 49.1068 136.529 45.7371C134.722 42.3673 133.819 38.3595 133.819 33.7135C133.819 30.0713 134.371 26.845 135.475 24.0345C136.594 21.224 138.142 18.8508 140.121 16.915C142.1 14.9648 144.387 13.495 146.982 12.5056C149.578 11.5019 152.36 11 155.328 11C157.938 11 160.361 11.3728 162.598 12.1185C164.849 12.8498 166.835 13.8965 168.556 15.2588C170.291 16.6067 171.689 18.2055 172.75 20.0553C173.811 21.9051 174.457 23.9341 174.686 26.1423H162.598Z" fill="white"/>
<path d="M131.352 11.6084V55.6589H119.393V11.6084H131.352Z" fill="white"/>
<path d="M94.9491 55.6589H78V11.6084H94.777C99.3083 11.6084 103.223 12.4903 106.521 14.254C109.833 16.0034 112.386 18.5271 114.178 21.8252C115.985 25.1089 116.888 29.045 116.888 33.6336C116.888 38.2222 115.992 42.1655 114.2 45.4636C112.407 48.7473 109.869 51.271 106.585 53.0348C103.302 54.7842 99.423 55.6589 94.9491 55.6589ZM89.959 45.5066H94.5189C96.6985 45.5066 98.5555 45.1553 100.09 44.4527C101.638 43.75 102.814 42.5384 103.617 40.8176C104.435 39.0969 104.843 36.7022 104.843 33.6336C104.843 30.565 104.427 28.1703 103.596 26.4496C102.778 24.7289 101.574 23.5172 99.9822 22.8146C98.4049 22.112 96.4691 21.7607 94.1748 21.7607H89.959V45.5066Z" fill="white"/>
</svg>
