<svg width="358" height="77" viewBox="0 0 358 77" fill="none" xmlns="http://www.w3.org/2000/svg">
<path d="M320.376 59.6589V15.6084H339.39C342.659 15.6084 345.52 16.2035 347.972 17.3936C350.424 18.5838 352.331 20.2974 353.693 22.5343C355.056 24.7712 355.737 27.4527 355.737 30.5787C355.737 33.7333 355.034 36.3933 353.629 38.5585C352.238 40.7238 350.281 42.3584 347.757 43.4626C345.248 44.5667 342.315 45.1188 338.96 45.1188H327.603V35.8269H336.551C337.956 35.8269 339.153 35.6548 340.143 35.3107C341.147 34.9522 341.914 34.3858 342.444 33.6114C342.989 32.8371 343.262 31.8262 343.262 30.5787C343.262 29.3168 342.989 28.2915 342.444 27.5029C341.914 26.6999 341.147 26.112 340.143 25.7391C339.153 25.352 337.956 25.1584 336.551 25.1584H332.335V59.6589H320.376ZM346.187 39.4404L357.199 59.6589H344.208L333.453 39.4404H346.187Z" fill="#0B5FCC"/>
<path d="M277.977 59.6589V15.6084H289.936V32.8156H305.767V15.6084H317.726V59.6589H305.767V42.4517H289.936V59.6589H277.977Z" fill="#0B5FCC"/>
<path d="M232.885 15.6084H246.22L254.824 33.5039H255.168L263.772 15.6084H277.107L260.933 45.8071V59.6589H249.06V45.8071L232.885 15.6084Z" fill="#101828"/>
<path d="M202.348 59.6589V15.6084H233.321V25.2444H214.307V32.8156H231.429V42.4517H214.307V59.6589H202.348Z" fill="#101828"/>
<path d="M199.709 15.6084V59.6589H187.75V15.6084H199.709Z" fill="#101828"/>
<path d="M172.598 30.1423C172.411 29.3824 172.118 28.7156 171.716 28.142C171.315 27.5541 170.813 27.0594 170.21 26.6579C169.622 26.242 168.934 25.9338 168.146 25.733C167.371 25.5179 166.518 25.4104 165.586 25.4104C163.578 25.4104 161.865 25.8907 160.445 26.8515C159.04 27.8122 157.965 29.196 157.219 31.0027C156.488 32.8095 156.122 34.989 156.122 37.5415C156.122 40.1225 156.473 42.3308 157.176 44.1662C157.879 46.0017 158.925 47.4069 160.316 48.382C161.707 49.3571 163.435 49.8446 165.5 49.8446C167.321 49.8446 168.834 49.5793 170.038 49.0488C171.257 48.5182 172.168 47.7654 172.77 46.7903C173.372 45.8153 173.673 44.6681 173.673 43.3489L175.738 43.564H165.672V35.0464H185.202V41.155C185.202 45.17 184.349 48.6043 182.643 51.4578C180.951 54.297 178.613 56.4766 175.631 57.9965C172.662 59.5022 169.257 60.255 165.414 60.255C161.126 60.255 157.362 59.3444 154.122 57.5233C150.881 55.7022 148.35 53.1068 146.529 49.7371C144.722 46.3673 143.819 42.3595 143.819 37.7135C143.819 34.0713 144.371 30.845 145.475 28.0345C146.594 25.224 148.142 22.8508 150.121 20.915C152.1 18.9648 154.387 17.495 156.982 16.5056C159.578 15.5019 162.36 15 165.328 15C167.938 15 170.361 15.3728 172.598 16.1185C174.849 16.8498 176.835 17.8965 178.556 19.2588C180.291 20.6067 181.689 22.2055 182.75 24.0553C183.811 25.9051 184.457 27.9341 184.686 30.1423H172.598Z" fill="#101828"/>
<path d="M141.352 15.6084V59.6589H129.393V15.6084H141.352Z" fill="#101828"/>
<path d="M104.949 59.6589H88V15.6084H104.777C109.308 15.6084 113.223 16.4903 116.521 18.254C119.833 20.0034 122.386 22.5271 124.178 25.8252C125.985 29.1089 126.888 33.045 126.888 37.6336C126.888 42.2222 125.992 46.1655 124.2 49.4636C122.407 52.7473 119.869 55.271 116.585 57.0348C113.302 58.7842 109.423 59.6589 104.949 59.6589ZM99.959 49.5066H104.519C106.699 49.5066 108.555 49.1553 110.09 48.4527C111.638 47.75 112.814 46.5384 113.617 44.8176C114.435 43.0969 114.843 40.7022 114.843 37.6336C114.843 34.565 114.427 32.1703 113.596 30.4496C112.778 28.7289 111.574 27.5172 109.982 26.8146C108.405 26.112 106.469 25.7607 104.175 25.7607H99.959V49.5066Z" fill="#101828"/>
<path d="M35 2.02072C37.1658 0.770295 39.8342 0.770297 42 2.02073L68.342 17.2293C70.5078 18.4797 71.842 20.7906 71.842 23.2915V53.7085C71.842 56.2094 70.5078 58.5203 68.342 59.7707L42 74.9793C39.8342 76.2297 37.1658 76.2297 35 74.9793L8.65802 59.7707C6.49221 58.5203 5.15802 56.2094 5.15802 53.7085V23.2915C5.15802 20.7906 6.49222 18.4797 8.65802 17.2293L35 2.02072Z" fill="#0B5FCC"/>
<path d="M56.6961 21.7386C39.9381 42.7443 27.4286 29.2924 21.0558 21.7386C17.7514 20.3239 17.7514 22.683 18.2234 24.0998L28.6087 35.9012C30.733 37.7895 33.5779 48.6032 33.8139 53.8745C37.8264 61.6634 43.4785 56.6718 44.1866 53.1313C44.3754 43.5013 47.8844 37.6321 49.6153 35.9012L59.5285 24.3349C60.8502 20.7472 58.191 21.1092 56.6961 21.7386Z" fill="white"/>
<circle cx="38.7703" cy="24.1367" r="6.13674" fill="white"/>
</svg>
