<svg width="72" height="16" viewBox="0 0 72 16" fill="none" xmlns="http://www.w3.org/2000/svg">
<path d="M5.16193 14H0.740625V2.50909H5.11705C6.29905 2.50909 7.32022 2.73913 8.18054 3.19922C9.0446 3.65556 9.71042 4.3139 10.178 5.17422C10.6493 6.0308 10.8849 7.05758 10.8849 8.25455C10.8849 9.45152 10.6512 10.4802 10.1836 11.3405C9.71603 12.1971 9.05395 12.8554 8.19737 13.3155C7.34079 13.7718 6.32898 14 5.16193 14ZM3.86023 11.3517H5.04972C5.61828 11.3517 6.10268 11.2601 6.50291 11.0768C6.90689 10.8935 7.21361 10.5774 7.42308 10.1286C7.63629 9.67969 7.7429 9.05502 7.7429 8.25455C7.7429 7.45407 7.63442 6.8294 7.41747 6.38054C7.20426 5.93168 6.89006 5.6156 6.47486 5.43231C6.0634 5.24903 5.55843 5.15739 4.95994 5.15739H3.86023V11.3517ZM14.6609 2.50909V14H11.5413V2.50909H14.6609ZM22.8147 6.30199C22.7661 6.10374 22.6894 5.92981 22.5847 5.78018C22.4799 5.62682 22.349 5.49777 22.1919 5.39304C22.0386 5.28456 21.859 5.20414 21.6533 5.15177C21.4513 5.09567 21.2287 5.06761 20.9856 5.06761C20.4619 5.06761 20.0149 5.19292 19.6446 5.44354C19.2781 5.69415 18.9975 6.05511 18.803 6.52642C18.6122 6.99773 18.5169 7.56629 18.5169 8.2321C18.5169 8.9054 18.6085 9.48144 18.7918 9.96023C18.9751 10.439 19.2481 10.8056 19.611 11.0599C19.9738 11.3143 20.4245 11.4415 20.9632 11.4415C21.4382 11.4415 21.8328 11.3723 22.147 11.2339C22.465 11.0955 22.7025 10.8991 22.8596 10.6447C23.0167 10.3904 23.0953 10.0911 23.0953 9.74702L23.6339 9.80312H21.008V7.58125H26.1027V9.17472C26.1027 10.2221 25.8801 11.1179 25.435 11.8623C24.9936 12.6029 24.3839 13.1715 23.6058 13.568C22.8316 13.9607 21.9432 14.1571 20.9407 14.1571C19.8223 14.1571 18.8404 13.9196 17.9951 13.4445C17.1497 12.9695 16.4895 12.2924 16.0144 11.4134C15.5431 10.5344 15.3075 9.48892 15.3075 8.27699C15.3075 7.32689 15.4515 6.48527 15.7395 5.75213C16.0313 5.01899 16.4353 4.39993 16.9514 3.89496C17.4676 3.38624 18.0643 3.00284 18.7413 2.74474C19.4183 2.48291 20.144 2.35199 20.9183 2.35199C21.5991 2.35199 22.2312 2.44924 22.8147 2.64375C23.402 2.83452 23.9201 3.10758 24.3689 3.46293C24.8215 3.81454 25.1862 4.2316 25.463 4.71413C25.7398 5.19666 25.9081 5.72595 25.968 6.30199H22.8147ZM29.8899 2.50909V14H26.7702V2.50909H29.8899ZM30.5813 14V2.50909H38.6608V5.02273H33.7009V6.99773H38.1671V9.51136H33.7009V14H30.5813ZM38.5499 2.50909H42.0286L44.273 7.17727H44.3627L46.607 2.50909H50.0857L45.8664 10.3866V14H42.7693V10.3866L38.5499 2.50909Z" fill="white"/>
<path d="M50.3157 14V2.50909H53.4353V6.99773H57.5648V2.50909H60.6844V14H57.5648V9.51136H53.4353V14H50.3157ZM61.3787 14V2.50909H66.3386C67.1915 2.50909 67.9377 2.66432 68.5773 2.97479C69.217 3.28525 69.7145 3.73224 70.0698 4.31577C70.4252 4.89929 70.6028 5.59877 70.6028 6.4142C70.6028 7.23712 70.4196 7.93099 70.053 8.49581C69.6902 9.06063 69.1796 9.48705 68.5212 9.77507C67.8666 10.0631 67.1017 10.2071 66.2264 10.2071H63.2639V7.78324H65.598C65.9646 7.78324 66.2769 7.73835 66.535 7.64858C66.7969 7.55507 66.997 7.40731 67.1354 7.20533C67.2775 7.00334 67.3486 6.73963 67.3486 6.4142C67.3486 6.08504 67.2775 5.81759 67.1354 5.61186C66.997 5.40239 66.7969 5.24903 66.535 5.15177C66.2769 5.05078 65.9646 5.00028 65.598 5.00028H64.4983V14H61.3787ZM68.1116 8.72585L70.9844 14H67.5955L64.7901 8.72585H68.1116Z" fill="#51A2FF"/>
</svg>
