<svg width="79" height="18" viewBox="0 0 79 18" fill="none" xmlns="http://www.w3.org/2000/svg">
<path d="M5.71733 15H0.820312V2.27273H5.66761C6.9768 2.27273 8.10784 2.52752 9.06072 3.03711C10.0178 3.54255 10.7552 4.27172 11.2731 5.22461C11.7951 6.17335 12.0561 7.31061 12.0561 8.63636C12.0561 9.96212 11.7972 11.1014 11.2793 12.0543C10.7614 13.0031 10.0281 13.7322 9.07937 14.2418C8.13062 14.7473 7.00994 15 5.71733 15ZM4.27557 12.0668H5.59304C6.22277 12.0668 6.75929 11.9653 7.20259 11.7623C7.65004 11.5592 7.98976 11.2092 8.22177 10.712C8.45792 10.2148 8.57599 9.52296 8.57599 8.63636C8.57599 7.74976 8.45585 7.05788 8.21555 6.56072C7.9794 6.06356 7.63139 5.71348 7.17152 5.51048C6.71579 5.30747 6.15649 5.20597 5.49361 5.20597H4.27557V12.0668ZM16.235 2.27273V15H12.7798V2.27273H16.235ZM25.2628 6.47372C25.209 6.25414 25.124 6.06149 25.008 5.89577C24.892 5.72591 24.747 5.58298 24.573 5.46697C24.4032 5.34683 24.2043 5.25775 23.9764 5.19975C23.7527 5.13761 23.5062 5.10653 23.2369 5.10653C22.6569 5.10653 22.1618 5.24532 21.7516 5.5229C21.3456 5.80049 21.0349 6.20028 20.8195 6.7223C20.6082 7.24432 20.5025 7.87405 20.5025 8.61151C20.5025 9.35724 20.604 9.99527 20.807 10.5256C21.01 11.0559 21.3125 11.4619 21.7144 11.7436C22.1162 12.0253 22.6155 12.1662 23.212 12.1662C23.7382 12.1662 24.1753 12.0895 24.5233 11.9363C24.8755 11.783 25.1385 11.5655 25.3125 11.2837C25.4866 11.002 25.5736 10.6706 25.5736 10.2894L26.1701 10.3516H23.2618V7.89062H28.9045V9.65554C28.9045 10.8156 28.658 11.8078 28.165 12.6323C27.6761 13.4526 27.0008 14.0823 26.1391 14.5215C25.2815 14.9565 24.2975 15.174 23.1872 15.174C21.9484 15.174 20.8609 14.9109 19.9246 14.3848C18.9883 13.8586 18.257 13.1087 17.7309 12.1351C17.2089 11.1615 16.9478 10.0036 16.9478 8.66122C16.9478 7.6089 17.1073 6.67673 17.4264 5.8647C17.7495 5.05268 18.197 4.36701 18.7687 3.80771C19.3404 3.24426 20.0012 2.8196 20.7511 2.53374C21.501 2.24373 22.3047 2.09872 23.1623 2.09872C23.9164 2.09872 24.6165 2.20644 25.2628 2.42188C25.9133 2.63317 26.4871 2.93561 26.9842 3.32919C27.4855 3.71863 27.8895 4.18058 28.1961 4.71502C28.5026 5.24947 28.6891 5.8357 28.7554 6.47372H25.2628ZM33.0959 2.27273V15H29.6406V2.27273H33.0959ZM33.8584 15V2.27273H42.8073V5.05682H37.3137V7.24432H42.2604V10.0284H37.3137V15H33.8584ZM42.6811 2.27273H46.5341L49.0199 7.44318H49.1193L51.6051 2.27273H55.4581L50.7848 10.9979V15H47.3544V10.9979L42.6811 2.27273Z" fill="#101828"/>
<path d="M55.7095 15V2.27273H59.1647V7.24432H63.7386V2.27273H67.1938V15H63.7386V10.0284H59.1647V15H55.7095ZM67.9595 15V2.27273H73.4531C74.3977 2.27273 75.2242 2.44466 75.9327 2.78853C76.6411 3.1324 77.1921 3.62749 77.5857 4.27379C77.9793 4.9201 78.1761 5.69484 78.1761 6.59801C78.1761 7.50947 77.9731 8.27799 77.5671 8.90359C77.1652 9.52918 76.5997 10.0015 75.8705 10.3205C75.1455 10.6395 74.2983 10.799 73.3288 10.799H70.0475V8.11435H72.6328C73.0388 8.11435 73.3847 8.06463 73.6706 7.9652C73.9606 7.86162 74.1822 7.69798 74.3355 7.47425C74.493 7.25053 74.5717 6.95845 74.5717 6.59801C74.5717 6.23343 74.493 5.9372 74.3355 5.70934C74.1822 5.47733 73.9606 5.30747 73.6706 5.19975C73.3847 5.08789 73.0388 5.03196 72.6328 5.03196H71.4147V15H67.9595ZM75.4169 9.15838L78.5987 15H74.8451L71.7379 9.15838H75.4169Z" fill="#0B5FCC"/>
</svg>
