<svg preserveAspectRatio="none" width="100%" height="100%" overflow="visible" style="display: block;" viewBox="0 0 16 16" fill="none" xmlns="http://www.w3.org/2000/svg">
<g id="SVG" clip-path="url(#clip0_0_4)">
<path id="Vector" d="M6.66602 8.66666C6.95232 9.04942 7.31759 9.36612 7.73705 9.59529C8.15651 9.82446 8.62035 9.96074 9.09712 9.99489C9.57388 10.029 10.0524 9.96024 10.5002 9.79319C10.9481 9.62613 11.3548 9.36471 11.6927 9.02666L13.6927 7.02666C14.2999 6.39799 14.6359 5.55598 14.6283 4.68199C14.6207 3.808 14.2701 2.97196 13.6521 2.35394C13.0341 1.73591 12.198 1.38535 11.324 1.37775C10.45 1.37016 9.60802 1.70614 8.97935 2.31333L7.83268 3.45333" stroke="var(--stroke-0, #155DFC)" stroke-width="1.33333" stroke-linecap="round" stroke-linejoin="round"/>
<path id="Vector_2" d="M9.33333 7.33333C9.04703 6.95058 8.68176 6.63388 8.2623 6.40471C7.84284 6.17554 7.37899 6.03926 6.90223 6.00511C6.42547 5.97097 5.94694 6.03976 5.4991 6.20681C5.05126 6.37387 4.64459 6.63529 4.30667 6.97333L2.30667 8.97333C1.69947 9.60201 1.36349 10.444 1.37109 11.318C1.37868 12.192 1.72924 13.028 2.34727 13.6461C2.9653 14.2641 3.80134 14.6147 4.67533 14.6222C5.54932 14.6298 6.39133 14.2939 7.02 13.6867L8.16 12.5467" stroke="var(--stroke-0, #155DFC)" stroke-width="1.33333" stroke-linecap="round" stroke-linejoin="round"/>
</g>
<defs>
<clipPath id="clip0_0_4">
<rect width="16" height="16" fill="white"/>
</clipPath>
</defs>
</svg>
