<svg preserveAspectRatio="none" width="100%" height="100%" overflow="visible" style="display: block;" viewBox="0 0 16 16" fill="none" xmlns="http://www.w3.org/2000/svg">
<g id="SVG">
<path id="Vector" d="M10.1333 2C10.485 2.00501 10.8205 2.14878 11.0667 2.4L13.6 4.93333C13.8512 5.17951 13.995 5.51497 14 5.86667V12.6667C14 13.0203 13.8595 13.3594 13.6095 13.6095C13.3594 13.8595 13.0203 14 12.6667 14H3.33333C2.97971 14 2.64057 13.8595 2.39052 13.6095C2.14048 13.3594 2 13.0203 2 12.6667V3.33333C2 2.97971 2.14048 2.64057 2.39052 2.39052C2.64057 2.14048 2.97971 2 3.33333 2H10.1333Z" stroke="white" stroke-width="1.33333" stroke-linecap="round" stroke-linejoin="round"/>
<path id="Vector_2" d="M11.3327 14V9.33329C11.3327 9.15648 11.2624 8.98691 11.1374 8.86189C11.0124 8.73686 10.8428 8.66663 10.666 8.66663H5.33268C5.15587 8.66663 4.9863 8.73686 4.86128 8.86189C4.73625 8.98691 4.66602 9.15648 4.66602 9.33329V14" stroke="white" stroke-width="1.33333" stroke-linecap="round" stroke-linejoin="round"/>
<path id="Vector_3" d="M4.66602 2V4.66667C4.66602 4.84348 4.73625 5.01305 4.86128 5.13807C4.9863 5.2631 5.15587 5.33333 5.33268 5.33333H9.99935" stroke="white" stroke-width="1.33333" stroke-linecap="round" stroke-linejoin="round"/>
</g>
</svg>
