<svg width="34" height="34" viewBox="0 0 34 34" fill="none" xmlns="http://www.w3.org/2000/svg">
<path d="M30.9375 16.875H27.45C26.8354 16.8737 26.2373 17.0737 25.7472 17.4445C25.2571 17.8153 24.9019 18.3364 24.7359 18.9281L21.4312 30.6844C21.41 30.7574 21.3655 30.8215 21.3047 30.8672C21.2438 30.9128 21.1698 30.9375 21.0938 30.9375C21.0177 30.9375 20.9437 30.9128 20.8828 30.8672C20.822 30.8215 20.7775 30.7574 20.7563 30.6844L12.9937 3.06563C12.9725 2.9926 12.928 2.92845 12.8672 2.88281C12.8063 2.83717 12.7323 2.8125 12.6562 2.8125C12.5802 2.8125 12.5062 2.83717 12.4453 2.88281C12.3845 2.92845 12.34 2.9926 12.3188 3.06563L9.01406 14.8219C8.84878 15.4113 8.49569 15.9307 8.0084 16.3013C7.52111 16.6718 6.92623 16.8732 6.31406 16.875H2.8125" stroke="white" stroke-width="2.8125" stroke-linecap="round" stroke-linejoin="round"/>
</svg>
