<svg width="34" height="34" viewBox="0 0 34 34" fill="none" xmlns="http://www.w3.org/2000/svg">
<path d="M21.7969 10.5469L25.0312 13.7813C25.2941 14.0389 25.6475 14.1832 26.0156 14.1832C26.3837 14.1832 26.7371 14.0389 27 13.7813L29.9531 10.8281C30.2108 10.5653 30.3551 10.2118 30.3551 9.84375C30.3551 9.47566 30.2108 9.12224 29.9531 8.85938L26.7188 5.625" stroke="white" stroke-width="2.8125" stroke-linecap="round" stroke-linejoin="round"/>
<path d="M29.5313 2.8125L16.0312 16.3125" stroke="white" stroke-width="2.8125" stroke-linecap="round" stroke-linejoin="round"/>
<path d="M10.5469 29.5312C14.8185 29.5312 18.2812 26.0685 18.2812 21.7969C18.2812 17.5253 14.8185 14.0625 10.5469 14.0625C6.2753 14.0625 2.8125 17.5253 2.8125 21.7969C2.8125 26.0685 6.2753 29.5312 10.5469 29.5312Z" stroke="white" stroke-width="2.8125" stroke-linecap="round" stroke-linejoin="round"/>
</svg>
