<svg width="14" height="14" viewBox="0 0 14 14" fill="none" xmlns="http://www.w3.org/2000/svg">
<g clip-path="url(#clip0_169_74110)">
<path d="M6.75 12.375C9.8566 12.375 12.375 9.8566 12.375 6.75C12.375 3.6434 9.8566 1.125 6.75 1.125C3.6434 1.125 1.125 3.6434 1.125 6.75C1.125 9.8566 3.6434 12.375 6.75 12.375Z" stroke="#2563EB" stroke-width="1.125" stroke-linecap="round" stroke-linejoin="round"/>
<path d="M6.75 9C7.99264 9 9 7.99264 9 6.75C9 5.50736 7.99264 4.5 6.75 4.5C5.50736 4.5 4.5 5.50736 4.5 6.75C4.5 7.99264 5.50736 9 6.75 9Z" stroke="#2563EB" stroke-width="1.125" stroke-linecap="round" stroke-linejoin="round"/>
<path d="M11.9081 4.5H6.75" stroke="#2563EB" stroke-width="1.125" stroke-linecap="round" stroke-linejoin="round"/>
<path d="M2.22266 3.40625L4.80453 7.8725" stroke="#2563EB" stroke-width="1.125" stroke-linecap="round" stroke-linejoin="round"/>
<path d="M6.12109 12.3413L8.69734 7.875" stroke="#2563EB" stroke-width="1.125" stroke-linecap="round" stroke-linejoin="round"/>
</g>
<defs>
<clipPath id="clip0_169_74110">
<rect width="13.5" height="13.5" fill="white"/>
</clipPath>
</defs>
</svg>
