<svg width="34" height="34" viewBox="0 0 34 34" fill="none" xmlns="http://www.w3.org/2000/svg">
<path d="M26.7188 15.4688H7.03125C5.47795 15.4688 4.21875 16.7279 4.21875 18.2812V28.125C4.21875 29.6783 5.47795 30.9375 7.03125 30.9375H26.7188C28.2721 30.9375 29.5312 29.6783 29.5312 28.125V18.2812C29.5312 16.7279 28.2721 15.4688 26.7188 15.4688Z" stroke="white" stroke-width="2.8125" stroke-linecap="round" stroke-linejoin="round"/>
<path d="M9.84375 15.4688V9.84375C9.84375 7.97895 10.5845 6.19052 11.9032 4.87191C13.2218 3.55329 15.0102 2.8125 16.875 2.8125C18.7398 2.8125 20.5282 3.55329 21.8468 4.87191C23.1655 6.19052 23.9062 7.97895 23.9062 9.84375V15.4688" stroke="white" stroke-width="2.8125" stroke-linecap="round" stroke-linejoin="round"/>
</svg>
