<svg width="34" height="34" viewBox="0 0 34 34" fill="none" xmlns="http://www.w3.org/2000/svg">
<path d="M16.875 11.25C23.8649 11.25 29.5312 9.3612 29.5312 7.03125C29.5312 4.7013 23.8649 2.8125 16.875 2.8125C9.88515 2.8125 4.21875 4.7013 4.21875 7.03125C4.21875 9.3612 9.88515 11.25 16.875 11.25Z" stroke="white" stroke-width="2.8125" stroke-linecap="round" stroke-linejoin="round"/>
<path d="M4.21875 7.03125V26.7188C4.21875 27.8376 5.55217 28.9107 7.92568 29.7019C10.2992 30.493 13.5184 30.9375 16.875 30.9375C20.2316 30.9375 23.4508 30.493 25.8243 29.7019C28.1978 28.9107 29.5312 27.8376 29.5312 26.7188V7.03125" stroke="white" stroke-width="2.8125" stroke-linecap="round" stroke-linejoin="round"/>
<path d="M4.21875 16.875C4.21875 17.9939 5.55217 19.0669 7.92568 19.8581C10.2992 20.6493 13.5184 21.0938 16.875 21.0938C20.2316 21.0938 23.4508 20.6493 25.8243 19.8581C28.1978 19.0669 29.5312 17.9939 29.5312 16.875" stroke="white" stroke-width="2.8125" stroke-linecap="round" stroke-linejoin="round"/>
</svg>
