<svg width="14" height="14" viewBox="0 0 14 14" fill="none" xmlns="http://www.w3.org/2000/svg">
<g clip-path="url(#clip0_169_75890)">
<path d="M6.75 4.5C9.54594 4.5 11.8125 3.74448 11.8125 2.8125C11.8125 1.88052 9.54594 1.125 6.75 1.125C3.95406 1.125 1.6875 1.88052 1.6875 2.8125C1.6875 3.74448 3.95406 4.5 6.75 4.5Z" stroke="#6B7280" stroke-width="1.125" stroke-linecap="round" stroke-linejoin="round"/>
<path d="M1.6875 2.8125V10.6875C1.6875 11.1351 2.22087 11.5643 3.17027 11.8807C4.11967 12.1972 5.40734 12.375 6.75 12.375C8.09266 12.375 9.38032 12.1972 10.3297 11.8807C11.2791 11.5643 11.8125 11.1351 11.8125 10.6875V2.8125" stroke="#6B7280" stroke-width="1.125" stroke-linecap="round" stroke-linejoin="round"/>
<path d="M1.6875 6.75C1.6875 7.19755 2.22087 7.62678 3.17027 7.94324C4.11967 8.25971 5.40734 8.4375 6.75 8.4375C8.09266 8.4375 9.38032 8.25971 10.3297 7.94324C11.2791 7.62678 11.8125 7.19755 11.8125 6.75" stroke="#6B7280" stroke-width="1.125" stroke-linecap="round" stroke-linejoin="round"/>
</g>
<defs>
<clipPath id="clip0_169_75890">
<rect width="13.5" height="13.5" fill="white"/>
</clipPath>
</defs>
</svg>
