<svg width="34" height="34" viewBox="0 0 34 34" fill="none" xmlns="http://www.w3.org/2000/svg">
<path d="M25.3125 25.3125C27.6425 25.3125 29.5312 23.4237 29.5312 21.0938C29.5312 18.7638 27.6425 16.875 25.3125 16.875C22.9825 16.875 21.0938 18.7638 21.0938 21.0938C21.0938 23.4237 22.9825 25.3125 25.3125 25.3125Z" stroke="white" stroke-width="2.8125" stroke-linecap="round" stroke-linejoin="round"/>
<path d="M12.6562 15.4688C15.7629 15.4688 18.2812 12.9504 18.2812 9.84375C18.2812 6.73715 15.7629 4.21875 12.6562 4.21875C9.54965 4.21875 7.03125 6.73715 7.03125 9.84375C7.03125 12.9504 9.54965 15.4688 12.6562 15.4688Z" stroke="white" stroke-width="2.8125" stroke-linecap="round" stroke-linejoin="round"/>
<path d="M14.0625 21.0938H8.4375C6.94566 21.0938 5.51492 21.6864 4.46002 22.7413C3.40513 23.7962 2.8125 25.2269 2.8125 26.7188V29.5312" stroke="white" stroke-width="2.8125" stroke-linecap="round" stroke-linejoin="round"/>
<path d="M30.5156 23.0625L29.25 22.6406" stroke="white" stroke-width="2.8125" stroke-linecap="round" stroke-linejoin="round"/>
<path d="M21.375 19.5469L20.1094 19.125" stroke="white" stroke-width="2.8125" stroke-linecap="round" stroke-linejoin="round"/>
<path d="M23.3438 26.2969L23.7656 25.0312" stroke="white" stroke-width="2.8125" stroke-linecap="round" stroke-linejoin="round"/>
<path d="M26.8594 17.1562L27.2812 15.8906" stroke="white" stroke-width="2.8125" stroke-linecap="round" stroke-linejoin="round"/>
<path d="M27.5625 26.2969L27 24.8906" stroke="white" stroke-width="2.8125" stroke-linecap="round" stroke-linejoin="round"/>
<path d="M23.625 17.2969L23.0625 15.8906" stroke="white" stroke-width="2.8125" stroke-linecap="round" stroke-linejoin="round"/>
<path d="M20.1094 23.3437L21.5156 22.7812" stroke="white" stroke-width="2.8125" stroke-linecap="round" stroke-linejoin="round"/>
<path d="M29.1094 19.4063L30.5156 18.8438" stroke="white" stroke-width="2.8125" stroke-linecap="round" stroke-linejoin="round"/>
</svg>
