<svg width="34" height="34" viewBox="0 0 34 34" fill="none" xmlns="http://www.w3.org/2000/svg">
<path d="M30.5577 25.3125L19.3077 5.62501C19.0624 5.19217 18.7067 4.83215 18.2768 4.58167C17.847 4.33119 17.3584 4.19922 16.8609 4.19922C16.3633 4.19922 15.8747 4.33119 15.4449 4.58167C15.015 4.83215 14.6593 5.19217 14.414 5.62501L3.16398 25.3125C2.91603 25.7419 2.78602 26.2292 2.78712 26.7251C2.78821 27.221 2.92039 27.7077 3.17023 28.136C3.42008 28.5643 3.77872 28.919 4.2098 29.164C4.64088 29.409 5.12908 29.5357 5.62492 29.5313H28.1249C28.6184 29.5308 29.103 29.4004 29.5302 29.1534C29.9573 28.9063 30.3119 28.5512 30.5584 28.1238C30.805 27.6963 30.9347 27.2115 30.9345 26.718C30.9344 26.2246 30.8045 25.7399 30.5577 25.3125Z" stroke="white" stroke-width="2.8125" stroke-linecap="round" stroke-linejoin="round"/>
<path d="M16.875 12.6562V18.2812" stroke="white" stroke-width="2.8125" stroke-linecap="round" stroke-linejoin="round"/>
<path d="M16.875 23.9062H16.8891" stroke="white" stroke-width="2.8125" stroke-linecap="round" stroke-linejoin="round"/>
</svg>
