<svg width="34" height="34" viewBox="0 0 34 34" fill="none" xmlns="http://www.w3.org/2000/svg">
<path d="M8.4375 4.21875V21.0938" stroke="white" stroke-width="2.8125" stroke-linecap="round" stroke-linejoin="round"/>
<path d="M25.3125 12.6562C27.6425 12.6562 29.5312 10.7675 29.5312 8.4375C29.5312 6.10755 27.6425 4.21875 25.3125 4.21875C22.9825 4.21875 21.0938 6.10755 21.0938 8.4375C21.0938 10.7675 22.9825 12.6562 25.3125 12.6562Z" stroke="white" stroke-width="2.8125" stroke-linecap="round" stroke-linejoin="round"/>
<path d="M8.4375 29.5312C10.7675 29.5312 12.6562 27.6425 12.6562 25.3125C12.6562 22.9825 10.7675 21.0938 8.4375 21.0938C6.10755 21.0938 4.21875 22.9825 4.21875 25.3125C4.21875 27.6425 6.10755 29.5312 8.4375 29.5312Z" stroke="white" stroke-width="2.8125" stroke-linecap="round" stroke-linejoin="round"/>
<path d="M25.3125 12.6562C25.3125 16.0129 23.9791 19.2321 21.6056 21.6056C19.2321 23.9791 16.0129 25.3125 12.6562 25.3125" stroke="white" stroke-width="2.8125" stroke-linecap="round" stroke-linejoin="round"/>
</svg>
