<svg width="20" height="20" viewBox="0 0 20 20" fill="none" xmlns="http://www.w3.org/2000/svg">
<path d="M12.5005 18.3307V14.9974C12.6164 13.9535 12.3171 12.9058 11.6671 12.0807C14.1671 12.0807 16.6671 10.4141 16.6671 7.4974C16.7338 6.45573 16.4421 5.43073 15.8338 4.58073C16.0671 3.6224 16.0671 2.6224 15.8338 1.66406C15.8338 1.66406 15.0005 1.66406 13.3338 2.91406C11.1338 2.4974 8.86715 2.4974 6.66715 2.91406C5.00048 1.66406 4.16715 1.66406 4.16715 1.66406C3.91715 2.6224 3.91715 3.6224 4.16715 4.58073C3.56037 5.4273 3.26587 6.45805 3.33381 7.4974C3.33381 10.4141 5.83381 12.0807 8.33381 12.0807C8.00881 12.4891 7.76714 12.9557 7.62548 13.4557C7.48381 13.9557 7.44215 14.4807 7.50048 14.9974V18.3307" stroke="#101828" stroke-width="1.66667" stroke-linecap="round" stroke-linejoin="round"/>
<path d="M7.5013 15.0026C3.74297 16.6693 3.33464 13.3359 1.66797 13.3359" stroke="#101828" stroke-width="1.66667" stroke-linecap="round" stroke-linejoin="round"/>
</svg>
