<svg width="20" height="20" viewBox="0 0 20 20" fill="none" xmlns="http://www.w3.org/2000/svg">
<path d="M13.332 6.66406C14.6581 6.66406 15.9299 7.19085 16.8676 8.12853C17.8052 9.06621 18.332 10.338 18.332 11.6641V17.4974H14.9987V11.6641C14.9987 11.222 14.8231 10.7981 14.5105 10.4856C14.198 10.173 13.7741 9.9974 13.332 9.9974C12.89 9.9974 12.4661 10.173 12.1535 10.4856C11.841 10.7981 11.6654 11.222 11.6654 11.6641V17.4974H8.33203V11.6641C8.33203 10.338 8.85882 9.06621 9.7965 8.12853C10.7342 7.19085 12.0059 6.66406 13.332 6.66406Z" stroke="#155DFC" stroke-width="1.66667" stroke-linecap="round" stroke-linejoin="round"/>
<path d="M5.0013 7.5H1.66797V17.5H5.0013V7.5Z" stroke="#155DFC" stroke-width="1.66667" stroke-linecap="round" stroke-linejoin="round"/>
<path d="M3.33464 4.9974C4.25511 4.9974 5.0013 4.2512 5.0013 3.33073C5.0013 2.41025 4.25511 1.66406 3.33464 1.66406C2.41416 1.66406 1.66797 2.41025 1.66797 3.33073C1.66797 4.2512 2.41416 4.9974 3.33464 4.9974Z" stroke="#155DFC" stroke-width="1.66667" stroke-linecap="round" stroke-linejoin="round"/>
</svg>
