<svg width="14" height="14" viewBox="0 0 14 14" fill="none" xmlns="http://www.w3.org/2000/svg">
<path d="M9.33325 7.58113L12.38 9.61229C12.4239 9.64152 12.475 9.65829 12.5276 9.66081C12.5803 9.66333 12.6327 9.65151 12.6793 9.62661C12.7258 9.60171 12.7646 9.56466 12.7918 9.5194C12.8189 9.47415 12.8332 9.42239 12.8333 9.36963V4.58863C12.8333 4.53731 12.8197 4.48689 12.794 4.44247C12.7683 4.39805 12.7314 4.3612 12.6869 4.33564C12.6424 4.31007 12.5919 4.2967 12.5406 4.29688C12.4893 4.29705 12.4389 4.31076 12.3946 4.33663L9.33325 6.12279" stroke="white" stroke-width="1.16667" stroke-linecap="round" stroke-linejoin="round"/>
<path d="M8.16675 3.5H2.33341C1.68908 3.5 1.16675 4.02233 1.16675 4.66667V9.33333C1.16675 9.97767 1.68908 10.5 2.33341 10.5H8.16675C8.81108 10.5 9.33341 9.97767 9.33341 9.33333V4.66667C9.33341 4.02233 8.81108 3.5 8.16675 3.5Z" stroke="white" stroke-width="1.16667" stroke-linecap="round" stroke-linejoin="round"/>
</svg>
