<svg width="20" height="20" viewBox="0 0 20 20" fill="none" xmlns="http://www.w3.org/2000/svg">
<path d="M2.47508 10.7667C2.22905 10.9145 2.02535 11.1233 1.88374 11.373C1.74212 11.6226 1.66738 11.9046 1.66675 12.1917V14.8917C1.66738 15.1787 1.74212 15.4607 1.88374 15.7103C2.02535 15.96 2.22905 16.1688 2.47508 16.3167L4.97508 17.8167C5.2343 17.9724 5.53101 18.0547 5.83341 18.0547C6.13582 18.0547 6.43253 17.9724 6.69175 17.8167L10.0001 15.8333V11.25L5.83341 8.75L2.47508 10.7667Z" stroke="#6B7280" stroke-width="1.66667" stroke-linecap="round" stroke-linejoin="round"/>
<path d="M5.8333 13.75L1.8833 11.375" stroke="#6B7280" stroke-width="1.66667" stroke-linecap="round" stroke-linejoin="round"/>
<path d="M5.83325 13.75L9.99992 11.25" stroke="#6B7280" stroke-width="1.66667" stroke-linecap="round" stroke-linejoin="round"/>
<path d="M5.83325 13.75V18.0583" stroke="#6B7280" stroke-width="1.66667" stroke-linecap="round" stroke-linejoin="round"/>
<path d="M10 11.25V15.8333L13.3083 17.8167C13.5676 17.9724 13.8643 18.0547 14.1667 18.0547C14.4691 18.0547 14.7658 17.9724 15.025 17.8167L17.525 16.3167C17.771 16.1688 17.9747 15.96 18.1163 15.7103C18.258 15.4607 18.3327 15.1787 18.3333 14.8917V12.1917C18.3327 11.9046 18.258 11.6226 18.1163 11.373C17.9747 11.1233 17.771 10.9145 17.525 10.7667L14.1667 8.75L10 11.25Z" stroke="#6B7280" stroke-width="1.66667" stroke-linecap="round" stroke-linejoin="round"/>
<path d="M14.1667 13.75L10 11.25" stroke="#6B7280" stroke-width="1.66667" stroke-linecap="round" stroke-linejoin="round"/>
<path d="M14.1667 13.75L18.1167 11.375" stroke="#6B7280" stroke-width="1.66667" stroke-linecap="round" stroke-linejoin="round"/>
<path d="M14.1667 13.75V18.0583" stroke="#6B7280" stroke-width="1.66667" stroke-linecap="round" stroke-linejoin="round"/>
<path d="M6.64159 3.68333C6.39555 3.83115 6.19186 4.04 6.05024 4.28965C5.90862 4.53931 5.83388 4.8213 5.83325 5.10833V8.75L9.99992 11.25L14.1666 8.75V5.10833C14.166 4.8213 14.0912 4.53931 13.9496 4.28965C13.808 4.04 13.6043 3.83115 13.3583 3.68333L10.8583 2.18333C10.599 2.02759 10.3023 1.94531 9.99992 1.94531C9.69751 1.94531 9.4008 2.02759 9.14159 2.18333L6.64159 3.68333Z" stroke="#6B7280" stroke-width="1.66667" stroke-linecap="round" stroke-linejoin="round"/>
<path d="M10 6.66663L6.05005 4.29163" stroke="#6B7280" stroke-width="1.66667" stroke-linecap="round" stroke-linejoin="round"/>
<path d="M10 6.66663L13.95 4.29163" stroke="#6B7280" stroke-width="1.66667" stroke-linecap="round" stroke-linejoin="round"/>
<path d="M10 11.25V6.66663" stroke="#6B7280" stroke-width="1.66667" stroke-linecap="round" stroke-linejoin="round"/>
</svg>
