<svg width="20" height="20" viewBox="0 0 20 20" fill="none" xmlns="http://www.w3.org/2000/svg">
<path d="M16.6667 6.66663H3.33333C2.8731 6.66663 2.5 7.03972 2.5 7.49996V9.16663C2.5 9.62686 2.8731 9.99996 3.33333 9.99996H16.6667C17.1269 9.99996 17.5 9.62686 17.5 9.16663V7.49996C17.5 7.03972 17.1269 6.66663 16.6667 6.66663Z" stroke="#6B7280" stroke-width="1.66667" stroke-linecap="round" stroke-linejoin="round"/>
<path d="M10 6.66663V17.5" stroke="#6B7280" stroke-width="1.66667" stroke-linecap="round" stroke-linejoin="round"/>
<path d="M15.8334 10V15.8333C15.8334 16.2754 15.6578 16.6993 15.3453 17.0118C15.0327 17.3244 14.6088 17.5 14.1667 17.5H5.83341C5.39139 17.5 4.96746 17.3244 4.6549 17.0118C4.34234 16.6993 4.16675 16.2754 4.16675 15.8333V10" stroke="#6B7280" stroke-width="1.66667" stroke-linecap="round" stroke-linejoin="round"/>
<path d="M6.25008 6.66666C5.69755 6.66666 5.16764 6.44717 4.77694 6.05647C4.38624 5.66577 4.16675 5.13587 4.16675 4.58333C4.16675 4.0308 4.38624 3.50089 4.77694 3.11019C5.16764 2.71949 5.69755 2.5 6.25008 2.5C7.05399 2.48599 7.84177 2.87605 8.51069 3.6193C9.17962 4.36255 9.69864 5.4245 10.0001 6.66666C10.3015 5.4245 10.8205 4.36255 11.4895 3.6193C12.1584 2.87605 12.9462 2.48599 13.7501 2.5C14.3026 2.5 14.8325 2.71949 15.2232 3.11019C15.6139 3.50089 15.8334 4.0308 15.8334 4.58333C15.8334 5.13587 15.6139 5.66577 15.2232 6.05647C14.8325 6.44717 14.3026 6.66666 13.7501 6.66666" stroke="#6B7280" stroke-width="1.66667" stroke-linecap="round" stroke-linejoin="round"/>
</svg>
