<svg width="20" height="20" viewBox="0 0 20 20" fill="none" xmlns="http://www.w3.org/2000/svg">
<g clip-path="url(#clip0_4_105)">
<path d="M10.6916 1.81668C10.4744 1.71764 10.2385 1.66638 9.99989 1.66638C9.76123 1.66638 9.52536 1.71764 9.30822 1.81668L2.16656 5.06668C2.01868 5.13188 1.89295 5.23868 1.80469 5.37406C1.71643 5.50944 1.66943 5.66757 1.66943 5.82918C1.66943 5.99079 1.71643 6.14892 1.80469 6.2843C1.89295 6.41968 2.01868 6.52648 2.16656 6.59168L9.31656 9.85001C9.53369 9.94905 9.76956 10.0003 10.0082 10.0003C10.2469 10.0003 10.4828 9.94905 10.6999 9.85001L17.8499 6.60001C17.9978 6.53481 18.1235 6.42801 18.2118 6.29263C18.3 6.15725 18.347 5.99913 18.347 5.83751C18.347 5.6759 18.3 5.51777 18.2118 5.38239C18.1235 5.24701 17.9978 5.14022 17.8499 5.07501L10.6916 1.81668Z" stroke="#6B7280" stroke-width="1.66667" stroke-linecap="round" stroke-linejoin="round"/>
<path d="M1.66675 10C1.66636 10.1594 1.71168 10.3155 1.79735 10.45C1.88302 10.5844 2.00543 10.6914 2.15008 10.7583L9.31675 14.0167C9.53275 14.1145 9.76714 14.1651 10.0043 14.1651C10.2414 14.1651 10.4757 14.1145 10.6918 14.0167L17.8418 10.7667C17.9893 10.7004 18.1143 10.5926 18.2016 10.4564C18.2889 10.3203 18.3347 10.1617 18.3334 10" stroke="#6B7280" stroke-width="1.66667" stroke-linecap="round" stroke-linejoin="round"/>
<path d="M1.66675 14.1666C1.66636 14.326 1.71168 14.4822 1.79735 14.6166C1.88302 14.751 2.00543 14.858 2.15008 14.925L9.31675 18.1833C9.53275 18.2811 9.76714 18.3317 10.0043 18.3317C10.2414 18.3317 10.4757 18.2811 10.6918 18.1833L17.8418 14.9333C17.9893 14.867 18.1143 14.7592 18.2016 14.6231C18.2889 14.4869 18.3347 14.3283 18.3334 14.1666" stroke="#6B7280" stroke-width="1.66667" stroke-linecap="round" stroke-linejoin="round"/>
</g>
<defs>
<clipPath id="clip0_4_105">
<rect width="20" height="20" fill="white"/>
</clipPath>
</defs>
</svg>
