<svg preserveAspectRatio="none" width="100%" height="100%" overflow="visible" style="display: block;" viewBox="0 0 12 12" fill="none" xmlns="http://www.w3.org/2000/svg">
<g id="SVG" clip-path="url(#clip0_0_18)">
<path id="Vector" d="M5 6.5C5.21473 6.78706 5.48868 7.02459 5.80328 7.19647C6.11787 7.36835 6.46575 7.47056 6.82333 7.49617C7.1809 7.52178 7.53979 7.47018 7.87567 7.34489C8.21155 7.2196 8.51656 7.02353 8.77 6.77L10.27 5.27C10.7254 4.79849 10.9774 4.16699 10.9717 3.5115C10.966 2.856 10.7031 2.22897 10.2395 1.76545C9.77603 1.30193 9.14899 1.03901 8.4935 1.03331C7.83801 1.02762 7.20651 1.2796 6.735 1.735L5.875 2.59" stroke="#155DFC" stroke-linecap="round" stroke-linejoin="round"/>
<path id="Vector_2" d="M7.00303 5.49999C6.7883 5.21293 6.51435 4.9754 6.19975 4.80352C5.88516 4.63164 5.53728 4.52943 5.1797 4.50382C4.82213 4.47822 4.46324 4.52981 4.12736 4.6551C3.79148 4.78039 3.48647 4.97646 3.23303 5.22999L1.73303 6.72999C1.27763 7.2015 1.02565 7.833 1.03134 8.48849C1.03704 9.14399 1.29996 9.77102 1.76348 10.2345C2.227 10.6981 2.85403 10.961 3.50953 10.9667C4.16502 10.9724 4.79652 10.7204 5.26803 10.265L6.12303 9.40999" stroke="#155DFC" stroke-linecap="round" stroke-linejoin="round"/>
</g>
<defs>
<clipPath id="clip0_0_18">
<rect width="12" height="12" fill="white"/>
</clipPath>
</defs>
</svg>
