<svg preserveAspectRatio="none" width="100%" height="100%" overflow="visible" style="display: block;" viewBox="0 0 20 20" fill="none" xmlns="http://www.w3.org/2000/svg">
<g id="SVG">
<path id="Vector" d="M16.6693 10.8333C16.6693 15 13.7526 17.0833 10.2859 18.2916C10.1044 18.3531 9.90722 18.3502 9.7276 18.2833C6.2526 17.0833 3.33594 15 3.33594 10.8333V4.99997C3.33594 4.77895 3.42374 4.56699 3.58002 4.41071C3.7363 4.25443 3.94826 4.16663 4.16927 4.16663C5.83594 4.16663 7.91927 3.16663 9.36927 1.89997C9.54582 1.74913 9.7704 1.66626 10.0026 1.66626C10.2348 1.66626 10.4594 1.74913 10.6359 1.89997C12.0943 3.17497 14.1693 4.16663 15.8359 4.16663C16.057 4.16663 16.2689 4.25443 16.4252 4.41071C16.5815 4.56699 16.6693 4.77895 16.6693 4.99997V10.8333Z" stroke="#E7000B" stroke-width="1.66667" stroke-linecap="round" stroke-linejoin="round"/>
</g>
</svg>
