<svg width="16" height="16" viewBox="0 0 16 16" fill="none" xmlns="http://www.w3.org/2000/svg">
<path d="M8 5.33594C11.3137 5.33594 14 4.44051 14 3.33594C14 2.23137 11.3137 1.33594 8 1.33594C4.68629 1.33594 2 2.23137 2 3.33594C2 4.44051 4.68629 5.33594 8 5.33594Z" stroke="#4A5565" stroke-width="1.33333" stroke-linecap="round" stroke-linejoin="round"/>
<path d="M2 3.33594V12.6693C2 13.1997 2.63214 13.7084 3.75736 14.0835C4.88258 14.4586 6.4087 14.6693 8 14.6693C9.5913 14.6693 11.1174 14.4586 12.2426 14.0835C13.3679 13.7084 14 13.1997 14 12.6693V3.33594" stroke="#4A5565" stroke-width="1.33333" stroke-linecap="round" stroke-linejoin="round"/>
<path d="M2 8C2 8.53043 2.63214 9.03914 3.75736 9.41421C4.88258 9.78929 6.4087 10 8 10C9.5913 10 11.1174 9.78929 12.2426 9.41421C13.3679 9.03914 14 8.53043 14 8" stroke="#4A5565" stroke-width="1.33333" stroke-linecap="round" stroke-linejoin="round"/>
</svg>
