<svg width="16" height="16" viewBox="0 0 16 16" fill="none" xmlns="http://www.w3.org/2000/svg">
<path d="M13.3346 8.66957C13.3346 12.0029 11.0013 13.6696 8.22797 14.6362C8.08274 14.6855 7.92499 14.6831 7.7813 14.6296C5.0013 13.6696 2.66797 12.0029 2.66797 8.66957V4.0029C2.66797 3.82609 2.73821 3.65652 2.86323 3.5315C2.98826 3.40648 3.15782 3.33624 3.33464 3.33624C4.66797 3.33624 6.33464 2.53624 7.49464 1.5229C7.63587 1.40224 7.81554 1.33594 8.0013 1.33594C8.18707 1.33594 8.36673 1.40224 8.50797 1.5229C9.67464 2.5429 11.3346 3.33624 12.668 3.33624C12.8448 3.33624 13.0143 3.40648 13.1394 3.5315C13.2644 3.65652 13.3346 3.82609 13.3346 4.0029V8.66957Z" stroke="#4A5565" stroke-width="1.33333" stroke-linecap="round" stroke-linejoin="round"/>
<path d="M6 7.9974L7.33333 9.33073L10 6.66406" stroke="#4A5565" stroke-width="1.33333" stroke-linecap="round" stroke-linejoin="round"/>
</svg>
