<svg width="16" height="16" viewBox="0 0 16 16" fill="none" xmlns="http://www.w3.org/2000/svg">
<path d="M2.66797 13.0026V3.0026C2.66797 2.56058 2.84356 2.13665 3.15612 1.82409C3.46868 1.51153 3.89261 1.33594 4.33464 1.33594H12.668C12.8448 1.33594 13.0143 1.40618 13.1394 1.5312C13.2644 1.65622 13.3346 1.82579 13.3346 2.0026V14.0026C13.3346 14.1794 13.2644 14.349 13.1394 14.474C13.0143 14.599 12.8448 14.6693 12.668 14.6693H4.33464C3.89261 14.6693 3.46868 14.4937 3.15612 14.1811C2.84356 13.8686 2.66797 13.4446 2.66797 13.0026ZM2.66797 13.0026C2.66797 12.5606 2.84356 12.1367 3.15612 11.8241C3.46868 11.5115 3.89261 11.3359 4.33464 11.3359H13.3346" stroke="#155DFC" stroke-width="1.33333" stroke-linecap="round" stroke-linejoin="round"/>
</svg>
