<svg width="16" height="16" viewBox="0 0 16 16" fill="none" xmlns="http://www.w3.org/2000/svg">
<path d="M12 12C13.1046 12 14 11.1046 14 10C14 8.89543 13.1046 8 12 8C10.8954 8 10 8.89543 10 10C10 11.1046 10.8954 12 12 12Z" stroke="#4A5565" stroke-width="1.33333" stroke-linecap="round" stroke-linejoin="round"/>
<path d="M5.9987 7.33333C7.47146 7.33333 8.66536 6.13943 8.66536 4.66667C8.66536 3.19391 7.47146 2 5.9987 2C4.52594 2 3.33203 3.19391 3.33203 4.66667C3.33203 6.13943 4.52594 7.33333 5.9987 7.33333Z" stroke="#4A5565" stroke-width="1.33333" stroke-linecap="round" stroke-linejoin="round"/>
<path d="M6.66536 10H3.9987C3.29145 10 2.61318 10.281 2.11308 10.781C1.61298 11.2811 1.33203 11.9594 1.33203 12.6667V14" stroke="#4A5565" stroke-width="1.33333" stroke-linecap="round" stroke-linejoin="round"/>
<path d="M14.4672 10.9344L13.8672 10.7344" stroke="#4A5565" stroke-width="1.33333" stroke-linecap="round" stroke-linejoin="round"/>
<path d="M10.1352 9.27031L9.53516 9.07031" stroke="#4A5565" stroke-width="1.33333" stroke-linecap="round" stroke-linejoin="round"/>
<path d="M11.0664 12.4672L11.2664 11.8672" stroke="#4A5565" stroke-width="1.33333" stroke-linecap="round" stroke-linejoin="round"/>
<path d="M12.7344 8.13125L12.9344 7.53125" stroke="#4A5565" stroke-width="1.33333" stroke-linecap="round" stroke-linejoin="round"/>
<path d="M13.0674 12.4635L12.8008 11.7969" stroke="#4A5565" stroke-width="1.33333" stroke-linecap="round" stroke-linejoin="round"/>
<path d="M11.2003 8.19792L10.9336 7.53125" stroke="#4A5565" stroke-width="1.33333" stroke-linecap="round" stroke-linejoin="round"/>
<path d="M9.53516 11.0635L10.2018 10.7969" stroke="#4A5565" stroke-width="1.33333" stroke-linecap="round" stroke-linejoin="round"/>
<path d="M13.8008 9.19635L14.4674 8.92969" stroke="#4A5565" stroke-width="1.33333" stroke-linecap="round" stroke-linejoin="round"/>
</svg>
