<svg width="16" height="16" viewBox="0 0 16 16" fill="none" xmlns="http://www.w3.org/2000/svg">
<path d="M10.318 8.59375L11.328 14.2778C11.3393 14.3447 11.3299 14.4135 11.301 14.4749C11.2722 14.5364 11.2253 14.5875 11.1666 14.6216C11.1079 14.6557 11.0402 14.671 10.9725 14.6656C10.9048 14.6601 10.8405 14.6341 10.788 14.5911L8.40129 12.7997C8.28607 12.7137 8.14611 12.6672 8.00229 12.6672C7.85847 12.6672 7.71851 12.7137 7.60329 12.7997L5.21262 14.5904C5.16017 14.6334 5.09586 14.6593 5.02829 14.6648C4.96071 14.6702 4.89307 14.655 4.8344 14.621C4.77573 14.587 4.72881 14.536 4.6999 14.4746C4.671 14.4133 4.66148 14.3446 4.67262 14.2778L5.68196 8.59375" stroke="#4A5565" stroke-width="1.33333" stroke-linecap="round" stroke-linejoin="round"/>
<path d="M8 9.33398C10.2091 9.33398 12 7.54312 12 5.33398C12 3.12485 10.2091 1.33398 8 1.33398C5.79086 1.33398 4 3.12485 4 5.33398C4 7.54312 5.79086 9.33398 8 9.33398Z" stroke="#4A5565" stroke-width="1.33333" stroke-linecap="round" stroke-linejoin="round"/>
</svg>
