<svg width="16" height="16" viewBox="0 0 16 16" fill="none" xmlns="http://www.w3.org/2000/svg">
<g clip-path="url(#clip0_1085_2602)">
<path d="M14.1147 4.54419C14.4671 4.19181 14.6652 3.71384 14.6652 3.21543C14.6653 2.71702 14.4674 2.239 14.115 1.88652C13.7626 1.53405 13.2846 1.336 12.7862 1.33594C12.2878 1.33587 11.8098 1.53381 11.4573 1.88619L2.55999 10.7855C2.4052 10.9399 2.29073 11.1299 2.22665 11.3389L1.34599 14.2402C1.32876 14.2978 1.32746 14.3591 1.34222 14.4174C1.35699 14.4758 1.38727 14.529 1.42985 14.5715C1.47244 14.614 1.52573 14.6442 1.58409 14.6589C1.64245 14.6736 1.70369 14.6722 1.76132 14.6549L4.66332 13.7749C4.8721 13.7114 5.0621 13.5976 5.21665 13.4435L14.1147 4.54419Z" stroke="#155DFC" stroke-width="1.33333" stroke-linecap="round" stroke-linejoin="round"/>
</g>
<defs>
<clipPath id="clip0_1085_2602">
<rect width="16" height="16" fill="white"/>
</clipPath>
</defs>
</svg>
