<svg width="16" height="16" viewBox="0 0 16 16" fill="none" xmlns="http://www.w3.org/2000/svg">
<path d="M12 14C13.1046 14 14 13.1046 14 12C14 10.8954 13.1046 10 12 10C10.8954 10 10 10.8954 10 12C10 13.1046 10.8954 14 12 14Z" stroke="white" stroke-width="1.33333" stroke-linecap="round" stroke-linejoin="round"/>
<path d="M6.86536 13.3334H2.66536C2.31174 13.3334 1.9726 13.1929 1.72256 12.9429C1.47251 12.6928 1.33203 12.3537 1.33203 12.0001V3.3334C1.33203 2.97978 1.47251 2.64064 1.72256 2.39059C1.9726 2.14054 2.31174 2.00006 2.66536 2.00006H5.26536C5.48836 1.99788 5.70833 2.05166 5.90516 2.15648C6.10199 2.2613 6.26939 2.41381 6.39203 2.60006L6.93203 3.40006C7.05344 3.58442 7.21872 3.73574 7.41303 3.84047C7.60735 3.94519 7.82463 4.00003 8.04536 4.00006H13.332C13.6857 4.00006 14.0248 4.14054 14.2748 4.39059C14.5249 4.64064 14.6654 4.97978 14.6654 5.3334V7.5334" stroke="white" stroke-width="1.33333" stroke-linecap="round" stroke-linejoin="round"/>
<path d="M14.4672 12.9344L13.8672 12.7344" stroke="white" stroke-width="1.33333" stroke-linecap="round" stroke-linejoin="round"/>
<path d="M10.1352 11.2703L9.53516 11.0703" stroke="white" stroke-width="1.33333" stroke-linecap="round" stroke-linejoin="round"/>
<path d="M11.0664 14.4672L11.2664 13.8672" stroke="white" stroke-width="1.33333" stroke-linecap="round" stroke-linejoin="round"/>
<path d="M12.7344 10.1312L12.9344 9.53125" stroke="white" stroke-width="1.33333" stroke-linecap="round" stroke-linejoin="round"/>
<path d="M13.0674 14.4635L12.8008 13.7969" stroke="white" stroke-width="1.33333" stroke-linecap="round" stroke-linejoin="round"/>
<path d="M11.2003 10.1979L10.9336 9.53125" stroke="white" stroke-width="1.33333" stroke-linecap="round" stroke-linejoin="round"/>
<path d="M9.53516 13.0635L10.2018 12.7969" stroke="white" stroke-width="1.33333" stroke-linecap="round" stroke-linejoin="round"/>
<path d="M13.8008 11.1964L14.4674 10.9297" stroke="white" stroke-width="1.33333" stroke-linecap="round" stroke-linejoin="round"/>
</svg>
