<svg preserveAspectRatio="none" width="100%" height="100%" overflow="visible" style="display: block;" viewBox="0 0 20 20" fill="none" xmlns="http://www.w3.org/2000/svg">
<g id="SVG" clip-path="url(#clip0_0_70)">
<path id="Vector" d="M16.667 1.66666H3.33366C2.41318 1.66666 1.66699 2.41285 1.66699 3.33332V6.66666C1.66699 7.58713 2.41318 8.33332 3.33366 8.33332H16.667C17.5875 8.33332 18.3337 7.58713 18.3337 6.66666V3.33332C18.3337 2.41285 17.5875 1.66666 16.667 1.66666Z" stroke="#155DFC" stroke-width="1.66667" stroke-linecap="round" stroke-linejoin="round"/>
<path id="Vector_2" d="M16.667 11.6667H3.33366C2.41318 11.6667 1.66699 12.4128 1.66699 13.3333V16.6667C1.66699 17.5871 2.41318 18.3333 3.33366 18.3333H16.667C17.5875 18.3333 18.3337 17.5871 18.3337 16.6667V13.3333C18.3337 12.4128 17.5875 11.6667 16.667 11.6667Z" stroke="#155DFC" stroke-width="1.66667" stroke-linecap="round" stroke-linejoin="round"/>
<path id="Vector_3" d="M5 5H5.00833" stroke="#155DFC" stroke-width="1.66667" stroke-linecap="round" stroke-linejoin="round"/>
<path id="Vector_4" d="M5 15H5.00833" stroke="#155DFC" stroke-width="1.66667" stroke-linecap="round" stroke-linejoin="round"/>
</g>
<defs>
<clipPath id="clip0_0_70">
<rect width="20" height="20" fill="white"/>
</clipPath>
</defs>
</svg>
