<svg width="16" height="16" viewBox="0 0 16 16" fill="none" xmlns="http://www.w3.org/2000/svg">
<path d="M6.66512 13.3333C6.66507 13.4572 6.69953 13.5787 6.76465 13.6841C6.82977 13.7895 6.92297 13.8746 7.03379 13.93L8.36712 14.5967C8.46879 14.6475 8.58175 14.6714 8.69529 14.6663C8.80882 14.6612 8.91916 14.6271 9.01581 14.5673C9.11247 14.5075 9.19224 14.424 9.24754 14.3247C9.30284 14.2254 9.33184 14.1137 9.33179 14V9.33333C9.33194 9.00292 9.45477 8.68433 9.67646 8.43933L14.4918 3.11333C14.5781 3.01771 14.6349 2.89912 14.6552 2.77192C14.6755 2.64472 14.6586 2.51435 14.6064 2.39658C14.5542 2.27881 14.469 2.17868 14.3611 2.1083C14.2532 2.03792 14.1273 2.0003 13.9985 2H1.99846C1.86953 2.00005 1.74338 2.03748 1.63529 2.10776C1.5272 2.17804 1.44181 2.27815 1.38946 2.39598C1.33711 2.5138 1.32005 2.64427 1.34034 2.77159C1.36063 2.89892 1.41741 3.01762 1.50379 3.11333L6.32046 8.43933C6.54215 8.68433 6.66497 9.00292 6.66512 9.33333V13.3333Z" stroke="#99A1AF" stroke-width="1.33333" stroke-linecap="round" stroke-linejoin="round"/>
</svg>
