<svg preserveAspectRatio="none" width="100%" height="100%" overflow="visible" style="display: block;" viewBox="0 0 16 16" fill="none" xmlns="http://www.w3.org/2000/svg">
<g id="SVG">
<path id="Vector" d="M1.37761 7.768C1.32205 7.91767 1.32205 8.08232 1.37761 8.232C1.91874 9.54409 2.83728 10.666 4.01679 11.4554C5.19629 12.2448 6.58364 12.6663 8.00294 12.6663C9.42225 12.6663 10.8096 12.2448 11.9891 11.4554C13.1686 10.666 14.0871 9.54409 14.6283 8.232C14.6838 8.08232 14.6838 7.91767 14.6283 7.768C14.0871 6.4559 13.1686 5.33402 11.9891 4.5446C10.8096 3.75517 9.42225 3.33374 8.00294 3.33374C6.58364 3.33374 5.19629 3.75517 4.01679 4.5446C2.83728 5.33402 1.91874 6.4559 1.37761 7.768Z" stroke="#155DFC" stroke-width="1.33333" stroke-linecap="round" stroke-linejoin="round"/>
<path id="Vector_2" d="M8 10C9.10457 10 10 9.10457 10 8C10 6.89543 9.10457 6 8 6C6.89543 6 6 6.89543 6 8C6 9.10457 6.89543 10 8 10Z" stroke="#155DFC" stroke-width="1.33333" stroke-linecap="round" stroke-linejoin="round"/>
</g>
</svg>
