<svg width="20" height="20" viewBox="0 0 20 20" fill="none" xmlns="http://www.w3.org/2000/svg">
<path d="M13.3335 4.99999L6.32185 12.155C6.00923 12.4676 5.8336 12.8916 5.8336 13.3337C5.8336 13.7759 6.00923 14.1999 6.32185 14.5125C6.63448 14.8251 7.05848 15.0007 7.5006 15.0007C7.94272 15.0007 8.36673 14.8251 8.67935 14.5125L15.691 7.35749C16.3162 6.73236 16.6674 5.88449 16.6674 5.00041C16.6674 4.11633 16.3162 3.26847 15.691 2.64333C15.0659 2.01819 14.218 1.66699 13.3339 1.66699C12.4499 1.66699 11.602 2.01819 10.9769 2.64333L3.99435 9.76916C3.52385 10.2321 3.14966 10.7835 2.89335 11.3918C2.63705 12 2.50371 12.653 2.50102 13.313C2.49833 13.973 2.62635 14.6271 2.87769 15.2374C3.12904 15.8477 3.49873 16.4022 3.96544 16.8689C4.43216 17.3356 4.98666 17.7053 5.59697 17.9567C6.20727 18.208 6.86131 18.336 7.52134 18.3333C8.18137 18.3306 8.83433 18.1973 9.44257 17.941C10.0508 17.6847 10.6023 17.3105 11.0652 16.84L18.0477 9.71416" stroke="white" stroke-opacity="0.5" stroke-width="1.66667" stroke-linecap="round" stroke-linejoin="round"/>
</svg>
