<svg width="40" height="40" viewBox="0 0 40 40" fill="none" xmlns="http://www.w3.org/2000/svg">
<path d="M6.66661 23.3333C6.35122 23.3344 6.042 23.246 5.77487 23.0783C5.50774 22.9106 5.29367 22.6706 5.15753 22.3861C5.02139 22.1016 4.96877 21.7843 5.00578 21.4711C5.04279 21.1579 5.16791 20.8616 5.36661 20.6167L21.8666 3.61665C21.9904 3.47379 22.159 3.37725 22.3449 3.34287C22.5308 3.3085 22.7228 3.33834 22.8895 3.42749C23.0562 3.51665 23.1876 3.65981 23.2622 3.8335C23.3368 4.00719 23.3501 4.20107 23.2999 4.38332L20.0999 14.4167C20.0056 14.6692 19.9739 14.9409 20.0076 15.2083C20.0413 15.4758 20.1394 15.7311 20.2934 15.9524C20.4475 16.1736 20.6529 16.3542 20.8921 16.4786C21.1312 16.603 21.397 16.6675 21.6666 16.6667H33.3333C33.6487 16.6656 33.9579 16.754 34.225 16.9217C34.4922 17.0894 34.7062 17.3294 34.8424 17.6139C34.9785 17.8984 35.0311 18.2157 34.9941 18.5289C34.9571 18.8421 34.832 19.1384 34.6333 19.3833L18.1333 36.3833C18.0095 36.5262 17.8408 36.6227 17.655 36.6571C17.4691 36.6915 17.2771 36.6616 17.1104 36.5725C16.9437 36.4833 16.8123 36.3402 16.7377 36.1665C16.6631 35.9928 16.6498 35.7989 16.6999 35.6167L19.8999 25.5833C19.9943 25.3308 20.026 25.0591 19.9923 24.7916C19.9586 24.5242 19.8605 24.2689 19.7065 24.0476C19.5524 23.8264 19.347 23.6458 19.1078 23.5214C18.8687 23.397 18.6029 23.3324 18.3333 23.3333H6.66661Z" stroke="white" stroke-width="3.33333" stroke-linecap="round" stroke-linejoin="round"/>
</svg>
