<svg width="40" height="40" viewBox="0 0 40 40" fill="none" xmlns="http://www.w3.org/2000/svg">
<path d="M33.3333 21.6667C33.3333 30.0001 27.5 34.1667 20.5666 36.5834C20.2036 36.7064 19.8092 36.7005 19.45 36.5667C12.5 34.1667 6.66663 30.0001 6.66663 21.6667V10.0001C6.66663 9.55803 6.84222 9.13411 7.15478 8.82155C7.46734 8.50899 7.89127 8.33339 8.33329 8.33339C11.6666 8.33339 15.8333 6.33339 18.7333 3.80006C19.0864 3.49839 19.5355 3.33264 20 3.33264C20.4644 3.33264 20.9135 3.49839 21.2666 3.80006C24.1833 6.35006 28.3333 8.33339 31.6666 8.33339C32.1087 8.33339 32.5326 8.50899 32.8451 8.82155C33.1577 9.13411 33.3333 9.55803 33.3333 10.0001V21.6667Z" stroke="white" stroke-width="3.33333" stroke-linecap="round" stroke-linejoin="round"/>
</svg>
