<svg width="40" height="40" viewBox="0 0 40 40" fill="none" xmlns="http://www.w3.org/2000/svg">
<path d="M10 36.6666C9.11597 36.6666 8.26812 36.3154 7.643 35.6903C7.01788 35.0652 6.66669 34.2173 6.66669 33.3333V6.66659C6.66669 5.78254 7.01788 4.93469 7.643 4.30957C8.26812 3.68445 9.11597 3.33326 10 3.33326H23.3334C23.8609 3.3324 24.3835 3.43593 24.8709 3.63787C25.3583 3.83982 25.801 4.13619 26.1734 4.50992L32.1534 10.4899C32.5281 10.8624 32.8253 11.3055 33.0278 11.7935C33.2304 12.2816 33.3342 12.8049 33.3334 13.3333V33.3333C33.3334 34.2173 32.9822 35.0652 32.357 35.6903C31.7319 36.3154 30.8841 36.6666 30 36.6666H10Z" stroke="white" stroke-width="3.33333" stroke-linecap="round" stroke-linejoin="round"/>
<path d="M23.3333 3.33325V11.6666C23.3333 12.1086 23.5089 12.5325 23.8215 12.8451C24.134 13.1577 24.558 13.3333 25 13.3333H33.3333" stroke="white" stroke-width="3.33333" stroke-linecap="round" stroke-linejoin="round"/>
<path d="M16.6666 15H13.3333" stroke="white" stroke-width="3.33333" stroke-linecap="round" stroke-linejoin="round"/>
<path d="M26.6666 21.6667H13.3333" stroke="white" stroke-width="3.33333" stroke-linecap="round" stroke-linejoin="round"/>
<path d="M26.6666 28.3333H13.3333" stroke="white" stroke-width="3.33333" stroke-linecap="round" stroke-linejoin="round"/>
</svg>
