<svg width="40" height="40" viewBox="0 0 40 40" fill="none" xmlns="http://www.w3.org/2000/svg">
<path d="M25 20H16.6667" stroke="white" stroke-width="3.33333" stroke-linecap="round" stroke-linejoin="round"/>
<path d="M25 13.3334H16.6667" stroke="white" stroke-width="3.33333" stroke-linecap="round" stroke-linejoin="round"/>
<path d="M31.6667 28.3333V8.33333C31.6667 7.44928 31.3155 6.60143 30.6904 5.97631C30.0653 5.35119 29.2174 5 28.3334 5H6.66669" stroke="white" stroke-width="3.33333" stroke-linecap="round" stroke-linejoin="round"/>
<path d="M13.3333 35H33.3333C34.2174 35 35.0652 34.6488 35.6903 34.0237C36.3155 33.3986 36.6666 32.5507 36.6666 31.6667V30C36.6666 29.558 36.4911 29.134 36.1785 28.8215C35.8659 28.5089 35.442 28.3333 35 28.3333H18.3333C17.8913 28.3333 17.4674 28.5089 17.1548 28.8215C16.8422 29.134 16.6666 29.558 16.6666 30V31.6667C16.6666 32.5507 16.3155 33.3986 15.6903 34.0237C15.0652 34.6488 14.2174 35 13.3333 35ZM13.3333 35C12.4493 35 11.6014 34.6488 10.9763 34.0237C10.3512 33.3986 9.99998 32.5507 9.99998 31.6667V8.33333C9.99998 7.44928 9.64879 6.60143 9.02367 5.97631C8.39855 5.35119 7.5507 5 6.66665 5C5.78259 5 4.93474 5.35119 4.30962 5.97631C3.6845 6.60143 3.33331 7.44928 3.33331 8.33333V11.6667C3.33331 12.1087 3.50891 12.5326 3.82147 12.8452C4.13403 13.1577 4.55795 13.3333 4.99998 13.3333H9.99998" stroke="white" stroke-width="3.33333" stroke-linecap="round" stroke-linejoin="round"/>
</svg>
