<svg width="18" height="18" viewBox="0 0 18 18" fill="none" xmlns="http://www.w3.org/2000/svg">
<path d="M8.75065 16.0443C12.7777 16.0443 16.0423 12.7797 16.0423 8.7526C16.0423 4.72553 12.7777 1.46094 8.75065 1.46094C4.72357 1.46094 1.45898 4.72553 1.45898 8.7526C1.45898 12.7797 4.72357 16.0443 8.75065 16.0443Z" stroke="#E7000B" stroke-width="1.45833" stroke-linecap="round" stroke-linejoin="round"/>
<path d="M8.75 13.125C11.1662 13.125 13.125 11.1662 13.125 8.75C13.125 6.33375 11.1662 4.375 8.75 4.375C6.33375 4.375 4.375 6.33375 4.375 8.75C4.375 11.1662 6.33375 13.125 8.75 13.125Z" stroke="#E7000B" stroke-width="1.45833" stroke-linecap="round" stroke-linejoin="round"/>
<path d="M8.74935 10.2057C9.55476 10.2057 10.2077 9.55281 10.2077 8.7474C10.2077 7.94198 9.55476 7.28906 8.74935 7.28906C7.94393 7.28906 7.29102 7.94198 7.29102 8.7474C7.29102 9.55281 7.94393 10.2057 8.74935 10.2057Z" stroke="#E7000B" stroke-width="1.45833" stroke-linecap="round" stroke-linejoin="round"/>
</svg>
