<svg width="20" height="20" viewBox="0 0 20 20" fill="none" xmlns="http://www.w3.org/2000/svg">
<path d="M11.5267 13.8041C11.6989 13.8831 11.8927 13.9012 12.0765 13.8553C12.2602 13.8094 12.4229 13.7022 12.5376 13.5516L12.8334 13.1641C12.9887 12.9571 13.19 12.7891 13.4214 12.6734C13.6528 12.5576 13.908 12.4974 14.1667 12.4974H16.6667C17.1088 12.4974 17.5327 12.673 17.8453 12.9856C18.1578 13.2981 18.3334 13.722 18.3334 14.1641V16.6641C18.3334 17.1061 18.1578 17.53 17.8453 17.8426C17.5327 18.1551 17.1088 18.3307 16.6667 18.3307C12.6885 18.3307 8.87319 16.7504 6.06015 13.9373C3.2471 11.1243 1.66675 7.30898 1.66675 3.33073C1.66675 2.8887 1.84234 2.46478 2.1549 2.15222C2.46746 1.83966 2.89139 1.66406 3.33341 1.66406H5.83341C6.27544 1.66406 6.69936 1.83966 7.01193 2.15222C7.32449 2.46478 7.50008 2.8887 7.50008 3.33073V5.83073C7.50008 6.08947 7.43984 6.34466 7.32413 6.57609C7.20841 6.80751 7.04041 7.00882 6.83341 7.16406L6.44341 7.45656C6.29043 7.57338 6.1826 7.73955 6.13824 7.92685C6.09388 8.11416 6.11573 8.31104 6.20008 8.48406C7.33898 10.7973 9.2121 12.6681 11.5267 13.8041Z" stroke="#155DFC" stroke-width="1.66667" stroke-linecap="round" stroke-linejoin="round"/>
</svg>
