<svg width="18" height="18" viewBox="0 0 18 18" fill="none" xmlns="http://www.w3.org/2000/svg">
<path d="M3.64453 3.64627C3.64446 3.38967 3.71209 3.13759 3.84059 2.91549C3.9691 2.69339 4.15393 2.50912 4.37643 2.3813C4.59893 2.25349 4.85122 2.18664 5.10782 2.18751C5.36441 2.18838 5.61624 2.25694 5.83786 2.38627L14.5857 7.48897C14.8064 7.61707 14.9897 7.80087 15.1172 8.022C15.2447 8.24312 15.3119 8.49384 15.3121 8.74907C15.3123 9.00431 15.2455 9.25514 15.1185 9.47649C14.9914 9.69784 14.8084 9.88195 14.5879 10.0104L5.83786 15.1146C5.61624 15.2439 5.36441 15.3125 5.10782 15.3134C4.85122 15.3142 4.59893 15.2474 4.37643 15.1196C4.15393 14.9917 3.9691 14.8075 3.84059 14.5854C3.71209 14.3633 3.64446 14.1112 3.64453 13.8546V3.64627Z" stroke="#99A1AF" stroke-width="1.45833" stroke-linecap="round" stroke-linejoin="round"/>
</svg>
