<svg width="40" height="40" viewBox="0 0 40 40" fill="none" xmlns="http://www.w3.org/2000/svg">
<path d="M16.1184 6.89338C16.2102 5.92728 16.6589 5.03012 17.3769 4.37718C18.0948 3.72424 19.0304 3.36243 20.0009 3.36243C20.9713 3.36243 21.9069 3.72424 22.6248 4.37718C23.3428 5.03012 23.7915 5.92728 23.8834 6.89338C23.9385 7.51747 24.1433 8.11908 24.4802 8.64728C24.8172 9.17548 25.2764 9.61473 25.8191 9.92784C26.3618 10.241 26.9719 10.4187 27.5979 10.4461C28.2238 10.4734 28.8471 10.3496 29.415 10.085C30.2969 9.68468 31.2961 9.62675 32.2184 9.92253C33.1406 10.2183 33.9197 10.8466 34.4042 11.6852C34.8887 12.5238 35.0438 13.5127 34.8394 14.4593C34.635 15.406 34.0857 16.2427 33.2984 16.8067C32.7857 17.1665 32.3671 17.6444 32.0782 18.2001C31.7893 18.7558 31.6384 19.3729 31.6384 19.9992C31.6384 20.6255 31.7893 21.2426 32.0782 21.7983C32.3671 22.354 32.7857 22.832 33.2984 23.1917C34.0857 23.7557 34.635 24.5924 34.8394 25.5391C35.0438 26.4858 34.8887 27.4746 34.4042 28.3132C33.9197 29.1518 33.1406 29.7801 32.2184 30.0759C31.2961 30.3717 30.2969 30.3138 29.415 29.9134C28.8471 29.6488 28.2238 29.525 27.5979 29.5523C26.9719 29.5797 26.3618 29.7575 25.8191 30.0706C25.2764 30.3837 24.8172 30.8229 24.4802 31.3511C24.1433 31.8793 23.9385 32.481 23.8834 33.105C23.7915 34.0711 23.3428 34.9683 22.6248 35.6212C21.9069 36.2742 20.9713 36.636 20.0009 36.636C19.0304 36.636 18.0948 36.2742 17.3769 35.6212C16.6589 34.9683 16.2102 34.0711 16.1184 33.105C16.0633 32.4807 15.8585 31.8789 15.5215 31.3505C15.1844 30.8221 14.725 30.3827 14.1821 30.0696C13.6392 29.7564 13.0288 29.5787 12.4027 29.5516C11.7765 29.5244 11.153 29.6485 10.585 29.9134C9.70317 30.3138 8.7039 30.3717 7.78169 30.0759C6.85948 29.7801 6.08031 29.1518 5.59582 28.3132C5.11134 27.4746 4.95621 26.4858 5.16062 25.5391C5.36503 24.5924 5.91435 23.7557 6.70169 23.1917C7.21439 22.832 7.6329 22.354 7.92183 21.7983C8.21076 21.2426 8.36161 20.6255 8.36161 19.9992C8.36161 19.3729 8.21076 18.7558 7.92183 18.2001C7.6329 17.6444 7.21439 17.1665 6.70169 16.8067C5.91546 16.2425 5.3671 15.406 5.16319 14.46C4.95927 13.514 5.11437 12.5259 5.59833 11.6879C6.08229 10.8499 6.86054 10.2217 7.78184 9.92545C8.70313 9.62922 9.70166 9.68611 10.5834 10.085C11.1513 10.3496 11.7746 10.4734 12.4005 10.4461C13.0264 10.4187 13.6366 10.241 14.1792 9.92784C14.7219 9.61473 15.1812 9.17548 15.5181 8.64728C15.8551 8.11908 16.0598 7.51747 16.115 6.89338" stroke="white" stroke-width="3.33333" stroke-linecap="round" stroke-linejoin="round"/>
<path d="M20 25C22.7614 25 25 22.7614 25 20C25 17.2386 22.7614 15 20 15C17.2386 15 15 17.2386 15 20C15 22.7614 17.2386 25 20 25Z" stroke="white" stroke-width="3.33333" stroke-linecap="round" stroke-linejoin="round"/>
</svg>
