<svg width="20" height="20" viewBox="0 0 20 20" fill="none" xmlns="http://www.w3.org/2000/svg">
<path d="M4.99992 18.3307C4.55789 18.3307 4.13397 18.1551 3.82141 17.8426C3.50885 17.53 3.33325 17.1061 3.33325 16.6641V3.33073C3.33325 2.8887 3.50885 2.46478 3.82141 2.15222C4.13397 1.83966 4.55789 1.66407 4.99992 1.66407H11.6666C11.9304 1.66364 12.1917 1.7154 12.4354 1.81637C12.6791 1.91734 12.9004 2.06553 13.0866 2.2524L16.0766 5.2424C16.264 5.42865 16.4126 5.65019 16.5138 5.8942C16.6151 6.13821 16.667 6.39987 16.6666 6.66407V16.6641C16.6666 17.1061 16.491 17.53 16.1784 17.8426C15.8659 18.1551 15.4419 18.3307 14.9999 18.3307H4.99992Z" stroke="#00A63E" stroke-width="1.66667" stroke-linecap="round" stroke-linejoin="round"/>
<path d="M11.6667 1.66406V5.83073C11.6667 6.05174 11.7545 6.2637 11.9108 6.41998C12.0671 6.57626 12.2791 6.66406 12.5001 6.66406H16.6667" stroke="#00A63E" stroke-width="1.66667" stroke-linecap="round" stroke-linejoin="round"/>
<path d="M7.5 12.5026L9.16667 14.1693L12.5 10.8359" stroke="#00A63E" stroke-width="1.66667" stroke-linecap="round" stroke-linejoin="round"/>
</svg>
