<svg width="18" height="18" viewBox="0 0 18 18" fill="none" xmlns="http://www.w3.org/2000/svg">
<path d="M14.5827 9.4821C14.5827 13.1279 12.0306 14.9508 8.99727 16.0081C8.83843 16.062 8.66589 16.0594 8.50872 16.0008C5.4681 14.9508 2.91602 13.1279 2.91602 9.4821V4.37793C2.91602 4.18455 2.99284 3.99908 3.12958 3.86233C3.26633 3.72559 3.4518 3.64877 3.64518 3.64877C5.10352 3.64877 6.92643 2.77377 8.19518 1.66543C8.34966 1.53345 8.54617 1.46094 8.74935 1.46094C8.95253 1.46094 9.14904 1.53345 9.30352 1.66543C10.5796 2.78106 12.3952 3.64877 13.8535 3.64877C14.0469 3.64877 14.2324 3.72559 14.3691 3.86233C14.5059 3.99908 14.5827 4.18455 14.5827 4.37793V9.4821Z" stroke="#155DFC" stroke-width="1.45833" stroke-linecap="round" stroke-linejoin="round"/>
</svg>
