<svg width="40" height="40" viewBox="0 0 40 40" fill="none" xmlns="http://www.w3.org/2000/svg">
<path d="M36.2167 30L22.8833 6.6667C22.5926 6.1537 22.171 5.72701 21.6615 5.43014C21.1521 5.13328 20.573 4.97687 19.9833 4.97687C19.3937 4.97687 18.8146 5.13328 18.3051 5.43014C17.7957 5.72701 17.3741 6.1537 17.0833 6.6667L3.75 30C3.45614 30.509 3.30205 31.0865 3.30335 31.6742C3.30465 32.2619 3.4613 32.8388 3.75742 33.3464C4.05353 33.854 4.47858 34.2743 4.9895 34.5647C5.50041 34.8551 6.07902 35.0053 6.66667 35H33.3333C33.9182 34.9994 34.4926 34.845 34.9988 34.5522C35.5051 34.2594 35.9254 33.8385 36.2175 33.3319C36.5097 32.8253 36.6634 32.2507 36.6633 31.6658C36.6631 31.081 36.5091 30.5065 36.2167 30Z" stroke="white" stroke-width="3.33333" stroke-linecap="round" stroke-linejoin="round"/>
<path d="M20 15V21.6667" stroke="white" stroke-width="3.33333" stroke-linecap="round" stroke-linejoin="round"/>
<path d="M20 28.3333H20.0167" stroke="white" stroke-width="3.33333" stroke-linecap="round" stroke-linejoin="round"/>
</svg>
