<svg width="20" height="20" viewBox="0 0 20 20" fill="none" xmlns="http://www.w3.org/2000/svg">
<g id="SVG">
<path id="Vector" d="M16.6693 10.8334C16.6693 15 13.7526 17.0834 10.2859 18.2917C10.1044 18.3532 9.90722 18.3503 9.7276 18.2834C6.2526 17.0834 3.33594 15 3.33594 10.8334V5.00003C3.33594 4.77902 3.42374 4.56705 3.58002 4.41077C3.7363 4.25449 3.94826 4.1667 4.16927 4.1667C5.83594 4.1667 7.91927 3.1667 9.36927 1.90003C9.54582 1.74919 9.7704 1.66632 10.0026 1.66632C10.2348 1.66632 10.4594 1.74919 10.6359 1.90003C12.0943 3.17503 14.1693 4.1667 15.8359 4.1667C16.057 4.1667 16.2689 4.25449 16.4252 4.41077C16.5815 4.56705 16.6693 4.77902 16.6693 5.00003V10.8334Z" stroke="#155DFC" stroke-width="1.66667" stroke-linecap="round" stroke-linejoin="round"/>
</g>
</svg>
