<svg width="14" height="14" viewBox="0 0 14 14" fill="none" xmlns="http://www.w3.org/2000/svg">
<path d="M6.75 1.6875V11.8125" stroke="#155DFC" stroke-width="1.125" stroke-linecap="round" stroke-linejoin="round"/>
<path d="M10.6875 4.5L12.375 9C11.8882 9.36512 11.296 9.5625 10.6875 9.5625C10.079 9.5625 9.48683 9.36512 9 9L10.6875 4.5ZM10.6875 4.5V3.9375" stroke="#155DFC" stroke-width="1.125" stroke-linecap="round" stroke-linejoin="round"/>
<path d="M1.6875 3.9375H2.25C3.8196 3.9375 5.36506 3.55113 6.75 2.8125C8.13494 3.55113 9.6804 3.9375 11.25 3.9375H11.8125" stroke="#155DFC" stroke-width="1.125" stroke-linecap="round" stroke-linejoin="round"/>
<path d="M2.8125 4.5L4.5 9C4.01317 9.36512 3.42104 9.5625 2.8125 9.5625C2.20396 9.5625 1.61183 9.36512 1.125 9L2.8125 4.5ZM2.8125 4.5V3.9375" stroke="#155DFC" stroke-width="1.125" stroke-linecap="round" stroke-linejoin="round"/>
<path d="M3.9375 11.8125H9.5625" stroke="#155DFC" stroke-width="1.125" stroke-linecap="round" stroke-linejoin="round"/>
</svg>
