<svg width="14" height="14" viewBox="0 0 14 14" fill="none" xmlns="http://www.w3.org/2000/svg">
<g clip-path="url(#clip0_240_674)">
<path d="M12.0481 6.14383C12.1488 6.0994 12.2342 6.02642 12.2939 5.9339C12.3535 5.84139 12.3847 5.73342 12.3835 5.62337C12.3824 5.51331 12.349 5.40601 12.2875 5.31475C12.2259 5.22349 12.139 5.15228 12.0374 5.10995L7.21621 2.91395C7.06965 2.8471 6.91043 2.8125 6.74934 2.8125C6.58824 2.8125 6.42903 2.8471 6.28246 2.91395L1.46184 5.1077C1.36169 5.15156 1.2765 5.22365 1.21668 5.31516C1.15686 5.40667 1.125 5.51362 1.125 5.62295C1.125 5.73228 1.15686 5.83923 1.21668 5.93074C1.2765 6.02225 1.36169 6.09434 1.46184 6.1382L6.28246 8.33645C6.42903 8.4033 6.58824 8.4379 6.74934 8.4379C6.91043 8.4379 7.06965 8.4033 7.21621 8.33645L12.0481 6.14383Z" stroke="#155DFC" stroke-width="1.125" stroke-linecap="round" stroke-linejoin="round"/>
<path d="M12.375 5.625V9" stroke="#155DFC" stroke-width="1.125" stroke-linecap="round" stroke-linejoin="round"/>
<path d="M3.375 7.03125V9C3.375 9.44755 3.73058 9.87678 4.36351 10.1932C4.99645 10.5097 5.85489 10.6875 6.75 10.6875C7.64511 10.6875 8.50355 10.5097 9.13649 10.1932C9.76942 9.87678 10.125 9.44755 10.125 9V7.03125" stroke="#155DFC" stroke-width="1.125" stroke-linecap="round" stroke-linejoin="round"/>
</g>
<defs>
<clipPath id="clip0_240_674">
<rect width="13.5" height="13.5" fill="white"/>
</clipPath>
</defs>
</svg>
