<svg width="20" height="20" viewBox="0 0 20 20" fill="none" xmlns="http://www.w3.org/2000/svg">
<path d="M16.6641 5.83398H9.16406" stroke="#2563EB" stroke-width="1.66667" stroke-linecap="round" stroke-linejoin="round"/>
<path d="M11.6641 14.166H4.16406" stroke="#2563EB" stroke-width="1.66667" stroke-linecap="round" stroke-linejoin="round"/>
<path d="M14.1641 16.666C15.5448 16.666 16.6641 15.5467 16.6641 14.166C16.6641 12.7853 15.5448 11.666 14.1641 11.666C12.7834 11.666 11.6641 12.7853 11.6641 14.166C11.6641 15.5467 12.7834 16.666 14.1641 16.666Z" stroke="#2563EB" stroke-width="1.66667" stroke-linecap="round" stroke-linejoin="round"/>
<path d="M5.83594 8.33398C7.21665 8.33398 8.33594 7.2147 8.33594 5.83398C8.33594 4.45327 7.21665 3.33398 5.83594 3.33398C4.45523 3.33398 3.33594 4.45327 3.33594 5.83398C3.33594 7.2147 4.45523 8.33398 5.83594 8.33398Z" stroke="#2563EB" stroke-width="1.66667" stroke-linecap="round" stroke-linejoin="round"/>
</svg>
