<svg width="20" height="20" viewBox="0 0 20 20" fill="none" xmlns="http://www.w3.org/2000/svg">
<g clip-path="url(#clip0_1455_1567)">
<path d="M18.3307 9.99935H16.2641C15.8999 9.99857 15.5454 10.1171 15.255 10.3368C14.9645 10.5565 14.7541 10.8653 14.6557 11.216L12.6974 18.1827C12.6848 18.226 12.6585 18.264 12.6224 18.291C12.5863 18.3181 12.5425 18.3327 12.4974 18.3327C12.4523 18.3327 12.4085 18.3181 12.3724 18.291C12.3363 18.264 12.31 18.226 12.2974 18.1827L7.6974 1.81602C7.68477 1.77274 7.65846 1.73473 7.6224 1.70768C7.58633 1.68064 7.54247 1.66602 7.4974 1.66602C7.45232 1.66602 7.40846 1.68064 7.3724 1.70768C7.33633 1.73473 7.31002 1.77274 7.2974 1.81602L5.33906 8.78268C5.24112 9.13198 5.03188 9.43978 4.74312 9.65936C4.45435 9.87894 4.10183 9.99831 3.73906 9.99935H1.66406" stroke="#2563EB" stroke-width="1.66667" stroke-linecap="round" stroke-linejoin="round"/>
</g>
<defs>
<clipPath id="clip0_1455_1567">
<rect width="20" height="20" fill="white"/>
</clipPath>
</defs>
</svg>
