<svg width="12" height="12" viewBox="0 0 12 12" fill="none" xmlns="http://www.w3.org/2000/svg">
<path d="M5 6.5C5.27614 6.85982 5.62468 7.15691 6.02238 7.37109C6.42008 7.58526 6.85787 7.71124 7.30777 7.74043C7.75766 7.76962 8.20855 7.70136 8.63038 7.54013C9.05221 7.3789 9.43505 7.1284 9.75 6.80499L11.25 5.30499C11.8132 4.72299 12.1243 3.94265 12.1169 3.13232C12.1095 2.32198 11.784 1.54753 11.2103 0.975775C10.6366 0.404022 9.86191 0.0790543 9.05157 0.0722005C8.24124 0.0653468 7.46109 0.377033 6.88 0.940993L5.945 1.871" stroke="#155DFC" stroke-width="1" stroke-linecap="round" stroke-linejoin="round"/>
<path d="M7.00033 5.5C6.72419 5.14018 6.37565 4.84309 5.97795 4.62892C5.58025 4.41474 5.14246 4.28876 4.69256 4.25957C4.24267 4.23038 3.79178 4.29864 3.36995 4.45987C2.94812 4.6211 2.56528 4.8716 2.25033 5.19501L0.750326 6.69501C0.187147 7.27701 -0.12398 8.05735 -0.116578 8.86769C-0.109176 9.67802 0.216348 10.4525 0.790101 11.0242C1.36385 11.596 2.1385 11.9209 2.94884 11.9278C3.75918 11.9347 4.53933 11.623 5.12033 11.059L6.05033 10.129" stroke="#155DFC" stroke-width="1" stroke-linecap="round" stroke-linejoin="round"/>
</svg>
