<svg width="18" height="18" viewBox="0 0 18 18" fill="none" xmlns="http://www.w3.org/2000/svg">
<path d="M8.40366 1.67206C8.43561 1.6075 8.48497 1.55315 8.54617 1.51516C8.60737 1.47716 8.67798 1.45703 8.75001 1.45703C8.82205 1.45703 8.89265 1.47716 8.95385 1.51516C9.01505 1.55315 9.06441 1.6075 9.09636 1.67206L10.7807 5.08383C10.8917 5.30839 11.0555 5.50267 11.2581 5.64999C11.4606 5.79732 11.6959 5.89329 11.9438 5.92966L15.7106 6.48091C15.782 6.49125 15.8491 6.52136 15.9042 6.56783C15.9594 6.6143 16.0004 6.67527 16.0227 6.74385C16.045 6.81244 16.0477 6.8859 16.0304 6.95592C16.0132 7.02594 15.9766 7.08973 15.925 7.14008L13.2008 9.79279C13.0212 9.96786 12.8868 10.184 12.8092 10.4225C12.7316 10.6611 12.7131 10.9149 12.7553 11.1622L13.3984 14.9101C13.411 14.9814 13.4033 15.0549 13.3762 15.122C13.3491 15.1892 13.3036 15.2474 13.245 15.29C13.1864 15.3325 13.117 15.3578 13.0447 15.3628C12.9724 15.3678 12.9002 15.3525 12.8363 15.3184L9.46897 13.548C9.2471 13.4315 9.00025 13.3706 8.74965 13.3706C8.49905 13.3706 8.2522 13.4315 8.03032 13.548L4.66376 15.3184C4.59984 15.3523 4.5277 15.3675 4.45555 15.3623C4.3834 15.3572 4.31414 15.3319 4.25564 15.2894C4.19715 15.2469 4.15176 15.1888 4.12466 15.1217C4.09755 15.0546 4.0898 14.9813 4.1023 14.9101L4.7447 11.1629C4.78713 10.9155 4.76875 10.6615 4.69113 10.4228C4.61351 10.1841 4.479 9.9679 4.29918 9.79279L1.57501 7.14081C1.52294 7.09052 1.48605 7.02662 1.46852 6.95638C1.451 6.88615 1.45356 6.8124 1.4759 6.74355C1.49824 6.6747 1.53948 6.6135 1.5949 6.56694C1.65032 6.52038 1.71771 6.49032 1.78939 6.48018L5.55553 5.92966C5.80363 5.89357 6.03925 5.79772 6.2421 5.65038C6.44495 5.50304 6.60896 5.30861 6.72001 5.08383L8.40366 1.67206Z" stroke="#99A1AF" stroke-width="1.45833" stroke-linecap="round" stroke-linejoin="round"/>
</svg>
