<svg width="18" height="18" viewBox="0 0 18 18" fill="none" xmlns="http://www.w3.org/2000/svg">
<path d="M8.74992 16.0404C12.777 16.0404 16.0416 12.7758 16.0416 8.7487C16.0416 4.72162 12.777 1.45703 8.74992 1.45703C4.72284 1.45703 1.45825 4.72162 1.45825 8.7487C1.45825 12.7758 4.72284 16.0404 8.74992 16.0404Z" stroke="#99A1AF" stroke-width="1.45833" stroke-linecap="round" stroke-linejoin="round"/>
<path d="M6.62817 6.56316C6.7996 6.07583 7.13797 5.6649 7.58335 5.40315C8.02873 5.1414 8.55237 5.04572 9.06153 5.13305C9.57069 5.22039 10.0325 5.4851 10.3652 5.88032C10.6979 6.27553 10.88 6.77573 10.8792 7.29233C10.8792 8.75066 8.69172 9.47983 8.69172 9.47983" stroke="#99A1AF" stroke-width="1.45833" stroke-linecap="round" stroke-linejoin="round"/>
<path d="M8.75 12.3945H8.75729" stroke="#99A1AF" stroke-width="1.45833" stroke-linecap="round" stroke-linejoin="round"/>
</svg>
