<svg width="18" height="18" viewBox="0 0 18 18" fill="none" xmlns="http://www.w3.org/2000/svg">
<path d="M7.48706 15.3125C7.61506 15.5342 7.79916 15.7183 8.02084 15.8462C8.24253 15.9742 8.494 16.0416 8.74998 16.0416C9.00596 16.0416 9.25743 15.9742 9.47911 15.8462C9.7008 15.7183 9.88489 15.5342 10.0129 15.3125" stroke="#6A7282" stroke-width="1.45833" stroke-linecap="round" stroke-linejoin="round"/>
<path d="M2.3785 11.1739C2.28324 11.2783 2.22038 11.4081 2.19756 11.5476C2.17474 11.6871 2.19294 11.8302 2.24995 11.9595C2.30696 12.0888 2.40032 12.1988 2.51868 12.276C2.63704 12.3533 2.77529 12.3944 2.91662 12.3945H14.5833C14.7246 12.3946 14.8629 12.3536 14.9813 12.2765C15.0998 12.1994 15.1932 12.0896 15.2504 11.9603C15.3076 11.8311 15.3259 11.688 15.3033 11.5485C15.2807 11.4091 15.218 11.2792 15.1229 11.1746C14.1531 10.1749 13.125 9.11255 13.125 5.83203C13.125 4.67171 12.664 3.55891 11.8435 2.73844C11.0231 1.91797 9.91028 1.45703 8.74996 1.45703C7.58963 1.45703 6.47684 1.91797 5.65636 2.73844C4.83589 3.55891 4.37496 4.67171 4.37496 5.83203C4.37496 9.11255 3.3461 10.1749 2.3785 11.1739Z" stroke="#6A7282" stroke-width="1.45833" stroke-linecap="round" stroke-linejoin="round"/>
</svg>
