<svg width="22" height="22" viewBox="0 0 22 22" fill="none" xmlns="http://www.w3.org/2000/svg">
<path d="M10.9999 9.16663C10.5137 9.16663 10.0473 9.35978 9.70353 9.7036C9.35971 10.0474 9.16656 10.5137 9.16656 11C9.16656 11.935 9.07489 13.3008 8.92822 14.6666" stroke="#90A1B9" stroke-width="1.83333" stroke-linecap="round" stroke-linejoin="round"/>
<path d="M12.8334 12.0266C12.8334 14.2083 12.8334 17.8749 11.9167 20.1666" stroke="#90A1B9" stroke-width="1.83333" stroke-linecap="round" stroke-linejoin="round"/>
<path d="M15.8491 19.2683C15.9591 18.7183 16.2433 17.16 16.3075 16.5" stroke="#90A1B9" stroke-width="1.83333" stroke-linecap="round" stroke-linejoin="round"/>
<path d="M1.83325 11C1.83325 9.07612 2.43859 7.20096 3.56353 5.6402C4.68847 4.07943 6.27597 2.91218 8.10116 2.30378C9.92636 1.69538 11.8967 1.67668 13.7331 2.25033C15.5695 2.82398 17.1789 3.9609 18.3333 5.50004" stroke="#90A1B9" stroke-width="1.83333" stroke-linecap="round" stroke-linejoin="round"/>
<path d="M1.83325 14.6666H1.84325" stroke="#90A1B9" stroke-width="1.83333" stroke-linecap="round" stroke-linejoin="round"/>
<path d="M19.9834 14.6666C20.1667 12.8333 20.1035 9.75879 19.9834 9.16663" stroke="#90A1B9" stroke-width="1.83333" stroke-linecap="round" stroke-linejoin="round"/>
<path d="M4.58325 17.875C5.04159 16.5 5.49992 13.75 5.49992 11C5.49899 10.3756 5.60439 9.75562 5.81159 9.16663" stroke="#90A1B9" stroke-width="1.83333" stroke-linecap="round" stroke-linejoin="round"/>
<path d="M7.9292 20.1667C8.1217 19.5617 8.3417 18.9567 8.4517 18.3334" stroke="#90A1B9" stroke-width="1.83333" stroke-linecap="round" stroke-linejoin="round"/>
<path d="M8.25 6.23332C9.08636 5.75045 10.0351 5.49631 11.0009 5.49646C11.9666 5.49661 12.9153 5.75106 13.7515 6.2342C14.5877 6.71735 15.282 7.41215 15.7645 8.24875C16.2469 9.08535 16.5006 10.0342 16.5 11V12.8333" stroke="#90A1B9" stroke-width="1.83333" stroke-linecap="round" stroke-linejoin="round"/>
</svg>
