<svg width="18" height="18" viewBox="0 0 18 18" fill="none" xmlns="http://www.w3.org/2000/svg">
<path d="M14.25 8.5H3.75C2.92157 8.5 2.25 9.17157 2.25 10V15.25C2.25 16.0784 2.92157 16.75 3.75 16.75H14.25C15.0784 16.75 15.75 16.0784 15.75 15.25V10C15.75 9.17157 15.0784 8.5 14.25 8.5Z" stroke="#90A1B9" stroke-width="1.5" stroke-linecap="round" stroke-linejoin="round"/>
<path d="M5.25 8.5V5.5C5.25 4.50544 5.64509 3.55161 6.34835 2.84835C7.05161 2.14509 8.00544 1.75 9 1.75C9.99456 1.75 10.9484 2.14509 11.6517 2.84835C12.3549 3.55161 12.75 4.50544 12.75 5.5V8.5" stroke="#90A1B9" stroke-width="1.5" stroke-linecap="round" stroke-linejoin="round"/>
</svg>
