<svg width="22" height="22" viewBox="0 0 22 22" fill="none" xmlns="http://www.w3.org/2000/svg">
<path d="M18.0001 11.7C18.0001 16.2 14.8501 18.45 11.1061 19.755C10.91 19.8214 10.6971 19.8182 10.5031 19.746C6.7501 18.45 3.6001 16.2 3.6001 11.7V5.39997C3.6001 5.16127 3.69492 4.93235 3.8637 4.76357C4.03248 4.59479 4.2614 4.49997 4.5001 4.49997C6.3001 4.49997 8.5501 3.41997 10.1161 2.05197C10.3068 1.88906 10.5493 1.79956 10.8001 1.79956C11.0509 1.79956 11.2934 1.88906 11.4841 2.05197C13.0591 3.42897 15.3001 4.49997 17.1001 4.49997C17.3388 4.49997 17.5677 4.59479 17.7365 4.76357C17.9053 4.93235 18.0001 5.16127 18.0001 5.39997V11.7Z" stroke="#155DFC" stroke-width="1.8" stroke-linecap="round" stroke-linejoin="round"/>
<path d="M8.1001 10.8L9.9001 12.6L13.5001 9" stroke="#155DFC" stroke-width="1.8" stroke-linecap="round" stroke-linejoin="round"/>
</svg>
