<svg width="20" height="20" viewBox="0 0 20 20" fill="none" xmlns="http://www.w3.org/2000/svg">
<path d="M9.60306 1.90981C9.63958 1.83602 9.696 1.77392 9.76594 1.73049C9.83588 1.68707 9.91657 1.66406 9.9989 1.66406C10.0812 1.66406 10.1619 1.68707 10.2319 1.73049C10.3018 1.77392 10.3582 1.83602 10.3947 1.90981L12.3197 5.80897C12.4465 6.06561 12.6337 6.28765 12.8653 6.45602C13.0968 6.62439 13.3657 6.73407 13.6489 6.77564L17.9539 7.40564C18.0355 7.41746 18.1121 7.45187 18.1751 7.50497C18.2382 7.55808 18.2851 7.62776 18.3106 7.70615C18.3361 7.78453 18.3391 7.86848 18.3194 7.9485C18.2996 8.02853 18.2579 8.10143 18.1989 8.15897L15.0856 11.1906C14.8802 11.3907 14.7266 11.6377 14.6379 11.9103C14.5492 12.183 14.5281 12.473 14.5764 12.7556L15.3114 17.039C15.3258 17.1205 15.317 17.2044 15.286 17.2812C15.255 17.358 15.203 17.4245 15.136 17.4731C15.069 17.5218 14.9897 17.5506 14.9071 17.5564C14.8245 17.5621 14.742 17.5445 14.6689 17.5056L10.8206 15.4823C10.567 15.3492 10.2849 15.2796 9.99848 15.2796C9.71208 15.2796 9.42996 15.3492 9.1764 15.4823L5.3289 17.5056C5.25584 17.5443 5.17339 17.5617 5.09094 17.5559C5.00848 17.55 4.92933 17.5211 4.86247 17.4725C4.79562 17.4239 4.74376 17.3575 4.71278 17.2808C4.6818 17.2042 4.67294 17.1204 4.68723 17.039L5.4214 12.7565C5.46989 12.4738 5.44888 12.1835 5.36018 11.9107C5.27147 11.6379 5.11774 11.3908 4.91223 11.1906L1.7989 8.15981C1.73939 8.10233 1.69722 8.0293 1.6772 7.94904C1.65717 7.86877 1.66009 7.78449 1.68563 7.7058C1.71116 7.62711 1.75828 7.55717 1.82163 7.50396C1.88497 7.45074 1.96198 7.41639 2.0439 7.40481L6.34806 6.77564C6.63161 6.73439 6.90089 6.62485 7.13272 6.45646C7.36455 6.28807 7.55198 6.06587 7.6789 5.80897L9.60306 1.90981Z" stroke="#155DFC" stroke-width="1.66667" stroke-linecap="round" stroke-linejoin="round"/>
</svg>
