<svg width="16" height="16" viewBox="0 0 16 16" fill="none" xmlns="http://www.w3.org/2000/svg">
<path d="M10.0013 1.33594H4.0013C3.64768 1.33594 3.30854 1.47641 3.05849 1.72646C2.80844 1.97651 2.66797 2.31565 2.66797 2.66927V13.3359C2.66797 13.6896 2.80844 14.0287 3.05849 14.2787C3.30854 14.5288 3.64768 14.6693 4.0013 14.6693H12.0013C12.3549 14.6693 12.6941 14.5288 12.9441 14.2787C13.1942 14.0287 13.3346 13.6896 13.3346 13.3359V4.66927L10.0013 1.33594Z" stroke="#4A5565" stroke-width="1.33333" stroke-linecap="round" stroke-linejoin="round"/>
<path d="M9.33203 1.33594V4.0026C9.33203 4.35623 9.47251 4.69536 9.72256 4.94541C9.9726 5.19546 10.3117 5.33594 10.6654 5.33594H13.332" stroke="#4A5565" stroke-width="1.33333" stroke-linecap="round" stroke-linejoin="round"/>
<path d="M6 9.9974L7.33333 11.3307L10 8.66406" stroke="#4A5565" stroke-width="1.33333" stroke-linecap="round" stroke-linejoin="round"/>
</svg>
