<svg width="16" height="16" viewBox="0 0 16 16" fill="none" xmlns="http://www.w3.org/2000/svg">
<path d="M2.66536 13.3333H13.332C13.6857 13.3333 14.0248 13.1929 14.2748 12.9428C14.5249 12.6928 14.6654 12.3536 14.6654 12V5.33333C14.6654 4.97971 14.5249 4.64057 14.2748 4.39052C14.0248 4.14048 13.6857 4 13.332 4H8.04536C7.82576 3.99886 7.60983 3.9435 7.41676 3.83883C7.2237 3.73415 7.05948 3.58341 6.9387 3.4L6.39203 2.6C6.27125 2.41659 6.10703 2.26585 5.91397 2.16117C5.7209 2.0565 5.50497 2.00114 5.28536 2H2.66536C2.31174 2 1.9726 2.14048 1.72256 2.39052C1.47251 2.64057 1.33203 2.97971 1.33203 3.33333V12C1.33203 12.7333 1.93203 13.3333 2.66536 13.3333Z" stroke="#4A5565" stroke-width="1.33333" stroke-linecap="round" stroke-linejoin="round"/>
<path d="M5.33203 6.66406V9.33073" stroke="#4A5565" stroke-width="1.33333" stroke-linecap="round" stroke-linejoin="round"/>
<path d="M8 6.66406V7.9974" stroke="#4A5565" stroke-width="1.33333" stroke-linecap="round" stroke-linejoin="round"/>
<path d="M10.668 6.66406V10.6641" stroke="#4A5565" stroke-width="1.33333" stroke-linecap="round" stroke-linejoin="round"/>
</svg>
