<svg preserveAspectRatio="none" width="100%" height="100%" overflow="visible" style="display: block;" viewBox="0 0 20 20" fill="none" xmlns="http://www.w3.org/2000/svg">
<g id="SVG">
<path id="Vector" d="M18.1051 15L11.4384 3.33332C11.2931 3.07682 11.0823 2.86347 10.8275 2.71504C10.5728 2.56661 10.2833 2.4884 9.98843 2.4884C9.69361 2.4884 9.40406 2.56661 9.14933 2.71504C8.8946 2.86347 8.6838 3.07682 8.53843 3.33332L1.87177 15C1.72484 15.2544 1.64779 15.5432 1.64844 15.8371C1.64909 16.1309 1.72742 16.4194 1.87547 16.6732C2.02353 16.927 2.23606 17.1371 2.49151 17.2823C2.74697 17.4275 3.03627 17.5026 3.3301 17.5H16.6634C16.9558 17.4997 17.243 17.4225 17.4962 17.2761C17.7493 17.1297 17.9594 16.9192 18.1055 16.6659C18.2516 16.4126 18.3285 16.1253 18.3284 15.8329C18.3283 15.5405 18.2513 15.2532 18.1051 15Z" stroke="#F54900" stroke-width="1.66667" stroke-linecap="round" stroke-linejoin="round"/>
<path id="Vector_2" d="M10 7.5V10.8333" stroke="#F54900" stroke-width="1.66667" stroke-linecap="round" stroke-linejoin="round"/>
<path id="Vector_3" d="M10 14.1667H10.0083" stroke="#F54900" stroke-width="1.66667" stroke-linecap="round" stroke-linejoin="round"/>
</g>
</svg>
