<svg width="21" height="21" viewBox="0 0 21 21" fill="none" xmlns="http://www.w3.org/2000/svg">
<g clip-path="url(#clip0_2663_34)">
<path d="M10.125 4.2184C10.126 3.88092 10.0595 3.54666 9.92942 3.23526C9.79934 2.92386 9.60831 2.64162 9.36755 2.40513C9.12679 2.16864 8.84118 1.98269 8.5275 1.8582C8.21383 1.73371 7.87842 1.6732 7.54102 1.68024C7.20362 1.68727 6.87103 1.7617 6.56281 1.89915C6.2546 2.0366 5.97698 2.2343 5.74629 2.48061C5.51559 2.72693 5.33648 3.01688 5.21949 3.33343C5.1025 3.64998 5.04998 3.98673 5.06504 4.32386C4.56909 4.45139 4.10865 4.69009 3.71861 5.02191C3.32857 5.35372 3.01915 5.76995 2.81378 6.23905C2.60842 6.70815 2.51249 7.21784 2.53327 7.7295C2.55406 8.24117 2.691 8.7414 2.93373 9.1923C2.50694 9.53903 2.17134 9.98478 1.95611 10.4908C1.74088 10.9968 1.65254 11.5477 1.69879 12.0956C1.74503 12.6436 1.92445 13.1719 2.22144 13.6347C2.51843 14.0974 2.92399 14.4806 3.40285 14.7509C3.34372 15.2084 3.37901 15.6732 3.50654 16.1166C3.63407 16.5599 3.85113 16.9724 4.14433 17.3285C4.43752 17.6847 4.80062 17.977 5.21119 18.1873C5.62177 18.3977 6.07111 18.5216 6.53146 18.5515C6.99181 18.5813 7.45339 18.5165 7.88771 18.361C8.32203 18.2055 8.71985 17.9626 9.05662 17.6473C9.39339 17.332 9.66194 16.9511 9.8457 16.5279C10.0295 16.1048 10.1245 15.6485 10.125 15.1871V4.2184Z" stroke="white" stroke-width="1.6875" stroke-linecap="round" stroke-linejoin="round"/>
<path d="M7.59375 10.9688C8.30212 10.7196 8.9207 10.2659 9.37126 9.66516C9.82181 9.06442 10.0841 8.34356 10.125 7.59375" stroke="white" stroke-width="1.6875" stroke-linecap="round" stroke-linejoin="round"/>
<path d="M5.06503 4.32031C5.08172 4.72846 5.19694 5.12651 5.40085 5.48047" stroke="white" stroke-width="1.6875" stroke-linecap="round" stroke-linejoin="round"/>
<path d="M2.93372 9.1935C3.08807 9.06779 3.25325 8.95597 3.42731 8.85938" stroke="white" stroke-width="1.6875" stroke-linecap="round" stroke-linejoin="round"/>
<path d="M5.06249 15.1854C4.481 15.1856 3.90931 15.0357 3.40283 14.75" stroke="white" stroke-width="1.6875" stroke-linecap="round" stroke-linejoin="round"/>
<path d="M10.125 10.9688H13.5" stroke="white" stroke-width="1.6875" stroke-linecap="round" stroke-linejoin="round"/>
<path d="M10.125 15.1875H15.1875C15.6351 15.1875 16.0643 15.3653 16.3807 15.6818C16.6972 15.9982 16.875 16.4274 16.875 16.875V17.7188" stroke="white" stroke-width="1.6875" stroke-linecap="round" stroke-linejoin="round"/>
<path d="M10.125 6.75H16.875" stroke="white" stroke-width="1.6875" stroke-linecap="round" stroke-linejoin="round"/>
<path d="M13.5 6.75V4.21875C13.5 3.7712 13.6778 3.34197 13.9943 3.02551C14.3107 2.70904 14.7399 2.53125 15.1875 2.53125" stroke="white" stroke-width="1.6875" stroke-linecap="round" stroke-linejoin="round"/>
<path d="M13.5 11.3906C13.733 11.3906 13.9219 11.2017 13.9219 10.9688C13.9219 10.7358 13.733 10.5469 13.5 10.5469C13.267 10.5469 13.0781 10.7358 13.0781 10.9688C13.0781 11.2017 13.267 11.3906 13.5 11.3906Z" stroke="white" stroke-width="1.6875" stroke-linecap="round" stroke-linejoin="round"/>
<path d="M15.1875 2.95312C15.4205 2.95312 15.6094 2.76425 15.6094 2.53125C15.6094 2.29825 15.4205 2.10938 15.1875 2.10938C14.9545 2.10938 14.7656 2.29825 14.7656 2.53125C14.7656 2.76425 14.9545 2.95312 15.1875 2.95312Z" stroke="white" stroke-width="1.6875" stroke-linecap="round" stroke-linejoin="round"/>
<path d="M16.875 18.1406C17.108 18.1406 17.2969 17.9517 17.2969 17.7188C17.2969 17.4858 17.108 17.2969 16.875 17.2969C16.642 17.2969 16.4531 17.4858 16.4531 17.7188C16.4531 17.9517 16.642 18.1406 16.875 18.1406Z" stroke="white" stroke-width="1.6875" stroke-linecap="round" stroke-linejoin="round"/>
<path d="M16.875 7.17188C17.108 7.17188 17.2969 6.983 17.2969 6.75C17.2969 6.517 17.108 6.32812 16.875 6.32812C16.642 6.32812 16.4531 6.517 16.4531 6.75C16.4531 6.983 16.642 7.17188 16.875 7.17188Z" stroke="white" stroke-width="1.6875" stroke-linecap="round" stroke-linejoin="round"/>
</g>
<defs>
<clipPath id="clip0_2663_34">
<rect width="20.25" height="20.25" fill="white"/>
</clipPath>
</defs>
</svg>
