<svg width="34" height="34" viewBox="0 0 34 34" fill="none" xmlns="http://www.w3.org/2000/svg">
<path d="M4.17656 18.1688C3.76138 18.4182 3.41765 18.7706 3.17867 19.1919C2.93969 19.6132 2.81356 20.0891 2.8125 20.5734V25.1297C2.81356 25.614 2.93969 26.0899 3.17867 26.5112C3.41765 26.9325 3.76138 27.2849 4.17656 27.5344L8.39531 30.0656C8.83275 30.3284 9.33344 30.4673 9.84375 30.4673C10.3541 30.4673 10.8548 30.3284 11.2922 30.0656L16.875 26.7188V18.9844L9.84375 14.7656L4.17656 18.1688Z" stroke="white" stroke-width="2.8125" stroke-linecap="round" stroke-linejoin="round"/>
<path d="M9.84376 23.2031L3.17813 19.1953" stroke="white" stroke-width="2.8125" stroke-linecap="round" stroke-linejoin="round"/>
<path d="M9.84375 23.2031L16.875 18.9844" stroke="white" stroke-width="2.8125" stroke-linecap="round" stroke-linejoin="round"/>
<path d="M9.84375 23.2031V30.4734" stroke="white" stroke-width="2.8125" stroke-linecap="round" stroke-linejoin="round"/>
<path d="M16.875 18.9844V26.7188L22.4578 30.0656C22.8952 30.3284 23.3959 30.4673 23.9062 30.4673C24.4166 30.4673 24.9173 30.3284 25.3547 30.0656L29.5734 27.5344C29.9886 27.2849 30.3324 26.9325 30.5713 26.5112C30.8103 26.0899 30.9364 25.614 30.9375 25.1297V20.5734C30.9364 20.0891 30.8103 19.6132 30.5713 19.1919C30.3324 18.7706 29.9886 18.4182 29.5734 18.1688L23.9062 14.7656L16.875 18.9844Z" stroke="white" stroke-width="2.8125" stroke-linecap="round" stroke-linejoin="round"/>
<path d="M23.9062 23.2031L16.875 18.9844" stroke="white" stroke-width="2.8125" stroke-linecap="round" stroke-linejoin="round"/>
<path d="M23.9062 23.2031L30.5719 19.1953" stroke="white" stroke-width="2.8125" stroke-linecap="round" stroke-linejoin="round"/>
<path d="M23.9062 23.2031V30.4734" stroke="white" stroke-width="2.8125" stroke-linecap="round" stroke-linejoin="round"/>
<path d="M11.2078 6.21415C10.7926 6.46359 10.4489 6.81603 10.2099 7.23732C9.97094 7.65862 9.84481 8.13449 9.84375 8.61884V14.7642L16.875 18.9829L23.9062 14.7642V8.61884C23.9052 8.13449 23.7791 7.65862 23.5401 7.23732C23.3011 6.81603 22.9574 6.46359 22.5422 6.21415L18.3234 3.6829C17.886 3.42009 17.3853 3.28125 16.875 3.28125C16.3647 3.28125 15.864 3.42009 15.4266 3.6829L11.2078 6.21415Z" stroke="white" stroke-width="2.8125" stroke-linecap="round" stroke-linejoin="round"/>
<path d="M16.875 11.25L10.2094 7.24219" stroke="white" stroke-width="2.8125" stroke-linecap="round" stroke-linejoin="round"/>
<path d="M16.875 11.25L23.5406 7.24219" stroke="white" stroke-width="2.8125" stroke-linecap="round" stroke-linejoin="round"/>
<path d="M16.875 18.9844V11.25" stroke="white" stroke-width="2.8125" stroke-linecap="round" stroke-linejoin="round"/>
</svg>
