<svg preserveAspectRatio="none" width="100%" height="100%" overflow="visible" style="display: block;" viewBox="0 0 16 16" fill="none" xmlns="http://www.w3.org/2000/svg">
<g id="SVG" clip-path="url(#clip0_0_10)">
<path id="Vector" d="M14.1186 4.54138C14.471 4.189 14.6691 3.71103 14.6691 3.21262C14.6692 2.71421 14.4713 2.23619 14.1189 1.88372C13.7665 1.53124 13.2885 1.33319 12.7901 1.33313C12.2917 1.33307 11.8137 1.531 11.4612 1.88338L2.56389 10.7827C2.40911 10.9371 2.29464 11.1271 2.23056 11.3361L1.34989 14.2374C1.33266 14.295 1.33136 14.3563 1.34613 14.4146C1.36089 14.473 1.39117 14.5262 1.43376 14.5687C1.47634 14.6112 1.52964 14.6414 1.588 14.6561C1.64636 14.6708 1.7076 14.6694 1.76523 14.6521L4.66723 13.7721C4.87601 13.7086 5.06601 13.5948 5.22056 13.4407L14.1186 4.54138Z" stroke="#4A5565" stroke-width="1.33333" stroke-linecap="round" stroke-linejoin="round"/>
</g>
<defs>
<clipPath id="clip0_0_10">
<rect width="16" height="16" fill="white"/>
</clipPath>
</defs>
</svg>
