<svg preserveAspectRatio="none" width="100%" height="100%" overflow="visible" style="display: block;" viewBox="0 0 14 14" fill="none" xmlns="http://www.w3.org/2000/svg">
<g id="SVG">
<path id="Vector" d="M0 7H4.66667M4.66667 7C4.66667 6.38116 4.9125 5.78767 5.35008 5.35008C5.78767 4.9125 6.38116 4.66667 7 4.66667C7.61884 4.66667 8.21233 4.9125 8.64992 5.35008C9.0875 5.78767 9.33333 6.38116 9.33333 7M4.66667 7C4.66667 7.61884 4.9125 8.21233 5.35008 8.64992C5.78767 9.0875 6.38116 9.33333 7 9.33333C7.61884 9.33333 8.21233 9.0875 8.64992 8.64992C9.0875 8.21233 9.33333 7.61884 9.33333 7M9.33333 7H14" stroke="currentColor" stroke-width="1.75"/>
</g>
</svg>
