<svg width="16" height="16" viewBox="0 0 16 16" fill="none" xmlns="http://www.w3.org/2000/svg">
<g id="SVG">
<path id="Vector" d="M9.9974 1.33325H3.9974C3.64377 1.33325 3.30464 1.47373 3.05459 1.72378C2.80454 1.97382 2.66406 2.31296 2.66406 2.66659V13.3333C2.66406 13.6869 2.80454 14.026 3.05459 14.2761C3.30464 14.5261 3.64377 14.6666 3.9974 14.6666H11.9974C12.351 14.6666 12.6902 14.5261 12.9402 14.2761C13.1903 14.026 13.3307 13.6869 13.3307 13.3333V4.66659L9.9974 1.33325Z" stroke="#155DFC" stroke-width="1.33333" stroke-linecap="round" stroke-linejoin="round"/>
<path id="Vector_2" d="M9.33594 1.33325V3.99992C9.33594 4.35354 9.47641 4.69268 9.72646 4.94273C9.97651 5.19278 10.3156 5.33325 10.6693 5.33325H13.3359" stroke="#155DFC" stroke-width="1.33333" stroke-linecap="round" stroke-linejoin="round"/>
<path id="Vector_3" d="M6 10L7.33333 11.3333L10 8.66667" stroke="#155DFC" stroke-width="1.33333" stroke-linecap="round" stroke-linejoin="round"/>
</g>
</svg>
