<svg width="16" height="16" viewBox="0 0 16 16" fill="none" xmlns="http://www.w3.org/2000/svg">
<g id="SVG">
<path id="Vector" d="M2.66927 13.3333H13.3359C13.6896 13.3333 14.0287 13.1929 14.2787 12.9428C14.5288 12.6928 14.6693 12.3536 14.6693 12V5.33333C14.6693 4.97971 14.5288 4.64057 14.2787 4.39052C14.0287 4.14048 13.6896 4 13.3359 4H8.04927C7.82966 3.99886 7.61373 3.9435 7.42067 3.83883C7.22761 3.73415 7.06339 3.58341 6.9426 3.4L6.39594 2.6C6.27515 2.41659 6.11094 2.26585 5.91787 2.16117C5.72481 2.0565 5.50888 2.00114 5.28927 2H2.66927C2.31565 2 1.97651 2.14048 1.72646 2.39052C1.47641 2.64057 1.33594 2.97971 1.33594 3.33333V12C1.33594 12.7333 1.93594 13.3333 2.66927 13.3333Z" stroke="#155DFC" stroke-width="1.33333" stroke-linecap="round" stroke-linejoin="round"/>
<path id="Vector_2" d="M5.33594 6.66675V9.33341" stroke="#155DFC" stroke-width="1.33333" stroke-linecap="round" stroke-linejoin="round"/>
<path id="Vector_3" d="M8 6.66667V8" stroke="#155DFC" stroke-width="1.33333" stroke-linecap="round" stroke-linejoin="round"/>
<path id="Vector_4" d="M10.6641 6.66675V10.6667" stroke="#155DFC" stroke-width="1.33333" stroke-linecap="round" stroke-linejoin="round"/>
</g>
</svg>
