<svg width="16" height="16" viewBox="0 0 16 16" fill="none" xmlns="http://www.w3.org/2000/svg">
<g id="SVG">
<path id="Vector" d="M13.3307 8.66664C13.3307 12 10.9974 13.6666 8.22406 14.6333C8.07884 14.6825 7.92109 14.6802 7.7774 14.6266C4.9974 13.6666 2.66406 12 2.66406 8.66664V3.99997C2.66406 3.82316 2.7343 3.65359 2.85932 3.52857C2.98435 3.40355 3.15392 3.33331 3.33073 3.33331C4.66406 3.33331 6.33073 2.53331 7.49073 1.51997C7.63197 1.39931 7.81163 1.33301 7.9974 1.33301C8.18316 1.33301 8.36283 1.39931 8.50406 1.51997C9.67073 2.53997 11.3307 3.33331 12.6641 3.33331C12.8409 3.33331 13.0104 3.40355 13.1355 3.52857C13.2605 3.65359 13.3307 3.82316 13.3307 3.99997V8.66664Z" stroke="#155DFC" stroke-width="1.33333" stroke-linecap="round" stroke-linejoin="round"/>
<path id="Vector_2" d="M6 8L7.33333 9.33333L10 6.66667" stroke="#155DFC" stroke-width="1.33333" stroke-linecap="round" stroke-linejoin="round"/>
</g>
</svg>
