<svg width="12" height="12" viewBox="0 0 12 12" fill="none" xmlns="http://www.w3.org/2000/svg">
<g id="SVG">
<path id="Vector" d="M10.8662 8.99999L6.86619 1.99999C6.77897 1.84609 6.65249 1.71808 6.49965 1.62902C6.34681 1.53997 6.17308 1.49304 5.99619 1.49304C5.81929 1.49304 5.64556 1.53997 5.49272 1.62902C5.33988 1.71808 5.2134 1.84609 5.12619 1.99999L1.12619 8.99999C1.03803 9.15267 0.9918 9.32594 0.99219 9.50224C0.99258 9.67855 1.03957 9.85162 1.12841 10.0039C1.21724 10.1562 1.34476 10.2823 1.49803 10.3694C1.65131 10.4565 1.82489 10.5016 2.00119 10.5H10.0012C10.1766 10.4998 10.3489 10.4535 10.5008 10.3656C10.6527 10.2778 10.7788 10.1515 10.8664 9.99955C10.9541 9.84756 11.0002 9.67518 11.0002 9.49973C11.0001 9.32428 10.9539 9.15193 10.8662 8.99999Z" stroke="#9F0712" stroke-linecap="round" stroke-linejoin="round"/>
<path id="Vector_2" d="M6 4.5V6.5" stroke="#9F0712" stroke-linecap="round" stroke-linejoin="round"/>
<path id="Vector_3" d="M6 8.5H6.005" stroke="#9F0712" stroke-linecap="round" stroke-linejoin="round"/>
</g>
</svg>
