<svg width="20" height="20" viewBox="0 0 20 20" fill="none" xmlns="http://www.w3.org/2000/svg">
<g id="SVG">
<path id="Vector" d="M10 6.66667C14.1421 6.66667 17.5 5.54738 17.5 4.16667C17.5 2.78595 14.1421 1.66667 10 1.66667C5.85786 1.66667 2.5 2.78595 2.5 4.16667C2.5 5.54738 5.85786 6.66667 10 6.66667Z" stroke="#155DFC" stroke-width="1.66667" stroke-linecap="round" stroke-linejoin="round"/>
<path id="Vector_2" d="M2.5 4.16667V15.8333C2.5 16.4964 3.29018 17.1323 4.6967 17.6011C6.10322 18.0699 8.01088 18.3333 10 18.3333C11.9891 18.3333 13.8968 18.0699 15.3033 17.6011C16.7098 17.1323 17.5 16.4964 17.5 15.8333V4.16667" stroke="#155DFC" stroke-width="1.66667" stroke-linecap="round" stroke-linejoin="round"/>
<path id="Vector_3" d="M2.5 10C2.5 10.663 3.29018 11.2989 4.6967 11.7678C6.10322 12.2366 8.01088 12.5 10 12.5C11.9891 12.5 13.8968 12.2366 15.3033 11.7678C16.7098 11.2989 17.5 10.663 17.5 10" stroke="#155DFC" stroke-width="1.66667" stroke-linecap="round" stroke-linejoin="round"/>
</g>
</svg>
