<svg width="20" height="20" viewBox="0 0 20 20" fill="none" xmlns="http://www.w3.org/2000/svg">
<g id="SVG">
<path id="Vector" d="M3.33073 16.6667H16.6641C17.1061 16.6667 17.53 16.4911 17.8426 16.1785C18.1551 15.866 18.3307 15.442 18.3307 15V6.66667C18.3307 6.22464 18.1551 5.80072 17.8426 5.48816C17.53 5.17559 17.1061 5 16.6641 5H10.0557C9.78122 4.99858 9.51131 4.92937 9.26998 4.79853C9.02865 4.66769 8.82338 4.47927 8.6724 4.25L7.98906 3.25C7.83808 3.02073 7.63281 2.83231 7.39148 2.70147C7.15015 2.57063 6.88024 2.50142 6.60573 2.5H3.33073C2.8887 2.5 2.46478 2.67559 2.15222 2.98816C1.83966 3.30072 1.66406 3.72464 1.66406 4.16667V15C1.66406 15.9167 2.41406 16.6667 3.33073 16.6667Z" stroke="#155DFC" stroke-width="1.66667" stroke-linecap="round" stroke-linejoin="round"/>
<path id="Vector_2" d="M6.66406 8.33337V11.6667" stroke="#155DFC" stroke-width="1.66667" stroke-linecap="round" stroke-linejoin="round"/>
<path id="Vector_3" d="M10 8.33333V10" stroke="#155DFC" stroke-width="1.66667" stroke-linecap="round" stroke-linejoin="round"/>
<path id="Vector_4" d="M13.3359 8.33337V13.3334" stroke="#155DFC" stroke-width="1.66667" stroke-linecap="round" stroke-linejoin="round"/>
</g>
</svg>
