<svg width="20" height="20" viewBox="0 0 20 20" fill="none" xmlns="http://www.w3.org/2000/svg">
<g id="SVG">
<path id="Vector" d="M12.5026 1.66663H5.0026C4.56058 1.66663 4.13665 1.84222 3.82409 2.15478C3.51153 2.46734 3.33594 2.89127 3.33594 3.33329V16.6666C3.33594 17.1087 3.51153 17.5326 3.82409 17.8451C4.13665 18.1577 4.56058 18.3333 5.0026 18.3333H15.0026C15.4446 18.3333 15.8686 18.1577 16.1811 17.8451C16.4937 17.5326 16.6693 17.1087 16.6693 16.6666V5.83329L12.5026 1.66663Z" stroke="#155DFC" stroke-width="1.66667" stroke-linecap="round" stroke-linejoin="round"/>
<path id="Vector_2" d="M11.6641 1.66663V4.99996C11.6641 5.44199 11.8397 5.86591 12.1522 6.17847C12.4648 6.49103 12.8887 6.66663 13.3307 6.66663H16.6641" stroke="#155DFC" stroke-width="1.66667" stroke-linecap="round" stroke-linejoin="round"/>
<path id="Vector_3" d="M7.5 12.5L9.16667 14.1667L12.5 10.8333" stroke="#155DFC" stroke-width="1.66667" stroke-linecap="round" stroke-linejoin="round"/>
</g>
</svg>
