<svg width="20" height="20" viewBox="0 0 20 20" fill="none" xmlns="http://www.w3.org/2000/svg">
<g id="SVG" clip-path="url(#clip0_0_6)">
<path id="Vector" d="M9.9974 18.3334C14.5998 18.3334 18.3307 14.6025 18.3307 10.0001C18.3307 5.39771 14.5998 1.66675 9.9974 1.66675C5.39502 1.66675 1.66406 5.39771 1.66406 10.0001C1.66406 14.6025 5.39502 18.3334 9.9974 18.3334Z" stroke="#155DFC" stroke-width="1.66667" stroke-linecap="round" stroke-linejoin="round"/>
<path id="Vector_2" d="M10 15C12.7614 15 15 12.7614 15 10C15 7.23858 12.7614 5 10 5C7.23858 5 5 7.23858 5 10C5 12.7614 7.23858 15 10 15Z" stroke="#155DFC" stroke-width="1.66667" stroke-linecap="round" stroke-linejoin="round"/>
<path id="Vector_3" d="M10.0026 11.6666C10.9231 11.6666 11.6693 10.9204 11.6693 9.99992C11.6693 9.07944 10.9231 8.33325 10.0026 8.33325C9.08213 8.33325 8.33594 9.07944 8.33594 9.99992C8.33594 10.9204 9.08213 11.6666 10.0026 11.6666Z" stroke="#155DFC" stroke-width="1.66667" stroke-linecap="round" stroke-linejoin="round"/>
</g>
<defs>
<clipPath id="clip0_0_6">
<rect width="20" height="20" fill="white"/>
</clipPath>
</defs>
</svg>
