<svg width="20" height="20" viewBox="0 0 20 20" fill="none" xmlns="http://www.w3.org/2000/svg">
<g id="SVG">
<path id="Vector" d="M18.1051 15.0001L11.4384 3.33344C11.2931 3.07694 11.0823 2.8636 10.8275 2.71516C10.5728 2.56673 10.2833 2.48853 9.98843 2.48853C9.69361 2.48853 9.40406 2.56673 9.14933 2.71516C8.8946 2.8636 8.6838 3.07694 8.53843 3.33344L1.87177 15.0001C1.72484 15.2546 1.64779 15.5434 1.64844 15.8372C1.64909 16.131 1.72742 16.4195 1.87547 16.6733C2.02353 16.9271 2.23606 17.1373 2.49151 17.2825C2.74697 17.4277 3.03627 17.5027 3.3301 17.5001H16.6634C16.9558 17.4998 17.243 17.4226 17.4962 17.2762C17.7493 17.1298 17.9594 16.9193 18.1055 16.666C18.2516 16.4127 18.3285 16.1254 18.3284 15.833C18.3283 15.5406 18.2513 15.2533 18.1051 15.0001Z" stroke="#D08700" stroke-width="1.66667" stroke-linecap="round" stroke-linejoin="round"/>
<path id="Vector_2" d="M10 7.5V10.8333" stroke="#D08700" stroke-width="1.66667" stroke-linecap="round" stroke-linejoin="round"/>
<path id="Vector_3" d="M10 14.1667H10.0083" stroke="#D08700" stroke-width="1.66667" stroke-linecap="round" stroke-linejoin="round"/>
</g>
</svg>
