<svg width="12" height="12" viewBox="0 0 12 12" fill="none" xmlns="http://www.w3.org/2000/svg">
<path d="M10.8662 9.00011L6.86619 2.00011C6.77897 1.84621 6.65249 1.71821 6.49965 1.62915C6.34681 1.54009 6.17308 1.49316 5.99619 1.49316C5.81929 1.49316 5.64556 1.54009 5.49272 1.62915C5.33988 1.71821 5.2134 1.84621 5.12619 2.00011L1.12619 9.00011C1.03803 9.15279 0.9918 9.32606 0.99219 9.50237C0.99258 9.67867 1.03957 9.85174 1.12841 10.004C1.21724 10.1563 1.34476 10.2824 1.49803 10.3695C1.65131 10.4566 1.82489 10.5017 2.00119 10.5001H10.0012C10.1766 10.4999 10.3489 10.4536 10.5008 10.3658C10.6527 10.2779 10.7788 10.1517 10.8664 9.99967C10.9541 9.84768 11.0002 9.67531 11.0002 9.49986C11.0001 9.32441 10.9539 9.15206 10.8662 9.00011Z" stroke="#FF6900" stroke-width="1" stroke-linecap="round" stroke-linejoin="round"/>
<path d="M6 4.5V6.5" stroke="#FF6900" stroke-width="1" stroke-linecap="round" stroke-linejoin="round"/>
<path d="M6 8.5H6.005" stroke="#FF6900" stroke-width="1" stroke-linecap="round" stroke-linejoin="round"/>
</svg>
