<svg preserveAspectRatio="none" width="100%" height="100%" overflow="visible" style="display: block;" viewBox="0 0 16 16" fill="none" xmlns="http://www.w3.org/2000/svg">
<g id="SVG">
<path id="Vector" d="M11.6681 12.6666H6.00141C5.13599 12.6664 4.28767 12.4255 3.55126 11.9709C2.81485 11.5163 2.21936 10.8659 1.83132 10.0923C1.44329 9.31877 1.278 8.45255 1.35394 7.59047C1.42987 6.72838 1.74403 5.90439 2.26131 5.21057C2.77859 4.51676 3.47861 3.98045 4.28314 3.66158C5.08768 3.34271 5.96504 3.25384 6.81718 3.4049C7.66931 3.55596 8.46266 3.941 9.10856 4.51699C9.75447 5.09298 10.2275 5.83724 10.4747 6.66659H11.6681C12.4637 6.66659 13.2268 6.98266 13.7894 7.54527C14.352 8.10788 14.6681 8.87094 14.6681 9.66659C14.6681 10.4622 14.352 11.2253 13.7894 11.7879C13.2268 12.3505 12.4637 12.6666 11.6681 12.6666Z" stroke="#FFFFFF" stroke-width="1.33333" stroke-linecap="round" stroke-linejoin="round"/>
</g>
</svg>
