<svg preserveAspectRatio="none" width="100%" height="100%" overflow="visible" style="display: block;" viewBox="0 0 24 24" fill="none" xmlns="http://www.w3.org/2000/svg">
<g id="SVG">
<path id="Vector" d="M2.06251 11.6521C1.97916 11.8766 1.97916 12.1236 2.06251 12.3481C2.87421 14.3163 4.25202 15.9991 6.02128 17.1832C7.79053 18.3674 9.87155 18.9995 12.0005 18.9995C14.1295 18.9995 16.2105 18.3674 17.9797 17.1832C19.749 15.9991 21.1268 14.3163 21.9385 12.3481C22.0218 12.1236 22.0218 11.8766 21.9385 11.6521C21.1268 9.68397 19.749 8.00116 17.9797 6.81701C16.2105 5.63287 14.1295 5.00073 12.0005 5.00073C9.87155 5.00073 7.79053 5.63287 6.02128 6.81701C4.25202 8.00116 2.87421 9.68397 2.06251 11.6521Z" stroke="#9810FA" stroke-width="2" stroke-linecap="round" stroke-linejoin="round"/>
<path id="Vector_2" d="M12 15C13.6569 15 15 13.6569 15 12C15 10.3431 13.6569 9 12 9C10.3431 9 9 10.3431 9 12C9 13.6569 10.3431 15 12 15Z" stroke="#9810FA" stroke-width="2" stroke-linecap="round" stroke-linejoin="round"/>
</g>
</svg>
