<svg width="16" height="16" viewBox="0 0 16 16" fill="none" xmlns="http://www.w3.org/2000/svg">
<g id="SVG">
<path id="Vector" d="M1.3737 7.768C1.31814 7.91767 1.31814 8.08232 1.3737 8.232C1.91483 9.54409 2.83338 10.666 4.01288 11.4554C5.19239 12.2448 6.57973 12.6663 7.99903 12.6663C9.41834 12.6663 10.8057 12.2448 11.9852 11.4554C13.1647 10.666 14.0832 9.54409 14.6244 8.232C14.6799 8.08232 14.6799 7.91767 14.6244 7.768C14.0832 6.4559 13.1647 5.33402 11.9852 4.5446C10.8057 3.75517 9.41834 3.33374 7.99903 3.33374C6.57973 3.33374 5.19239 3.75517 4.01288 4.5446C2.83338 5.33402 1.91483 6.4559 1.3737 7.768Z" stroke="#0A0A0A" stroke-width="1.33333" stroke-linecap="round" stroke-linejoin="round"/>
<path id="Vector_2" d="M8 10C9.10457 10 10 9.10457 10 8C10 6.89543 9.10457 6 8 6C6.89543 6 6 6.89543 6 8C6 9.10457 6.89543 10 8 10Z" stroke="#0A0A0A" stroke-width="1.33333" stroke-linecap="round" stroke-linejoin="round"/>
</g>
</svg>
