<svg preserveAspectRatio="none" width="100%" height="100%" overflow="visible" style="display: block;" viewBox="0 0 20 20" fill="none" xmlns="http://www.w3.org/2000/svg">
<g id="SVG">
<path id="Vector" d="M12.5013 1.66669H7.5013C7.04106 1.66669 6.66797 2.03978 6.66797 2.50002V4.16669C6.66797 4.62692 7.04106 5.00002 7.5013 5.00002H12.5013C12.9615 5.00002 13.3346 4.62692 13.3346 4.16669V2.50002C13.3346 2.03978 12.9615 1.66669 12.5013 1.66669Z" stroke="#155DFC" stroke-width="1.66667" stroke-linecap="round" stroke-linejoin="round"/>
<path id="Vector_2" d="M13.332 3.33331H14.9987C15.4407 3.33331 15.8646 3.50891 16.1772 3.82147C16.4898 4.13403 16.6654 4.55795 16.6654 4.99998V16.6666C16.6654 17.1087 16.4898 17.5326 16.1772 17.8452C15.8646 18.1577 15.4407 18.3333 14.9987 18.3333H4.9987C4.55667 18.3333 4.13275 18.1577 3.82019 17.8452C3.50763 17.5326 3.33203 17.1087 3.33203 16.6666V4.99998C3.33203 4.55795 3.50763 4.13403 3.82019 3.82147C4.13275 3.50891 4.55667 3.33331 4.9987 3.33331H6.66536" stroke="#155DFC" stroke-width="1.66667" stroke-linecap="round" stroke-linejoin="round"/>
<path id="Vector_3" d="M7.5 11.6667L9.16667 13.3333L12.5 10" stroke="#155DFC" stroke-width="1.66667" stroke-linecap="round" stroke-linejoin="round"/>
</g>
</svg>
