<svg preserveAspectRatio="none" width="100%" height="100%" overflow="visible" style="display: block;" viewBox="0 0 20 20" fill="none" xmlns="http://www.w3.org/2000/svg">
<g id="SVG">
<path id="Vector" d="M12.5007 1.66669H5.00065C4.55862 1.66669 4.1347 1.84228 3.82214 2.15484C3.50958 2.4674 3.33398 2.89133 3.33398 3.33335V16.6667C3.33398 17.1087 3.50958 17.5326 3.82214 17.8452C4.1347 18.1578 4.55862 18.3334 5.00065 18.3334H15.0007C15.4427 18.3334 15.8666 18.1578 16.1792 17.8452C16.4917 17.5326 16.6673 17.1087 16.6673 16.6667V5.83335L12.5007 1.66669Z" stroke="#155DFC" stroke-width="1.66667" stroke-linecap="round" stroke-linejoin="round"/>
<path id="Vector_2" d="M11.666 1.66669V5.00002C11.666 5.44205 11.8416 5.86597 12.1542 6.17853C12.4667 6.49109 12.8907 6.66669 13.3327 6.66669H16.666" stroke="#155DFC" stroke-width="1.66667" stroke-linecap="round" stroke-linejoin="round"/>
<path id="Vector_3" d="M7.5 12.5L9.16667 14.1667L12.5 10.8333" stroke="#155DFC" stroke-width="1.66667" stroke-linecap="round" stroke-linejoin="round"/>
</g>
</svg>
