<svg preserveAspectRatio="none" width="100%" height="100%" overflow="visible" style="display: block;" viewBox="0 0 16 16" fill="none" xmlns="http://www.w3.org/2000/svg">
<g id="SVG" clip-path="url(#clip0_0_4)">
<path id="Vector" d="M6.66406 8.66673C6.95036 9.04948 7.31563 9.36618 7.7351 9.59535C8.15456 9.82452 8.6184 9.9608 9.09516 9.99495C9.57192 10.0291 10.0505 9.9603 10.4983 9.79325C10.9461 9.62619 11.3528 9.36477 11.6907 9.02673L13.6907 7.02673C14.2979 6.39805 14.6339 5.55604 14.6263 4.68205C14.6187 3.80807 14.2682 2.97202 13.6501 2.354C13.0321 1.73597 12.1961 1.38541 11.3221 1.37781C10.4481 1.37022 9.60607 1.7062 8.9774 2.31339L7.83073 3.45339" stroke="#00A63E" stroke-width="1.33333" stroke-linecap="round" stroke-linejoin="round"/>
<path id="Vector_2" d="M9.32956 7.33332C9.04326 6.95057 8.67799 6.63387 8.25853 6.40469C7.83906 6.17552 7.37522 6.03924 6.89846 6.0051C6.4217 5.97095 5.94317 6.03974 5.49533 6.2068C5.04749 6.37386 4.64082 6.63527 4.30289 6.97332L2.30289 8.97332C1.6957 9.60199 1.35972 10.444 1.36731 11.318C1.37491 12.192 1.72547 13.028 2.3435 13.646C2.96153 14.2641 3.79757 14.6146 4.67156 14.6222C5.54555 14.6298 6.38755 14.2938 7.01623 13.6867L8.15623 12.5467" stroke="#00A63E" stroke-width="1.33333" stroke-linecap="round" stroke-linejoin="round"/>
</g>
<defs>
<clipPath id="clip0_0_4">
<rect width="16" height="16" fill="white"/>
</clipPath>
</defs>
</svg>
