<svg preserveAspectRatio="none" width="100%" height="100%" overflow="visible" style="display: block;" viewBox="0 0 16 16" fill="none" xmlns="http://www.w3.org/2000/svg">
<g id="SVG">
<path id="Vector" d="M9.9974 1.33337H3.9974C3.64377 1.33337 3.30464 1.47385 3.05459 1.7239C2.80454 1.97395 2.66406 2.31309 2.66406 2.66671V13.3334C2.66406 13.687 2.80454 14.0261 3.05459 14.2762C3.30464 14.5262 3.64377 14.6667 3.9974 14.6667H11.9974C12.351 14.6667 12.6902 14.5262 12.9402 14.2762C13.1903 14.0261 13.3307 13.687 13.3307 13.3334V4.66671L9.9974 1.33337Z" stroke="#364153" stroke-width="1.33333" stroke-linecap="round" stroke-linejoin="round"/>
<path id="Vector_2" d="M9.33594 1.33337V4.00004C9.33594 4.35366 9.47641 4.6928 9.72646 4.94285C9.97651 5.1929 10.3156 5.33337 10.6693 5.33337H13.3359" stroke="#364153" stroke-width="1.33333" stroke-linecap="round" stroke-linejoin="round"/>
<path id="Vector_3" d="M6.66927 6H5.33594" stroke="#364153" stroke-width="1.33333" stroke-linecap="round" stroke-linejoin="round"/>
<path id="Vector_4" d="M10.6693 8.66663H5.33594" stroke="#364153" stroke-width="1.33333" stroke-linecap="round" stroke-linejoin="round"/>
<path id="Vector_5" d="M10.6693 11.3334H5.33594" stroke="#364153" stroke-width="1.33333" stroke-linecap="round" stroke-linejoin="round"/>
</g>
</svg>
