<svg preserveAspectRatio="none" width="100%" height="100%" overflow="visible" style="display: block;" viewBox="0 0 20 20" fill="none" xmlns="http://www.w3.org/2000/svg">
<g id="SVG">
<path id="Vector" d="M12.5026 1.66675H5.0026C4.56058 1.66675 4.13665 1.84234 3.82409 2.1549C3.51153 2.46746 3.33594 2.89139 3.33594 3.33341V16.6667C3.33594 17.1088 3.51153 17.5327 3.82409 17.8453C4.13665 18.1578 4.56058 18.3334 5.0026 18.3334H15.0026C15.4446 18.3334 15.8686 18.1578 16.1811 17.8453C16.4937 17.5327 16.6693 17.1088 16.6693 16.6667V5.83341L12.5026 1.66675Z" stroke="#155DFC" stroke-width="1.66667" stroke-linecap="round" stroke-linejoin="round"/>
<path id="Vector_2" d="M11.6641 1.66675V5.00008C11.6641 5.44211 11.8397 5.86603 12.1522 6.17859C12.4648 6.49115 12.8887 6.66675 13.3307 6.66675H16.6641" stroke="#155DFC" stroke-width="1.66667" stroke-linecap="round" stroke-linejoin="round"/>
<path id="Vector_3" d="M8.33073 7.5H6.66406" stroke="#155DFC" stroke-width="1.66667" stroke-linecap="round" stroke-linejoin="round"/>
<path id="Vector_4" d="M13.3307 10.8333H6.66406" stroke="#155DFC" stroke-width="1.66667" stroke-linecap="round" stroke-linejoin="round"/>
<path id="Vector_5" d="M13.3307 14.1667H6.66406" stroke="#155DFC" stroke-width="1.66667" stroke-linecap="round" stroke-linejoin="round"/>
</g>
</svg>
