<svg width="18" height="18" viewBox="0 0 18 18" fill="none" xmlns="http://www.w3.org/2000/svg">
<path d="M8.75 7.28906H8.75729" stroke="#155DFC" stroke-width="1.45833" stroke-linecap="round" stroke-linejoin="round"/>
<path d="M8.75 10.2109H8.75729" stroke="#155DFC" stroke-width="1.45833" stroke-linecap="round" stroke-linejoin="round"/>
<path d="M8.75 4.375H8.75729" stroke="#155DFC" stroke-width="1.45833" stroke-linecap="round" stroke-linejoin="round"/>
<path d="M11.6666 7.28906H11.6739" stroke="#155DFC" stroke-width="1.45833" stroke-linecap="round" stroke-linejoin="round"/>
<path d="M11.6666 10.2109H11.6739" stroke="#155DFC" stroke-width="1.45833" stroke-linecap="round" stroke-linejoin="round"/>
<path d="M11.6666 4.375H11.6739" stroke="#155DFC" stroke-width="1.45833" stroke-linecap="round" stroke-linejoin="round"/>
<path d="M5.83337 7.28906H5.84067" stroke="#155DFC" stroke-width="1.45833" stroke-linecap="round" stroke-linejoin="round"/>
<path d="M5.83337 10.2109H5.84067" stroke="#155DFC" stroke-width="1.45833" stroke-linecap="round" stroke-linejoin="round"/>
<path d="M5.83337 4.375H5.84067" stroke="#155DFC" stroke-width="1.45833" stroke-linecap="round" stroke-linejoin="round"/>
<path d="M6.5625 16.0417V13.8542C6.5625 13.6608 6.63932 13.4753 6.77607 13.3386C6.91281 13.2018 7.09828 13.125 7.29167 13.125H10.2083C10.4017 13.125 10.5872 13.2018 10.7239 13.3386C10.8607 13.4753 10.9375 13.6608 10.9375 13.8542V16.0417" stroke="#155DFC" stroke-width="1.45833" stroke-linecap="round" stroke-linejoin="round"/>
<path d="M13.125 1.46094H4.37496C3.56954 1.46094 2.91663 2.11386 2.91663 2.91927V14.5859C2.91663 15.3914 3.56954 16.0443 4.37496 16.0443H13.125C13.9304 16.0443 14.5833 15.3914 14.5833 14.5859V2.91927C14.5833 2.11386 13.9304 1.46094 13.125 1.46094Z" stroke="#155DFC" stroke-width="1.45833" stroke-linecap="round" stroke-linejoin="round"/>
</svg>
