<svg width="35" height="35" viewBox="0 0 35 35" fill="none" xmlns="http://www.w3.org/2000/svg">
<path d="M26.25 11.6641C26.25 16.933 20.6077 22.498 18.3852 24.4901C18.131 24.6843 17.8199 24.7895 17.5 24.7895C17.1801 24.7895 16.869 24.6843 16.6148 24.4901C14.3937 22.498 8.75 16.933 8.75 11.6641C8.75 9.34342 9.67187 7.11782 11.3128 5.47688C12.9538 3.83593 15.1794 2.91406 17.5 2.91406C19.8206 2.91406 22.0462 3.83593 23.6872 5.47688C25.3281 7.11782 26.25 9.34342 26.25 11.6641Z" stroke="white" stroke-width="2.91667" stroke-linecap="round" stroke-linejoin="round"/>
<path d="M17.5002 14.5833C19.111 14.5833 20.4168 13.2775 20.4168 11.6667C20.4168 10.0558 19.111 8.75 17.5002 8.75C15.8893 8.75 14.5835 10.0558 14.5835 11.6667C14.5835 13.2775 15.8893 14.5833 17.5002 14.5833Z" stroke="white" stroke-width="2.91667" stroke-linecap="round" stroke-linejoin="round"/>
<path d="M12.7081 20.4141H7.29769C6.99192 20.4142 6.69393 20.5104 6.44584 20.6892C6.19775 20.8679 6.01212 21.1201 5.91519 21.4101L2.99269 30.1601C2.91943 30.3793 2.89931 30.6128 2.934 30.8413C2.96869 31.0698 3.0572 31.2868 3.19222 31.4744C3.32725 31.6619 3.50492 31.8147 3.7106 31.9202C3.91628 32.0256 4.14407 32.0806 4.37519 32.0807H30.6252C30.8561 32.0806 31.0838 32.0255 31.2893 31.9202C31.4948 31.8148 31.6724 31.6622 31.8074 31.4748C31.9424 31.2874 32.0309 31.0706 32.0657 30.8423C32.1006 30.614 32.0807 30.3807 32.0077 30.1616L29.091 21.4116C28.9943 21.1211 28.8085 20.8684 28.5601 20.6893C28.3117 20.5103 28.0133 20.414 27.7071 20.4141H22.2937" stroke="white" stroke-width="2.91667" stroke-linecap="round" stroke-linejoin="round"/>
</svg>
