<svg preserveAspectRatio="none" width="100%" height="100%" overflow="visible" style="display: block;" viewBox="0 0 20 20" fill="none" xmlns="http://www.w3.org/2000/svg">
<g id="SVG" clip-path="url(#clip0_0_8)">
<path id="Vector" d="M18.3307 10.0001H16.2641C15.8999 9.9993 15.5454 10.1178 15.255 10.3376C14.9645 10.5573 14.7541 10.8661 14.6557 11.2167L12.6974 18.1834C12.6848 18.2267 12.6585 18.2647 12.6224 18.2917C12.5863 18.3188 12.5425 18.3334 12.4974 18.3334C12.4523 18.3334 12.4085 18.3188 12.3724 18.2917C12.3363 18.2647 12.31 18.2267 12.2974 18.1834L7.6974 1.81675C7.68477 1.77347 7.65846 1.73546 7.6224 1.70841C7.58633 1.68137 7.54247 1.66675 7.4974 1.66675C7.45232 1.66675 7.40846 1.68137 7.3724 1.70841C7.33633 1.73546 7.31002 1.77347 7.2974 1.81675L5.33906 8.78341C5.24112 9.13271 5.03188 9.44051 4.74312 9.66009C4.45435 9.87967 4.10183 9.99904 3.73906 10.0001H1.66406" stroke="#155DFC" stroke-width="1.66667" stroke-linecap="round" stroke-linejoin="round"/>
</g>
<defs>
<clipPath id="clip0_0_8">
<rect width="20" height="20" fill="white"/>
</clipPath>
</defs>
</svg>
