<svg preserveAspectRatio="none" width="100%" height="100%" overflow="visible" style="display: block;" viewBox="0 0 20 20" fill="none" xmlns="http://www.w3.org/2000/svg">
<g id="SVG">
<path id="Vector" d="M3.33203 16.25V3.75002C3.33203 3.19749 3.55152 2.66758 3.94223 2.27688C4.33293 1.88618 4.86283 1.66669 5.41536 1.66669H15.832C16.053 1.66669 16.265 1.75448 16.4213 1.91076C16.5776 2.06704 16.6654 2.27901 16.6654 2.50002V17.5C16.6654 17.721 16.5776 17.933 16.4213 18.0893C16.265 18.2456 16.053 18.3334 15.832 18.3334H5.41536C4.86283 18.3334 4.33293 18.1139 3.94223 17.7232C3.55152 17.3325 3.33203 16.8026 3.33203 16.25ZM3.33203 16.25C3.33203 15.6975 3.55152 15.1676 3.94223 14.7769C4.33293 14.3862 4.86283 14.1667 5.41536 14.1667H16.6654" stroke="#155DFC" stroke-width="1.66667" stroke-linecap="round" stroke-linejoin="round"/>
</g>
</svg>
