<svg preserveAspectRatio="none" width="100%" height="100%" overflow="visible" style="display: block;" viewBox="0 0 20 20" fill="none" xmlns="http://www.w3.org/2000/svg">
<g id="SVG">
<path id="Vector" d="M18.109 15.0001L11.4423 3.33344C11.297 3.07694 11.0862 2.8636 10.8314 2.71516C10.5767 2.56673 10.2872 2.48853 9.99234 2.48853C9.69752 2.48853 9.40797 2.56673 9.15324 2.71516C8.8985 2.8636 8.6877 3.07694 8.54234 3.33344L1.87567 15.0001C1.72874 15.2546 1.6517 15.5434 1.65235 15.8372C1.653 16.131 1.73132 16.4195 1.87938 16.6733C2.02744 16.9271 2.23996 17.1373 2.49542 17.2825C2.75088 17.4277 3.04018 17.5027 3.33401 17.5001H16.6673C16.9598 17.4998 17.2469 17.4226 17.5001 17.2762C17.7532 17.1298 17.9634 16.9193 18.1094 16.666C18.2555 16.4127 18.3324 16.1254 18.3323 15.833C18.3322 15.5406 18.2552 15.2533 18.109 15.0001Z" stroke="#D08700" stroke-width="1.66667" stroke-linecap="round" stroke-linejoin="round"/>
<path id="Vector_2" d="M10 7.5V10.8333" stroke="#D08700" stroke-width="1.66667" stroke-linecap="round" stroke-linejoin="round"/>
<path id="Vector_3" d="M10 14.1667H10.0083" stroke="#D08700" stroke-width="1.66667" stroke-linecap="round" stroke-linejoin="round"/>
</g>
</svg>
