<svg preserveAspectRatio="none" width="100%" height="100%" overflow="visible" style="display: block;" viewBox="0 0 16 16" fill="none" xmlns="http://www.w3.org/2000/svg">
<g id="SVG" clip-path="url(#clip0_0_15)">
<path id="Vector" d="M9.68924 14.4573C9.71456 14.5205 9.75859 14.5743 9.81542 14.6117C9.87224 14.6491 9.93914 14.6682 10.0071 14.6664C10.0751 14.6647 10.141 14.6422 10.1958 14.6019C10.2506 14.5617 10.2918 14.5057 10.3139 14.4413L14.6472 1.77466C14.6686 1.71559 14.6726 1.65167 14.659 1.59037C14.6453 1.52907 14.6145 1.47293 14.57 1.42852C14.5256 1.3841 14.4695 1.35326 14.4082 1.33959C14.3469 1.32592 14.283 1.32999 14.2239 1.35133L1.55723 5.68466C1.4929 5.70673 1.43685 5.74794 1.39662 5.80278C1.35638 5.85761 1.33388 5.92344 1.33214 5.99144C1.3304 6.05943 1.3495 6.12632 1.38687 6.18315C1.42425 6.23997 1.47811 6.284 1.54123 6.30933L6.8279 8.42933C6.99503 8.49624 7.14687 8.5963 7.27428 8.72348C7.40169 8.85066 7.50202 9.00233 7.56924 9.16933L9.68924 14.4573Z" stroke="white" stroke-width="1.33333" stroke-linecap="round" stroke-linejoin="round"/>
<path id="Vector_2" d="M14.5707 1.43134L7.27734 8.724" stroke="white" stroke-width="1.33333" stroke-linecap="round" stroke-linejoin="round"/>
</g>
<defs>
<clipPath id="clip0_0_15">
<rect width="16" height="16" fill="white"/>
</clipPath>
</defs>
</svg>
