<svg width="24" height="24" viewBox="0 0 24 24" fill="none" xmlns="http://www.w3.org/2000/svg">
<path d="M20.985 12.486C20.8913 14.2222 20.2967 15.894 19.2731 17.2994C18.2495 18.7049 16.8407 19.7837 15.217 20.4056C13.5934 21.0274 11.8244 21.1657 10.1238 20.8036C8.42325 20.4415 6.86398 19.5946 5.63449 18.3652C4.40499 17.1358 3.55791 15.5767 3.19564 13.8761C2.83337 12.1756 2.97142 10.4066 3.5931 8.78285C4.21478 7.15912 5.29348 5.75022 6.6988 4.72647C8.10412 3.70272 9.77589 3.10794 11.512 3.01403C11.917 2.99203 12.129 3.47403 11.914 3.81703C11.1949 4.96759 10.887 6.3279 11.0405 7.67598C11.194 9.02407 11.7999 10.2803 12.7593 11.2397C13.7187 12.1991 14.975 12.805 16.3231 12.9585C17.6712 13.1121 19.0315 12.8041 20.182 12.085C20.526 11.87 21.007 12.081 20.985 12.486Z" stroke="#4B0082" stroke-width="2" stroke-linecap="round" stroke-linejoin="round"/>
</svg>
