<svg width="32" height="32" viewBox="0 0 32 32" fill="none" xmlns="http://www.w3.org/2000/svg">
<path d="M13.3334 16H18.6667" stroke="#155DFC" stroke-width="2.66667" stroke-linecap="round" stroke-linejoin="round"/>
<path d="M13.3334 10.668H18.6667" stroke="#155DFC" stroke-width="2.66667" stroke-linecap="round" stroke-linejoin="round"/>
<path d="M18.6667 27.9987V23.9987C18.6667 23.2915 18.3858 22.6132 17.8857 22.1131C17.3856 21.613 16.7073 21.332 16 21.332C15.2928 21.332 14.6145 21.613 14.1144 22.1131C13.6143 22.6132 13.3334 23.2915 13.3334 23.9987V27.9987" stroke="#155DFC" stroke-width="2.66667" stroke-linecap="round" stroke-linejoin="round"/>
<path d="M7.99996 13.332H5.33329C4.62605 13.332 3.94777 13.613 3.44767 14.1131C2.94758 14.6132 2.66663 15.2915 2.66663 15.9987V25.332C2.66663 26.0393 2.94758 26.7176 3.44767 27.2176C3.94777 27.7177 4.62605 27.9987 5.33329 27.9987H26.6666C27.3739 27.9987 28.0521 27.7177 28.5522 27.2176C29.0523 26.7176 29.3333 26.0393 29.3333 25.332V11.9987C29.3333 11.2915 29.0523 10.6132 28.5522 10.1131C28.0521 9.61298 27.3739 9.33203 26.6666 9.33203H24" stroke="#155DFC" stroke-width="2.66667" stroke-linecap="round" stroke-linejoin="round"/>
<path d="M8 28V6.66667C8 5.95942 8.28095 5.28115 8.78105 4.78105C9.28115 4.28095 9.95942 4 10.6667 4H21.3333C22.0406 4 22.7189 4.28095 23.219 4.78105C23.719 5.28115 24 5.95942 24 6.66667V28" stroke="#155DFC" stroke-width="2.66667" stroke-linecap="round" stroke-linejoin="round"/>
</svg>
