<svg width="18" height="18" viewBox="0 0 18 18" fill="none" xmlns="http://www.w3.org/2000/svg">
<path d="M11.6666 14.332V2.66536C11.6666 2.27859 11.5129 1.90766 11.2394 1.63417C10.966 1.36068 10.595 1.20703 10.2083 1.20703H7.29159C6.90481 1.20703 6.53388 1.36068 6.26039 1.63417C5.9869 1.90766 5.83325 2.27859 5.83325 2.66536V14.332" stroke="#99A1AF" stroke-width="1.45833" stroke-linecap="round" stroke-linejoin="round"/>
<path d="M14.5833 4.125H2.91659C2.11117 4.125 1.45825 4.77792 1.45825 5.58333V12.875C1.45825 13.6804 2.11117 14.3333 2.91659 14.3333H14.5833C15.3887 14.3333 16.0416 13.6804 16.0416 12.875V5.58333C16.0416 4.77792 15.3887 4.125 14.5833 4.125Z" stroke="#99A1AF" stroke-width="1.45833" stroke-linecap="round" stroke-linejoin="round"/>
</svg>
