<svg width="20" height="20" viewBox="0 0 20 20" fill="none" xmlns="http://www.w3.org/2000/svg">
<path d="M14.4375 16.043C14.4375 14.7666 13.9305 13.5425 13.028 12.64C12.1254 11.7375 10.9014 11.2305 9.625 11.2305C8.34865 11.2305 7.12457 11.7375 6.22205 12.64C5.31953 13.5425 4.8125 14.7666 4.8125 16.043" stroke="white" stroke-width="1.60417" stroke-linecap="round" stroke-linejoin="round"/>
<path d="M9.62496 11.2292C11.3969 11.2292 12.8333 9.79275 12.8333 8.02083C12.8333 6.24892 11.3969 4.8125 9.62496 4.8125C7.85305 4.8125 6.41663 6.24892 6.41663 8.02083C6.41663 9.79275 7.85305 11.2292 9.62496 11.2292Z" stroke="white" stroke-width="1.60417" stroke-linecap="round" stroke-linejoin="round"/>
<path d="M9.62496 17.6471C14.0547 17.6471 17.6458 14.0561 17.6458 9.6263C17.6458 5.19652 14.0547 1.60547 9.62496 1.60547C5.19518 1.60547 1.60413 5.19652 1.60413 9.6263C1.60413 14.0561 5.19518 17.6471 9.62496 17.6471Z" stroke="white" stroke-width="1.60417" stroke-linecap="round" stroke-linejoin="round"/>
</svg>
