<svg width="18" height="18" viewBox="0 0 18 18" fill="none" xmlns="http://www.w3.org/2000/svg">
<path d="M14.5833 4.125H2.91659C2.11117 4.125 1.45825 4.77792 1.45825 5.58333V11.4167C1.45825 12.2221 2.11117 12.875 2.91659 12.875H14.5833C15.3887 12.875 16.0416 12.2221 16.0416 11.4167V5.58333C16.0416 4.77792 15.3887 4.125 14.5833 4.125Z" stroke="#99A1AF" stroke-width="1.45833" stroke-linecap="round" stroke-linejoin="round"/>
<path d="M8.75008 9.95964C9.5555 9.95964 10.2084 9.30672 10.2084 8.5013C10.2084 7.69589 9.5555 7.04297 8.75008 7.04297C7.94467 7.04297 7.29175 7.69589 7.29175 8.5013C7.29175 9.30672 7.94467 9.95964 8.75008 9.95964Z" stroke="#99A1AF" stroke-width="1.45833" stroke-linecap="round" stroke-linejoin="round"/>
<path d="M4.375 8.5H4.38229M13.125 8.5H13.1323" stroke="#99A1AF" stroke-width="1.45833" stroke-linecap="round" stroke-linejoin="round"/>
</svg>
