<svg width="18" height="18" viewBox="0 0 18 18" fill="none" xmlns="http://www.w3.org/2000/svg">
<path d="M4.37508 15.7904C3.98831 15.7904 3.61737 15.6367 3.34388 15.3632C3.07039 15.0897 2.91675 14.7188 2.91675 14.332V2.66537C2.91675 2.27859 3.07039 1.90766 3.34388 1.63417C3.61737 1.36068 3.98831 1.20703 4.37508 1.20703H10.2084C10.4392 1.20666 10.6679 1.25195 10.8811 1.3403C11.0943 1.42865 11.288 1.55832 11.4509 1.72183L14.0672 4.33808C14.2311 4.50105 14.3611 4.69489 14.4498 4.9084C14.5384 5.12191 14.5838 5.35087 14.5834 5.58203V14.332C14.5834 14.7188 14.4298 15.0897 14.1563 15.3632C13.8828 15.6367 13.5119 15.7904 13.1251 15.7904H4.37508Z" stroke="#99A1AF" stroke-width="1.45833" stroke-linecap="round" stroke-linejoin="round"/>
<path d="M10.2083 1.20703V4.85286C10.2083 5.04625 10.2851 5.23172 10.4218 5.36846C10.5586 5.50521 10.744 5.58203 10.9374 5.58203H14.5833" stroke="#99A1AF" stroke-width="1.45833" stroke-linecap="round" stroke-linejoin="round"/>
<path d="M7.29159 6.3125H5.83325" stroke="#99A1AF" stroke-width="1.45833" stroke-linecap="round" stroke-linejoin="round"/>
<path d="M11.6666 9.23047H5.83325" stroke="#99A1AF" stroke-width="1.45833" stroke-linecap="round" stroke-linejoin="round"/>
<path d="M11.6666 12.1445H5.83325" stroke="#99A1AF" stroke-width="1.45833" stroke-linecap="round" stroke-linejoin="round"/>
</svg>
