<svg width="16" height="16" viewBox="0 0 16 16" fill="none" xmlns="http://www.w3.org/2000/svg">
<path d="M8.00001 8.66536C8.3682 8.66536 8.66668 8.36689 8.66668 7.9987C8.66668 7.63051 8.3682 7.33203 8.00001 7.33203C7.63182 7.33203 7.33334 7.63051 7.33334 7.9987C7.33334 8.36689 7.63182 8.66536 8.00001 8.66536Z" stroke="#6B7280" stroke-width="1.33333" stroke-linecap="round" stroke-linejoin="round"/>
<path d="M8.00001 4.0013C8.3682 4.0013 8.66668 3.70283 8.66668 3.33464C8.66668 2.96645 8.3682 2.66797 8.00001 2.66797C7.63182 2.66797 7.33334 2.96645 7.33334 3.33464C7.33334 3.70283 7.63182 4.0013 8.00001 4.0013Z" stroke="#6B7280" stroke-width="1.33333" stroke-linecap="round" stroke-linejoin="round"/>
<path d="M8.00001 13.3333C8.3682 13.3333 8.66668 13.0349 8.66668 12.6667C8.66668 12.2985 8.3682 12 8.00001 12C7.63182 12 7.33334 12.2985 7.33334 12.6667C7.33334 13.0349 7.63182 13.3333 8.00001 13.3333Z" stroke="#6B7280" stroke-width="1.33333" stroke-linecap="round" stroke-linejoin="round"/>
</svg>
