<svg width="18" height="18" viewBox="0 0 18 18" fill="none" xmlns="http://www.w3.org/2000/svg">
<path d="M11.6667 7.29297H13.1251" stroke="#99A1AF" stroke-width="1.45833" stroke-linecap="round" stroke-linejoin="round"/>
<path d="M11.6667 10.207H13.1251" stroke="#99A1AF" stroke-width="1.45833" stroke-linecap="round" stroke-linejoin="round"/>
<path d="M4.49902 10.9381C4.64933 10.5109 4.92858 10.1408 5.2982 9.87897C5.66783 9.61717 6.10961 9.47656 6.56257 9.47656C7.01552 9.47656 7.4573 9.61717 7.82693 9.87897C8.19655 10.1408 8.4758 10.5109 8.62611 10.9381" stroke="#99A1AF" stroke-width="1.45833" stroke-linecap="round" stroke-linejoin="round"/>
<path d="M6.56258 9.47917C7.368 9.47917 8.02091 8.82625 8.02091 8.02083C8.02091 7.21542 7.368 6.5625 6.56258 6.5625C5.75717 6.5625 5.10425 7.21542 5.10425 8.02083C5.10425 8.82625 5.75717 9.47917 6.56258 9.47917Z" stroke="#99A1AF" stroke-width="1.45833" stroke-linecap="round" stroke-linejoin="round"/>
<path d="M14.5833 3.64453H2.91659C2.11117 3.64453 1.45825 4.29745 1.45825 5.10286V12.3945C1.45825 13.1999 2.11117 13.8529 2.91659 13.8529H14.5833C15.3887 13.8529 16.0416 13.1999 16.0416 12.3945V5.10286C16.0416 4.29745 15.3887 3.64453 14.5833 3.64453Z" stroke="#99A1AF" stroke-width="1.45833" stroke-linecap="round" stroke-linejoin="round"/>
</svg>
