<svg preserveAspectRatio="none" width="100%" height="100%" overflow="visible" style="display: block;" viewBox="0 0 20 20" fill="none" xmlns="http://www.w3.org/2000/svg">
<g id="SVG">
<path id="Vector" d="M8.33301 10H11.6663"  stroke="currentColor" stroke-width="1.66667" stroke-linecap="round" stroke-linejoin="round"/>
<path id="Vector_2" d="M8.33301 6.66699H11.6663"  stroke="currentColor" stroke-width="1.66667" stroke-linecap="round" stroke-linejoin="round"/>
<path id="Vector_3" d="M11.6663 17.4997V14.9997C11.6663 14.5576 11.4907 14.1337 11.1782 13.8212C10.8656 13.5086 10.4417 13.333 9.99967 13.333C9.55765 13.333 9.13372 13.5086 8.82116 13.8212C8.5086 14.1337 8.33301 14.5576 8.33301 14.9997V17.4997"  stroke="currentColor" stroke-width="1.66667" stroke-linecap="round" stroke-linejoin="round"/>
<path id="Vector_4" d="M5.00033 8.33301H3.33366C2.89163 8.33301 2.46771 8.5086 2.15515 8.82116C1.84259 9.13372 1.66699 9.55765 1.66699 9.99967V15.833C1.66699 16.275 1.84259 16.699 2.15515 17.0115C2.46771 17.3241 2.89163 17.4997 3.33366 17.4997H16.667C17.109 17.4997 17.5329 17.3241 17.8455 17.0115C18.1581 16.699 18.3337 16.275 18.3337 15.833V7.49967C18.3337 7.05765 18.1581 6.63372 17.8455 6.32116C17.5329 6.0086 17.109 5.83301 16.667 5.83301H15.0003"  stroke="currentColor" stroke-width="1.66667" stroke-linecap="round" stroke-linejoin="round"/>
<path id="Vector_5" d="M5 17.5V4.16667C5 3.72464 5.17559 3.30072 5.48816 2.98816C5.80072 2.67559 6.22464 2.5 6.66667 2.5H13.3333C13.7754 2.5 14.1993 2.67559 14.5118 2.98816C14.8244 3.30072 15 3.72464 15 4.16667V17.5"  stroke="currentColor" stroke-width="1.66667" stroke-linecap="round" stroke-linejoin="round"/>
</g>
</svg>
