<svg preserveAspectRatio="none" width="100%" height="100%" overflow="visible" style="display: block;" viewBox="0 0 20 20" fill="none" xmlns="http://www.w3.org/2000/svg">
<g id="SVG">
<path id="Vector" d="M10 8.33333H10.0083" stroke="currentColor" stroke-width="1.66667" stroke-linecap="round" stroke-linejoin="round"/>
<path id="Vector_2" d="M10 11.6667H10.0083" stroke="currentColor" stroke-width="1.66667" stroke-linecap="round" stroke-linejoin="round"/>
<path id="Vector_3" d="M10 5H10.0083" stroke="currentColor" stroke-width="1.66667" stroke-linecap="round" stroke-linejoin="round"/>
<path id="Vector_4" d="M13.332 8.33333H13.3404" stroke="currentColor" stroke-width="1.66667" stroke-linecap="round" stroke-linejoin="round"/>
<path id="Vector_5" d="M13.332 11.6667H13.3404" stroke="currentColor" stroke-width="1.66667" stroke-linecap="round" stroke-linejoin="round"/>
<path id="Vector_6" d="M13.332 5H13.3404" stroke="currentColor" stroke-width="1.66667" stroke-linecap="round" stroke-linejoin="round"/>
<path id="Vector_7" d="M6.66797 8.33333H6.6763" stroke="currentColor" stroke-width="1.66667" stroke-linecap="round" stroke-linejoin="round"/>
<path id="Vector_8" d="M6.66797 11.6667H6.6763" stroke="currentColor" stroke-width="1.66667" stroke-linecap="round" stroke-linejoin="round"/>
<path id="Vector_9" d="M6.66797 5H6.6763" stroke="currentColor" stroke-width="1.66667" stroke-linecap="round" stroke-linejoin="round"/>
<path id="Vector_10" d="M7.5 18.3333V15.8333C7.5 15.6123 7.5878 15.4004 7.74408 15.2441C7.90036 15.0878 8.11232 15 8.33333 15H11.6667C11.8877 15 12.0996 15.0878 12.2559 15.2441C12.4122 15.4004 12.5 15.6123 12.5 15.8333V18.3333" stroke="currentColor" stroke-width="1.66667" stroke-linecap="round" stroke-linejoin="round"/>
<path id="Vector_11" d="M14.9987 1.66667H4.9987C4.07822 1.66667 3.33203 2.41286 3.33203 3.33334V16.6667C3.33203 17.5871 4.07822 18.3333 4.9987 18.3333H14.9987C15.9192 18.3333 16.6654 17.5871 16.6654 16.6667V3.33334C16.6654 2.41286 15.9192 1.66667 14.9987 1.66667Z" stroke="currentColor" stroke-width="1.66667" stroke-linecap="round" stroke-linejoin="round"/>
</g>
</svg>
