<svg preserveAspectRatio="none" width="100%" height="100%" overflow="visible" style="display: block;" viewBox="0 0 12 12" fill="none" xmlns="http://www.w3.org/2000/svg">
<g id="SVG">
<path id="Vector" d="M5 6H7" stroke="currentColor" stroke-linecap="round" stroke-linejoin="round"/>
<path id="Vector_2" d="M5 4H7" stroke="currentColor" stroke-linecap="round" stroke-linejoin="round"/>
<path id="Vector_3" d="M7 10.5V9C7 8.73478 6.89464 8.48043 6.70711 8.29289C6.51957 8.10536 6.26522 8 6 8C5.73478 8 5.48043 8.10536 5.29289 8.29289C5.10536 8.48043 5 8.73478 5 9V10.5" stroke="currentColor" stroke-linecap="round" stroke-linejoin="round"/>
<path id="Vector_4" d="M3 5H2C1.73478 5 1.48043 5.10536 1.29289 5.29289C1.10536 5.48043 1 5.73478 1 6V9.5C1 9.76522 1.10536 10.0196 1.29289 10.2071C1.48043 10.3946 1.73478 10.5 2 10.5H10C10.2652 10.5 10.5196 10.3946 10.7071 10.2071C10.8946 10.0196 11 9.76522 11 9.5V4.5C11 4.23478 10.8946 3.98043 10.7071 3.79289C10.5196 3.60536 10.2652 3.5 10 3.5H9" stroke="currentColor" stroke-linecap="round" stroke-linejoin="round"/>
<path id="Vector_5" d="M3 10.5V2.5C3 2.23478 3.10536 1.98043 3.29289 1.79289C3.48043 1.60536 3.73478 1.5 4 1.5H8C8.26522 1.5 8.51957 1.60536 8.70711 1.79289C8.89464 1.98043 9 2.23478 9 2.5V10.5" stroke="currentColor" stroke-linecap="round" stroke-linejoin="round"/>
</g>
</svg>
