<svg preserveAspectRatio="none" width="100%" height="100%" overflow="visible" style="display: block;" viewBox="0 0 20 20" fill="none" xmlns="http://www.w3.org/2000/svg">
<g id="SVG">
<path id="Vector" d="M13.3346 16.6667V3.33334C13.3346 2.89131 13.159 2.46739 12.8465 2.15483C12.5339 1.84227 12.11 1.66667 11.668 1.66667H8.33464C7.89261 1.66667 7.46869 1.84227 7.15612 2.15483C6.84356 2.46739 6.66797 2.89131 6.66797 3.33334V16.6667" stroke="currentColor" stroke-width="1.66667" stroke-linecap="round" stroke-linejoin="round"/>
<path id="Vector_2" d="M16.668 5H3.33464C2.41416 5 1.66797 5.74619 1.66797 6.66667V15C1.66797 15.9205 2.41416 16.6667 3.33464 16.6667H16.668C17.5884 16.6667 18.3346 15.9205 18.3346 15V6.66667C18.3346 5.74619 17.5884 5 16.668 5Z" stroke="currentColor" stroke-width="1.66667" stroke-linecap="round" stroke-linejoin="round"/>
</g>
</svg>
