<svg preserveAspectRatio="none" width="100%" height="100%" overflow="visible" style="display: block;" viewBox="0 0 14 14" fill="none" xmlns="http://www.w3.org/2000/svg">
<g id="SVG">
<path id="Vector" stroke="black" d="M1.7325 7.53667C1.56028 7.64014 1.41769 7.78633 1.31856 7.96109C1.21943 8.13585 1.16711 8.33325 1.16667 8.53417V10.4242C1.16711 10.6251 1.21943 10.8225 1.31856 10.9972C1.41769 11.172 1.56028 11.3182 1.7325 11.4217L3.4825 12.4717C3.66395 12.5807 3.87165 12.6383 4.08333 12.6383C4.29502 12.6383 4.50271 12.5807 4.68417 12.4717L7 11.0833V7.875L4.08333 6.125L1.7325 7.53667Z" stroke-width="1.16667" stroke-linecap="round" stroke-linejoin="round"/>
<path id="Vector_2" stroke="black" d="M4.08333 9.625L1.31833 7.9625" stroke-width="1.16667" stroke-linecap="round" stroke-linejoin="round"/>
<path id="Vector_3" stroke="black" d="M4.08333 9.625L7 7.875" stroke-width="1.16667" stroke-linecap="round" stroke-linejoin="round"/>
<path id="Vector_4" stroke="black" d="M4.08333 9.625V12.6408" stroke-width="1.16667" stroke-linecap="round" stroke-linejoin="round"/>
<path id="Vector_5" stroke="black" d="M7 7.875V11.0833L9.31583 12.4717C9.49729 12.5807 9.70498 12.6383 9.91667 12.6383C10.1284 12.6383 10.336 12.5807 10.5175 12.4717L12.2675 11.4217C12.4397 11.3182 12.5823 11.172 12.6814 10.9972C12.7806 10.8225 12.8329 10.6251 12.8333 10.4242V8.53417C12.8329 8.33325 12.7806 8.13585 12.6814 7.96109C12.5823 7.78633 12.4397 7.64014 12.2675 7.53667L9.91667 6.125L7 7.875Z" stroke-width="1.16667" stroke-linecap="round" stroke-linejoin="round"/>
<path stroke="black" id="Vector_6" d="M9.91667 9.625L7 7.875" stroke-width="1.16667" stroke-linecap="round" stroke-linejoin="round"/>
<path stroke="black" id="Vector_7" d="M9.91667 9.625L12.6817 7.9625" stroke-width="1.16667" stroke-linecap="round" stroke-linejoin="round"/>
<path stroke="black" id="Vector_8" d="M9.91667 9.625V12.6408" stroke-width="1.16667" stroke-linecap="round" stroke-linejoin="round"/>
<path stroke="black" id="Vector_9" d="M4.64917 2.57833C4.47694 2.68181 4.33436 2.828 4.23523 3.00276C4.13609 3.17752 4.08377 3.37492 4.08333 3.57583V6.125L7 7.875L9.91667 6.125V3.57583C9.91623 3.37492 9.86391 3.17752 9.76477 3.00276C9.66564 2.828 9.52306 2.68181 9.35083 2.57833L7.60083 1.52833C7.41938 1.41932 7.21168 1.36172 7 1.36172C6.78832 1.36172 6.58062 1.41932 6.39917 1.52833L4.64917 2.57833Z" stroke-width="1.16667" stroke-linecap="round" stroke-linejoin="round"/>
<path stroke="black" id="Vector_10" d="M7 4.66667L4.235 3.00417" stroke-width="1.16667" stroke-linecap="round" stroke-linejoin="round"/>
<path stroke="black" id="Vector_11" d="M7 4.66667L9.765 3.00417" stroke-width="1.16667" stroke-linecap="round" stroke-linejoin="round"/>
<path stroke="black" id="Vector_12" d="M7 7.875V4.66667" stroke-width="1.16667" stroke-linecap="round" stroke-linejoin="round"/>
</g>
</svg>
