<svg preserveAspectRatio="none" width="100%" height="100%" overflow="visible" style="display: block;" viewBox="0 0 20 20" fill="none" xmlns="http://www.w3.org/2000/svg">
<g id="SVG">
<path id="Vector" d="M13.3346 17.1167V3.78334C13.3346 3.34131 13.159 2.91738 12.8465 2.60482C12.5339 2.29226 12.11 2.11667 11.668 2.11667H8.33464C7.89261 2.11667 7.46869 2.29226 7.15612 2.60482C6.84356 2.91738 6.66797 3.34131 6.66797 3.78334V17.1167" stroke="currentColor" stroke-width="1.66667" stroke-linecap="round" stroke-linejoin="round"/>
<path id="Vector_2" d="M16.668 5.45001H3.33464C2.41416 5.45001 1.66797 6.1962 1.66797 7.11668V15.45C1.66797 16.3705 2.41416 17.1167 3.33464 17.1167H16.668C17.5884 17.1167 18.3346 16.3705 18.3346 15.45V7.11668C18.3346 6.1962 17.5884 5.45001 16.668 5.45001Z" stroke="currentColor" stroke-width="1.66667" stroke-linecap="round" stroke-linejoin="round"/>
</g>
</svg>
