<svg preserveAspectRatio="none" width="100%" height="100%" overflow="visible" style="display: block;" viewBox="0 0 12 12" fill="none" xmlns="http://www.w3.org/2000/svg">
<g id="SVG">
<path id="Vector" d="M6 5H6.005" stroke="currentColor" stroke-linecap="round" stroke-linejoin="round"/>
<path id="Vector_2" d="M6 7H6.005" stroke="currentColor" stroke-linecap="round" stroke-linejoin="round"/>
<path id="Vector_3" d="M6 3H6.005" stroke="currentColor" stroke-linecap="round" stroke-linejoin="round"/>
<path id="Vector_4" d="M8 5H8.005" stroke="currentColor" stroke-linecap="round" stroke-linejoin="round"/>
<path id="Vector_5" d="M8 7H8.005" stroke="currentColor" stroke-linecap="round" stroke-linejoin="round"/>
<path id="Vector_6" d="M8 3H8.005" stroke="currentColor" stroke-linecap="round" stroke-linejoin="round"/>
<path id="Vector_7" d="M4 5H4.005" stroke="currentColor" stroke-linecap="round" stroke-linejoin="round"/>
<path id="Vector_8" d="M4 7H4.005" stroke="currentColor" stroke-linecap="round" stroke-linejoin="round"/>
<path id="Vector_9" d="M4 3H4.005" stroke="currentColor" stroke-linecap="round" stroke-linejoin="round"/>
<path id="Vector_10" d="M4.5 11V9.5C4.5 9.36739 4.55268 9.24021 4.64645 9.14645C4.74021 9.05268 4.86739 9 5 9H7C7.13261 9 7.25979 9.05268 7.35355 9.14645C7.44732 9.24021 7.5 9.36739 7.5 9.5V11" stroke="currentColor" stroke-linecap="round" stroke-linejoin="round"/>
<path id="Vector_11" d="M9 1H3C2.44772 1 2 1.44772 2 2V10C2 10.5523 2.44772 11 3 11H9C9.55228 11 10 10.5523 10 10V2C10 1.44772 9.55228 1 9 1Z" stroke="currentColor" stroke-linecap="round" stroke-linejoin="round"/>
</g>
</svg>
