<svg preserveAspectRatio="none"  viewBox="0 0 20 20" fill="none" xmlns="http://www.w3.org/2000/svg">
<g id="SVG">
<path id="Vector" d="M16.6673 8.33366C16.6673 12.4945 12.0515 16.8278 10.5015 18.1662C10.3571 18.2747 10.1813 18.3335 10.0007 18.3335C9.81999 18.3335 9.64421 18.2747 9.49982 18.1662C7.94982 16.8278 3.33398 12.4945 3.33398 8.33366C3.33398 6.56555 4.03636 4.86986 5.28661 3.61961C6.53685 2.36937 8.23254 1.66699 10.0007 1.66699C11.7688 1.66699 13.4645 2.36937 14.7147 3.61961C15.9649 4.86986 16.6673 6.56555 16.6673 8.33366Z" stroke="currentColor" stroke-width="1.66667" stroke-linecap="round" stroke-linejoin="round"/>
<path id="Vector_2" d="M10 10.833C11.3807 10.833 12.5 9.71372 12.5 8.33301C12.5 6.9523 11.3807 5.83301 10 5.83301C8.61929 5.83301 7.5 6.9523 7.5 8.33301C7.5 9.71372 8.61929 10.833 10 10.833Z" stroke="currentColor" stroke-width="1.66667" stroke-linecap="round" stroke-linejoin="round"/>
</g>
</svg>
