<svg preserveAspectRatio="none" width="100%" height="100%" overflow="visible" style="display: block;" viewBox="0 0 40 40" fill="none" xmlns="http://www.w3.org/2000/svg">
<g id="SVG">
<path id="Vector" stroke="black" d="M35 26.6667H28.3333C27.4129 26.6667 26.6667 27.4129 26.6667 28.3333V35C26.6667 35.9205 27.4129 36.6667 28.3333 36.6667H35C35.9205 36.6667 36.6667 35.9205 36.6667 35V28.3333C36.6667 27.4129 35.9205 26.6667 35 26.6667Z" stroke="black" stroke-width="3.33333" stroke-linecap="round" stroke-linejoin="round"/>
<path id="Vector_2" stroke="black" d="M11.6667 26.6667H5C4.07953 26.6667 3.33333 27.4129 3.33333 28.3333V35C3.33333 35.9205 4.07953 36.6667 5 36.6667H11.6667C12.5871 36.6667 13.3333 35.9205 13.3333 35V28.3333C13.3333 27.4129 12.5871 26.6667 11.6667 26.6667Z" stroke="black" stroke-width="3.33333" stroke-linecap="round" stroke-linejoin="round"/>
<path id="Vector_3" stroke="black" d="M23.3333 3.33333H16.6667C15.7462 3.33333 15 4.07953 15 5V11.6667C15 12.5871 15.7462 13.3333 16.6667 13.3333H23.3333C24.2538 13.3333 25 12.5871 25 11.6667V5C25 4.07953 24.2538 3.33333 23.3333 3.33333Z" stroke="black" stroke-width="3.33333" stroke-linecap="round" stroke-linejoin="round"/>
<path id="Vector_4" stroke="black" d="M8.33333 26.6667V21.6667C8.33333 21.2246 8.50893 20.8007 8.82149 20.4882C9.13405 20.1756 9.55797 20 10 20H30C30.442 20 30.866 20.1756 31.1785 20.4882C31.4911 20.8007 31.6667 21.2246 31.6667 21.6667V26.6667" stroke="black" stroke-width="3.33333" stroke-linecap="round" stroke-linejoin="round"/>
<path id="Vector_5" stroke="black" d="M20 20V13.3333" stroke="black" stroke-width="3.33333" stroke-linecap="round" stroke-linejoin="round"/>
</g>
</svg>
