<svg preserveAspectRatio="none" width="100%" height="100%" overflow="visible" style="display: block;" viewBox="0 0 40 40" fill="none" xmlns="http://www.w3.org/2000/svg">
<g id="SVG">
<path id="Vector" stroke="black" d="M15 5H6.66667C5.74619 5 5 5.74619 5 6.66667V18.3333C5 19.2538 5.74619 20 6.66667 20H15C15.9205 20 16.6667 19.2538 16.6667 18.3333V6.66667C16.6667 5.74619 15.9205 5 15 5Z" stroke="black" stroke-width="3.33333" stroke-linecap="round" stroke-linejoin="round"/>
<path id="Vector_2" stroke="black" d="M33.3333 5H25C24.0795 5 23.3333 5.74619 23.3333 6.66667V11.6667C23.3333 12.5871 24.0795 13.3333 25 13.3333H33.3333C34.2538 13.3333 35 12.5871 35 11.6667V6.66667C35 5.74619 34.2538 5 33.3333 5Z" stroke="black" stroke-width="3.33333" stroke-linecap="round" stroke-linejoin="round"/>
<path id="Vector_3" stroke="black" d="M33.3333 20H25C24.0795 20 23.3333 20.7462 23.3333 21.6667V33.3333C23.3333 34.2538 24.0795 35 25 35H33.3333C34.2538 35 35 34.2538 35 33.3333V21.6667C35 20.7462 34.2538 20 33.3333 20Z" stroke="black" stroke-width="3.33333" stroke-linecap="round" stroke-linejoin="round"/>
<path id="Vector_4" stroke="black" d="M15 26.6667H6.66667C5.74619 26.6667 5 27.4129 5 28.3333V33.3333C5 34.2538 5.74619 35 6.66667 35H15C15.9205 35 16.6667 34.2538 16.6667 33.3333V28.3333C16.6667 27.4129 15.9205 26.6667 15 26.6667Z" stroke="black" stroke-width="3.33333" stroke-linecap="round" stroke-linejoin="round"/>
</g>
</svg>
