<svg width="16" height="16" viewBox="0 0 16 16" fill="none" xmlns="http://www.w3.org/2000/svg">
<path d="M2 4H14" stroke="currentColor" stroke-width="1.33333" stroke-linecap="round" stroke-linejoin="round"/>
<path d="M6.66667 4V2.66667C6.66667 2.31305 6.80714 1.97391 7.05719 1.72386C7.30724 1.47381 7.64638 1.33333 8 1.33333C8.35362 1.33333 8.69276 1.47381 8.94281 1.72386C9.19286 1.97391 9.33333 2.31305 9.33333 2.66667V4" stroke="currentColor" stroke-width="1.33333" stroke-linecap="round" stroke-linejoin="round"/>
<path d="M12.6667 4V13.3333C12.6667 13.687 12.5262 14.0261 12.2761 14.2761C12.0261 14.5262 11.687 14.6667 11.3333 14.6667H4.66667C4.31305 14.6667 3.97391 14.5262 3.72386 14.2761C3.47381 14.0261 3.33333 13.687 3.33333 13.3333V4" stroke="currentColor" stroke-width="1.33333" stroke-linecap="round" stroke-linejoin="round"/>
<path d="M6.66667 7.33333V11.3333" stroke="currentColor" stroke-width="1.33333" stroke-linecap="round" stroke-linejoin="round"/>
<path d="M9.33333 7.33333V11.3333" stroke="currentColor" stroke-width="1.33333" stroke-linecap="round" stroke-linejoin="round"/>
</svg>
