<svg preserveAspectRatio="none" width="100%" height="100%" overflow="visible" style="display: block;" viewBox="0 0 20 20" fill="none" xmlns="http://www.w3.org/2000/svg">
<g id="SVG">
<path id="Vector" d="M4.9987 18.3334C4.55667 18.3334 4.13275 18.1578 3.82019 17.8452C3.50763 17.5326 3.33203 17.1087 3.33203 16.6667V3.33336C3.33203 2.89133 3.50763 2.46741 3.82019 2.15484C4.13275 1.84228 4.55667 1.66669 4.9987 1.66669H11.6654C11.9292 1.66626 12.1904 1.71802 12.4341 1.819C12.6778 1.91997 12.8992 2.06816 13.0854 2.25502L16.0754 5.24502C16.2627 5.43128 16.4113 5.65281 16.5126 5.89682C16.6139 6.14084 16.6658 6.4025 16.6654 6.66669V16.6667C16.6654 17.1087 16.4898 17.5326 16.1772 17.8452C15.8646 18.1578 15.4407 18.3334 14.9987 18.3334H4.9987Z" stroke="currentColor" stroke-width="1.66667" stroke-linecap="round" stroke-linejoin="round"/>
<path id="Vector_2" d="M11.668 1.66669V5.83335C11.668 6.05437 11.7558 6.26633 11.912 6.42261C12.0683 6.57889 12.2803 6.66669 12.5013 6.66669H16.668" stroke="currentColor" stroke-width="1.66667" stroke-linecap="round" stroke-linejoin="round"/>
<path id="Vector_3" d="M8.33464 7.5H6.66797" stroke="currentColor" stroke-width="1.66667" stroke-linecap="round" stroke-linejoin="round"/>
<path id="Vector_4" d="M13.3346 10.8333H6.66797" stroke="currentColor" stroke-width="1.66667" stroke-linecap="round" stroke-linejoin="round"/>
<path id="Vector_5" d="M13.3346 14.1667H6.66797" stroke="currentColor" stroke-width="1.66667" stroke-linecap="round" stroke-linejoin="round"/>
</g>
</svg>
