<svg preserveAspectRatio="none" width="100%" height="100%" overflow="visible" style="display: block;" viewBox="0 0 16 16" fill="none" xmlns="http://www.w3.org/2000/svg">
<g id="SVG">
<path id="Vector" d="M8 6.66667H8.00667" stroke="black" stroke-width="1.33333" stroke-linecap="round" stroke-linejoin="round"/>
<path id="Vector_2" d="M8 9.33333H8.00667" stroke="black" stroke-width="1.33333" stroke-linecap="round" stroke-linejoin="round"/>
<path id="Vector_3" d="M8 4H8.00667" stroke="black" stroke-width="1.33333" stroke-linecap="round" stroke-linejoin="round"/>
<path id="Vector_4" d="M10.6667 6.66667H10.6733" stroke="black" stroke-width="1.33333" stroke-linecap="round" stroke-linejoin="round"/>
<path id="Vector_5" d="M10.6667 9.33333H10.6733" stroke="black" stroke-width="1.33333" stroke-linecap="round" stroke-linejoin="round"/>
<path id="Vector_6" d="M10.6667 4H10.6733" stroke="black" stroke-width="1.33333" stroke-linecap="round" stroke-linejoin="round"/>
<path id="Vector_7" d="M5.33333 6.66667H5.34" stroke="black" stroke-width="1.33333" stroke-linecap="round" stroke-linejoin="round"/>
<path id="Vector_8" d="M5.33333 9.33333H5.34" stroke="black" stroke-width="1.33333" stroke-linecap="round" stroke-linejoin="round"/>
<path id="Vector_9" d="M5.33333 4H5.34" stroke="black" stroke-width="1.33333" stroke-linecap="round" stroke-linejoin="round"/>
<path id="Vector_10" d="M6 14.6667V12.6667C6 12.4899 6.07024 12.3203 6.19526 12.1953C6.32029 12.0702 6.48986 12 6.66667 12H9.33333C9.51014 12 9.67971 12.0702 9.80474 12.1953C9.92976 12.3203 10 12.4899 10 12.6667V14.6667" stroke="black" stroke-width="1.33333" stroke-linecap="round" stroke-linejoin="round"/>
<path id="Vector_11" d="M12 1.33333H4C3.26362 1.33333 2.66667 1.93029 2.66667 2.66667V13.3333C2.66667 14.0697 3.26362 14.6667 4 14.6667H12C12.7364 14.6667 13.3333 14.0697 13.3333 13.3333V2.66667C13.3333 1.93029 12.7364 1.33333 12 1.33333Z" stroke="black" stroke-width="1.33333" stroke-linecap="round" stroke-linejoin="round"/>
</g>
</svg>
