<svg preserveAspectRatio="none" width="100%" height="100%" overflow="visible" style="display: block;" viewBox="0 0 40 40" fill="none" xmlns="http://www.w3.org/2000/svg">
<g id="SVG">
<path id="Vector" stroke="black" d="M30.3767 8.71L26.1767 4.51C25.8039 4.13587 25.3607 3.83926 24.8727 3.63731C24.3847 3.43535 23.8615 3.33204 23.3333 3.33333H10C9.11595 3.33333 8.2681 3.68452 7.64298 4.30964C7.01786 4.93477 6.66667 5.78261 6.66667 6.66667V33.3333C6.66667 34.2174 7.01786 35.0652 7.64298 35.6904C8.2681 36.3155 9.11595 36.6667 10 36.6667H30C30.8841 36.6667 31.7319 36.3155 32.357 35.6904C32.9821 35.0652 33.3333 34.2174 33.3333 33.3333V32.7483" stroke="black" stroke-width="3.33333" stroke-linecap="round" stroke-linejoin="round"/>
<path id="Vector_2" stroke="black" d="M35.63 21.0433C36.2939 20.3794 36.6669 19.4789 36.6669 18.54C36.6669 17.6011 36.2939 16.7006 35.63 16.0367C34.9661 15.3727 34.0656 14.9998 33.1267 14.9998C32.1877 14.9998 31.2873 15.3727 30.6233 16.0367L23.94 22.7233C23.5437 23.1194 23.2537 23.6089 23.0967 24.1467L21.7017 28.93C21.6598 29.0734 21.6573 29.2254 21.6944 29.3702C21.7315 29.5149 21.8068 29.647 21.9124 29.7526C22.018 29.8582 22.1501 29.9335 22.2948 29.9706C22.4396 30.0077 22.5916 30.0052 22.735 29.9633L27.5183 28.5683C28.0561 28.4113 28.5456 28.1213 28.9417 27.725L35.63 21.0433Z" stroke="black" stroke-width="3.33333" stroke-linecap="round" stroke-linejoin="round"/>
<path id="Vector_3" stroke="black" d="M13.3333 30H15" stroke="black" stroke-width="3.33333" stroke-linecap="round" stroke-linejoin="round"/>
</g>
</svg>
