<svg preserveAspectRatio="none" width="100%" height="100%" overflow="visible" style="display: block;" viewBox="0 0 16 16" fill="none" xmlns="http://www.w3.org/2000/svg">
<g id="SVG">
<path id="Vector" d="M10.6667 13.3333V2.66667C10.6667 2.31304 10.5262 1.97391 10.2761 1.72386C10.0261 1.47381 9.68696 1.33333 9.33333 1.33333H6.66667C6.31304 1.33333 5.97391 1.47381 5.72386 1.72386C5.47381 1.97391 5.33333 2.31304 5.33333 2.66667V13.3333" stroke="currentColor" stroke-width="1.33333" stroke-linecap="round" stroke-linejoin="round"/>
<path id="Vector_2" d="M13.3333 4H2.66667C1.93029 4 1.33333 4.59695 1.33333 5.33333V12C1.33333 12.7364 1.93029 13.3333 2.66667 13.3333H13.3333C14.0697 13.3333 14.6667 12.7364 14.6667 12V5.33333C14.6667 4.59695 14.0697 4 13.3333 4Z" stroke="currentColor" stroke-width="1.33333" stroke-linecap="round" stroke-linejoin="round"/>
</g>
</svg>
