<svg preserveAspectRatio="none" width="100%" height="100%" overflow="visible" style="display: block;" viewBox="0 0 20 20" fill="none" xmlns="http://www.w3.org/2000/svg">
<g id="SVG">
<path id="Vector" d="M8.33301 10H11.6663" stroke="currentColor" stroke-width="1.66667" stroke-linecap="round" stroke-linejoin="round"/>
<path id="Vector_2" d="M8.33301 6.66675H11.6663" stroke="currentColor" stroke-width="1.66667" stroke-linecap="round" stroke-linejoin="round"/>
<path id="Vector_3" d="M11.6663 17.4999V14.9999C11.6663 14.5579 11.4907 14.134 11.1782 13.8214C10.8656 13.5088 10.4417 13.3333 9.99967 13.3333C9.55765 13.3333 9.13372 13.5088 8.82116 13.8214C8.5086 14.134 8.33301 14.5579 8.33301 14.9999V17.4999" stroke="currentColor" stroke-width="1.66667" stroke-linecap="round" stroke-linejoin="round"/>
<path id="Vector_4" d="M5.00033 8.33325H3.33366C2.89163 8.33325 2.46771 8.50885 2.15515 8.82141C1.84259 9.13397 1.66699 9.55789 1.66699 9.99992V15.8333C1.66699 16.2753 1.84259 16.6992 2.15515 17.0118C2.46771 17.3243 2.89163 17.4999 3.33366 17.4999H16.667C17.109 17.4999 17.5329 17.3243 17.8455 17.0118C18.1581 16.6992 18.3337 16.2753 18.3337 15.8333V7.49992C18.3337 7.05789 18.1581 6.63397 17.8455 6.32141C17.5329 6.00885 17.109 5.83325 16.667 5.83325H15.0003" stroke="currentColor" stroke-width="1.66667" stroke-linecap="round" stroke-linejoin="round"/>
<path id="Vector_5" d="M5 17.5V4.16667C5 3.72464 5.17559 3.30072 5.48816 2.98816C5.80072 2.67559 6.22464 2.5 6.66667 2.5H13.3333C13.7754 2.5 14.1993 2.67559 14.5118 2.98816C14.8244 3.30072 15 3.72464 15 4.16667V17.5" stroke="currentColor" stroke-width="1.66667" stroke-linecap="round" stroke-linejoin="round"/>
</g>
</svg>
