<svg preserveAspectRatio="none" width="100%" height="100%" overflow="visible" style="display: block;" viewBox="0 0 20 20" fill="none" xmlns="http://www.w3.org/2000/svg">
<g id="SVG">
<path stroke="black" id="Vector" d="M2.475 10.7667C2.22897 10.9145 2.02527 11.1233 1.88366 11.373C1.74204 11.6226 1.6673 11.9046 1.66667 12.1917V14.8917C1.6673 15.1787 1.74204 15.4607 1.88366 15.7103C2.02527 15.96 2.22897 16.1688 2.475 16.3167L4.975 17.8167C5.23422 17.9724 5.53093 18.0547 5.83333 18.0547C6.13574 18.0547 6.43245 17.9724 6.69167 17.8167L10 15.8333V11.25L5.83333 8.75L2.475 10.7667Z" stroke="black" stroke-width="1.66667" stroke-linecap="round" stroke-linejoin="round"/>
<path stroke="black" id="Vector_2" d="M5.83333 13.75L1.88333 11.375" stroke="black" stroke-width="1.66667" stroke-linecap="round" stroke-linejoin="round"/>
<path stroke="black" id="Vector_3" d="M5.83333 13.75L10 11.25" stroke="black" stroke-width="1.66667" stroke-linecap="round" stroke-linejoin="round"/>
<path stroke="black" id="Vector_4" d="M5.83333 13.75V18.0583" stroke="black" stroke-width="1.66667" stroke-linecap="round" stroke-linejoin="round"/>
<path stroke="black" id="Vector_5" d="M10 11.25V15.8333L13.3083 17.8167C13.5676 17.9724 13.8643 18.0547 14.1667 18.0547C14.4691 18.0547 14.7658 17.9724 15.025 17.8167L17.525 16.3167C17.771 16.1688 17.9747 15.96 18.1163 15.7103C18.258 15.4607 18.3327 15.1787 18.3333 14.8917V12.1917C18.3327 11.9046 18.258 11.6226 18.1163 11.373C17.9747 11.1233 17.771 10.9145 17.525 10.7667L14.1667 8.75L10 11.25Z" stroke="black" stroke-width="1.66667" stroke-linecap="round" stroke-linejoin="round"/>
<path stroke="black" id="Vector_6" d="M14.1667 13.75L10 11.25" stroke="black" stroke-width="1.66667" stroke-linecap="round" stroke-linejoin="round"/>
<path stroke="black" id="Vector_7" d="M14.1667 13.75L18.1167 11.375" stroke="black" stroke-width="1.66667" stroke-linecap="round" stroke-linejoin="round"/>
<path stroke="black" id="Vector_8" d="M14.1667 13.75V18.0583" stroke="black" stroke-width="1.66667" stroke-linecap="round" stroke-linejoin="round"/>
<path stroke="black" id="Vector_9" d="M6.64167 3.68333C6.39563 3.83115 6.19194 4.04 6.05032 4.28966C5.90871 4.53931 5.83396 4.82131 5.83333 5.10833V8.75L10 11.25L14.1667 8.75V5.10833C14.166 4.82131 14.0913 4.53931 13.9497 4.28966C13.8081 4.04 13.6044 3.83115 13.3583 3.68333L10.8583 2.18333C10.5991 2.02759 10.3024 1.94532 10 1.94532C9.69759 1.94532 9.40089 2.02759 9.14167 2.18333L6.64167 3.68333Z" stroke="black" stroke-width="1.66667" stroke-linecap="round" stroke-linejoin="round"/>
<path stroke="black" id="Vector_10" d="M10 6.66667L6.05 4.29167" stroke="black" stroke-width="1.66667" stroke-linecap="round" stroke-linejoin="round"/>
<path stroke="black" id="Vector_11" d="M10 6.66667L13.95 4.29167" stroke="black" stroke-width="1.66667" stroke-linecap="round" stroke-linejoin="round"/>
<path stroke="black" id="Vector_12" d="M10 11.25V6.66667" stroke="black" stroke-width="1.66667" stroke-linecap="round" stroke-linejoin="round"/>
</g>
</svg>
