<svg preserveAspectRatio="none" width="100%" height="100%" overflow="visible" style="display: block;" viewBox="0 0 20 20" fill="none" xmlns="http://www.w3.org/2000/svg">
<g id="SVG">
<path id="Vector" stroke="black" d="M7.99042 3.50316C8.03595 3.02422 8.2584 2.57945 8.61433 2.25575C8.97025 1.93206 9.43407 1.75269 9.91517 1.75269C10.3963 1.75269 10.8601 1.93206 11.216 2.25575C11.5719 2.57945 11.7944 3.02422 11.8399 3.50316C11.8673 3.81255 11.9688 4.1108 12.1358 4.37266C12.3029 4.63451 12.5305 4.85227 12.7996 5.00749C13.0686 5.16272 13.3711 5.25085 13.6814 5.26441C13.9917 5.27798 14.3007 5.21658 14.5822 5.08543C15.0194 4.88695 15.5148 4.85823 15.972 5.00486C16.4292 5.15149 16.8155 5.46298 17.0556 5.87872C17.2958 6.29445 17.3727 6.78467 17.2714 7.25398C17.1701 7.72329 16.8977 8.13811 16.5074 8.4177C16.2532 8.59604 16.0458 8.83298 15.9025 9.10846C15.7593 9.38395 15.6845 9.68988 15.6845 10.0004C15.6845 10.3109 15.7593 10.6168 15.9025 10.8923C16.0458 11.1678 16.2532 11.4047 16.5074 11.5831C16.8977 11.8626 17.1701 12.2775 17.2714 12.7468C17.3727 13.2161 17.2958 13.7063 17.0556 14.122C16.8155 14.5378 16.4292 14.8493 15.972 14.9959C15.5148 15.1425 15.0194 15.1138 14.5822 14.9153C14.3007 14.7842 13.9917 14.7228 13.6814 14.7363C13.3711 14.7499 13.0686 14.838 12.7996 14.9933C12.5305 15.1485 12.3029 15.3662 12.1358 15.6281C11.9688 15.89 11.8673 16.1882 11.8399 16.4976C11.7944 16.9765 11.5719 17.4213 11.216 17.745C10.8601 18.0687 10.3963 18.2481 9.91517 18.2481C9.43407 18.2481 8.97025 18.0687 8.61433 17.745C8.2584 17.4213 8.03595 16.9765 7.99042 16.4976C7.96311 16.1881 7.86161 15.8897 7.69451 15.6278C7.52742 15.3658 7.29966 15.148 7.03051 14.9928C6.76137 14.8375 6.45878 14.7494 6.14836 14.7359C5.83795 14.7225 5.52886 14.784 5.24727 14.9153C4.81009 15.1138 4.31471 15.1425 3.85752 14.9959C3.40033 14.8493 3.01406 14.5378 2.77388 14.122C2.5337 13.7063 2.45679 13.2161 2.55813 12.7468C2.65946 12.2775 2.93179 11.8626 3.32211 11.5831C3.57628 11.4047 3.78376 11.1678 3.927 10.8923C4.07024 10.6168 4.14502 10.3109 4.14502 10.0004C4.14502 9.68988 4.07024 9.38395 3.927 9.10846C3.78376 8.83298 3.57628 8.59604 3.32211 8.4177C2.93234 8.13796 2.66049 7.72331 2.5594 7.25432C2.45831 6.78533 2.5352 6.29551 2.77512 5.88004C3.01504 5.46458 3.40086 5.15316 3.85759 5.00631C4.31433 4.85945 4.80935 4.88765 5.24645 5.08543C5.528 5.21658 5.837 5.27798 6.14731 5.26441C6.45761 5.25085 6.76008 5.16272 7.02911 5.00749C7.29814 4.85227 7.52582 4.63451 7.69286 4.37266C7.85991 4.1108 7.96141 3.81255 7.98877 3.50316" stroke="black" stroke-width="1.6525" stroke-linecap="round" stroke-linejoin="round"/>
<path id="Vector_2" stroke="black" d="M9.91476 12.4792C11.2836 12.4792 12.3933 11.3696 12.3933 10.0007C12.3933 8.63188 11.2836 7.52221 9.91476 7.52221C8.54592 7.52221 7.43625 8.63188 7.43625 10.0007C7.43625 11.3696 8.54592 12.4792 9.91476 12.4792Z" stroke="black" stroke-width="1.6525" stroke-linecap="round" stroke-linejoin="round"/>
</g>
</svg>
