<svg preserveAspectRatio="none" width="100%" height="100%" overflow="visible" style="display: block;" viewBox="0 0 40 40" fill="none" xmlns="http://www.w3.org/2000/svg">
<g id="SVG">
<path id="Vector" d="M25 20H16.6667" stroke="var(--stroke-0, white)" stroke-width="3.33333" stroke-linecap="round" stroke-linejoin="round"/>
<path id="Vector_2" d="M25 13.3333H16.6667" stroke="var(--stroke-0, white)" stroke-width="3.33333" stroke-linecap="round" stroke-linejoin="round"/>
<path id="Vector_3" d="M31.6667 28.3333V8.33333C31.6667 7.44928 31.3155 6.60143 30.6904 5.97631C30.0652 5.35119 29.2174 5 28.3333 5H6.66667" stroke="var(--stroke-0, white)" stroke-width="3.33333" stroke-linecap="round" stroke-linejoin="round"/>
<path id="Vector_4" d="M13.3333 35H33.3333C34.2174 35 35.0652 34.6488 35.6904 34.0237C36.3155 33.3986 36.6667 32.5507 36.6667 31.6667V30C36.6667 29.558 36.4911 29.134 36.1785 28.8215C35.866 28.5089 35.442 28.3333 35 28.3333H18.3333C17.8913 28.3333 17.4674 28.5089 17.1548 28.8215C16.8423 29.134 16.6667 29.558 16.6667 30V31.6667C16.6667 32.5507 16.3155 33.3986 15.6904 34.0237C15.0652 34.6488 14.2174 35 13.3333 35ZM13.3333 35C12.4493 35 11.6014 34.6488 10.9763 34.0237C10.3512 33.3986 10 32.5507 10 31.6667V8.33333C10 7.44928 9.64881 6.60143 9.02369 5.97631C8.39857 5.35119 7.55072 5 6.66667 5C5.78261 5 4.93477 5.35119 4.30964 5.97631C3.68452 6.60143 3.33333 7.44928 3.33333 8.33333V11.6667C3.33333 12.1087 3.50893 12.5326 3.82149 12.8452C4.13405 13.1577 4.55797 13.3333 5 13.3333H10" stroke="var(--stroke-0, white)" stroke-width="3.33333" stroke-linecap="round" stroke-linejoin="round"/>
</g>
</svg>
