<svg preserveAspectRatio="none" width="100%" height="100%" overflow="visible" style="display: block;" viewBox="0 0 20 20" fill="none" xmlns="http://www.w3.org/2000/svg">
<g id="SVG">
<path id="Vector" d="M16.6654 8.33335C16.6654 12.4942 12.0495 16.8275 10.4995 18.1659C10.3551 18.2744 10.1794 18.3331 9.9987 18.3331C9.81803 18.3331 9.64226 18.2744 9.49786 18.1659C7.94786 16.8275 3.33203 12.4942 3.33203 8.33335C3.33203 6.56524 4.03441 4.86955 5.28465 3.61931C6.5349 2.36907 8.23059 1.66669 9.9987 1.66669C11.7668 1.66669 13.4625 2.36907 14.7127 3.61931C15.963 4.86955 16.6654 6.56524 16.6654 8.33335Z" stroke="currentColor" stroke-width="1.66667" stroke-linecap="round" stroke-linejoin="round"/>
<path id="Vector_2" d="M10 10.8333C11.3807 10.8333 12.5 9.71405 12.5 8.33333C12.5 6.95262 11.3807 5.83333 10 5.83333C8.61929 5.83333 7.5 6.95262 7.5 8.33333C7.5 9.71405 8.61929 10.8333 10 10.8333Z" stroke="currentColor" stroke-width="1.66667" stroke-linecap="round" stroke-linejoin="round"/>
</g>
</svg>
