<svg preserveAspectRatio="none" width="100%" height="100%" overflow="visible" style="display: block;" viewBox="0 0 16 16" fill="none" xmlns="http://www.w3.org/2000/svg">
<g id="SVG">
<path id="Vector" d="M13.3346 6.66665C13.3346 9.99531 9.64197 13.462 8.40197 14.5326C8.28645 14.6195 8.14583 14.6665 8.0013 14.6665C7.85677 14.6665 7.71615 14.6195 7.60064 14.5326C6.36064 13.462 2.66797 9.99531 2.66797 6.66665C2.66797 5.25216 3.22987 3.8956 4.23007 2.89541C5.23026 1.89522 6.58681 1.33331 8.0013 1.33331C9.41579 1.33331 10.7723 1.89522 11.7725 2.89541C12.7727 3.8956 13.3346 5.25216 13.3346 6.66665Z" stroke="currentColor" stroke-width="1.33333" stroke-linecap="round" stroke-linejoin="round"/>
<path id="Vector_2" d="M8 8.66667C9.10457 8.66667 10 7.77124 10 6.66667C10 5.5621 9.10457 4.66667 8 4.66667C6.89543 4.66667 6 5.5621 6 6.66667C6 7.77124 6.89543 8.66667 8 8.66667Z" stroke="currentColor" stroke-width="1.33333" stroke-linecap="round" stroke-linejoin="round"/>
</g>
</svg>
