<svg preserveAspectRatio="none" width="100%" height="100%" overflow="visible" style="display: block;" viewBox="0 0 20 20" fill="none" xmlns="http://www.w3.org/2000/svg">
<g id="SVG">
<path id="Vector" d="M17.4997 13.3333H14.1663C13.7061 13.3333 13.333 13.7063 13.333 14.1666V17.4999C13.333 17.9602 13.7061 18.3333 14.1663 18.3333H17.4997C17.9599 18.3333 18.333 17.9602 18.333 17.4999V14.1666C18.333 13.7063 17.9599 13.3333 17.4997 13.3333Z" stroke="currentColor" stroke-width="1.66667" stroke-linecap="round" stroke-linejoin="round"/>
<path id="Vector_2" d="M5.83366 13.3333H2.50033C2.04009 13.3333 1.66699 13.7063 1.66699 14.1666V17.4999C1.66699 17.9602 2.04009 18.3333 2.50033 18.3333H5.83366C6.2939 18.3333 6.66699 17.9602 6.66699 17.4999V14.1666C6.66699 13.7063 6.2939 13.3333 5.83366 13.3333Z" stroke="currentColor" stroke-width="1.66667" stroke-linecap="round" stroke-linejoin="round"/>
<path id="Vector_3" d="M11.6667 1.66667H8.33333C7.8731 1.66667 7.5 2.03976 7.5 2.5V5.83333C7.5 6.29357 7.8731 6.66667 8.33333 6.66667H11.6667C12.1269 6.66667 12.5 6.29357 12.5 5.83333V2.5C12.5 2.03976 12.1269 1.66667 11.6667 1.66667Z" stroke="currentColor" stroke-width="1.66667" stroke-linecap="round" stroke-linejoin="round"/>
<path id="Vector_4" d="M4.16699 13.3333V10.8333C4.16699 10.6123 4.25479 10.4004 4.41107 10.2441C4.56735 10.0878 4.77931 10 5.00033 10H15.0003C15.2213 10 15.4333 10.0878 15.5896 10.2441C15.7459 10.4004 15.8337 10.6123 15.8337 10.8333V13.3333" stroke="currentColor" stroke-width="1.66667" stroke-linecap="round" stroke-linejoin="round"/>
<path id="Vector_5" d="M10 10V6.66667" stroke="currentColor" stroke-width="1.66667" stroke-linecap="round" stroke-linejoin="round"/>
</g>
</svg>
