<svg preserveAspectRatio="none" width="100%" height="100%" overflow="visible" style="display: block;" viewBox="0 0 16 16" fill="none" xmlns="http://www.w3.org/2000/svg">
<g id="SVG">
<path id="Vector" stroke="black" d="M13.2822 10.53H10.7523C10.403 10.53 10.1198 10.8131 10.1198 11.1624V13.6924C10.1198 14.0417 10.403 14.3249 10.7523 14.3249H13.2822C13.6316 14.3249 13.9147 14.0417 13.9147 13.6924V11.1624C13.9147 10.8131 13.6316 10.53 13.2822 10.53Z" stroke="black" stroke-width="1.265" stroke-linecap="round" stroke-linejoin="round"/>
<path id="Vector_2" stroke="black" d="M4.42741 10.53H1.89746C1.54815 10.53 1.26498 10.8131 1.26498 11.1624V13.6924C1.26498 14.0417 1.54815 14.3249 1.89746 14.3249H4.42741C4.77673 14.3249 5.0599 14.0417 5.0599 13.6924V11.1624C5.0599 10.8131 4.77673 10.53 4.42741 10.53Z" stroke="black" stroke-width="1.265" stroke-linecap="round" stroke-linejoin="round"/>
<path id="Vector_3" stroke="black" d="M8.85483 1.67513H6.32488C5.97556 1.67513 5.69239 1.9583 5.69239 2.30761V4.83756C5.69239 5.18688 5.97556 5.47005 6.32488 5.47005H8.85483C9.20414 5.47005 9.48731 5.18688 9.48731 4.83756V2.30761C9.48731 1.9583 9.20414 1.67513 8.85483 1.67513Z" stroke="black" stroke-width="1.265" stroke-linecap="round" stroke-linejoin="round"/>
<path id="Vector_4" stroke="black" d="M3.16244 10.5299V8.63249C3.16244 8.46474 3.22907 8.30387 3.34769 8.18525C3.4663 8.06664 3.62718 8 3.79493 8H11.3848C11.5525 8 11.7134 8.06664 11.832 8.18525C11.9506 8.30387 12.0173 8.46474 12.0173 8.63249V10.5299" stroke="black" stroke-width="1.265" stroke-linecap="round" stroke-linejoin="round"/>
<path id="Vector_5" stroke="black" d="M7.58985 8V5.47005" stroke="black" stroke-width="1.265" stroke-linecap="round" stroke-linejoin="round"/>
</g>
</svg>
