<svg preserveAspectRatio="none" width="100%" height="100%" overflow="visible" style="display: block;" viewBox="0 0 16 16" fill="none" xmlns="http://www.w3.org/2000/svg">
<g id="SVG">
<path id="Vector" d="M9.22003 11.0453C9.35772 11.1085 9.51283 11.123 9.65983 11.0863C9.80682 11.0496 9.93692 10.9639 10.0287 10.8433L10.2654 10.5333C10.3896 10.3677 10.5506 10.2333 10.7357 10.1407C10.9209 10.0482 11.125 9.99998 11.332 9.99998H13.332C13.6857 9.99998 14.0248 10.1405 14.2748 10.3905C14.5249 10.6406 14.6654 10.9797 14.6654 11.3333V13.3333C14.6654 13.6869 14.5249 14.0261 14.2748 14.2761C14.0248 14.5262 13.6857 14.6666 13.332 14.6666C10.1494 14.6666 7.09719 13.4024 4.84675 11.1519C2.59631 8.90149 1.33203 5.84924 1.33203 2.66665C1.33203 2.31302 1.47251 1.97389 1.72256 1.72384C1.9726 1.47379 2.31174 1.33331 2.66536 1.33331H4.66536C5.01899 1.33331 5.35812 1.47379 5.60817 1.72384C5.85822 1.97389 5.9987 2.31302 5.9987 2.66665V4.66665C5.9987 4.87364 5.9505 5.07779 5.85793 5.26293C5.76536 5.44807 5.63096 5.60912 5.46536 5.73331L5.15336 5.96731C5.03098 6.06076 4.94471 6.1937 4.90923 6.34355C4.87374 6.49339 4.89122 6.6509 4.9587 6.78931C5.86982 8.63989 7.36831 10.1365 9.22003 11.0453Z" stroke="currentColor" stroke-width="1.33333" stroke-linecap="round" stroke-linejoin="round"/>
</g>
</svg>
