<svg preserveAspectRatio="none" width="100%" height="100%" overflow="visible" style="display: block;" viewBox="0 0 40 40" fill="none" xmlns="http://www.w3.org/2000/svg">
<g id="SVG">
<path id="Vector" d="M16.1183 6.89333C16.2102 5.92723 16.6589 5.03007 17.3768 4.37713C18.0948 3.72419 19.0304 3.36238 20.0008 3.36238C20.9713 3.36238 21.9069 3.72419 22.6248 4.37713C23.3428 5.03007 23.7915 5.92723 23.8833 6.89333C23.9385 7.51742 24.1433 8.11903 24.4802 8.64723C24.8172 9.17543 25.2764 9.61468 25.8191 9.9278C26.3618 10.2409 26.9719 10.4187 27.5978 10.446C28.2238 10.4734 28.8471 10.3496 29.415 10.085C30.2969 9.68463 31.2961 9.6267 32.2183 9.92248C33.1405 10.2183 33.9197 10.8466 34.4042 11.6852C34.8887 12.5238 35.0438 13.5126 34.8394 14.4593C34.635 15.4059 34.0857 16.2427 33.2983 16.8067C32.7856 17.1664 32.3671 17.6443 32.0782 18.2C31.7893 18.7557 31.6384 19.3728 31.6384 19.9992C31.6384 20.6255 31.7893 21.2426 32.0782 21.7983C32.3671 22.354 32.7856 22.8319 33.2983 23.1917C34.0857 23.7556 34.635 24.5924 34.8394 25.539C35.0438 26.4857 34.8887 27.4746 34.4042 28.3132C33.9197 29.1518 33.1405 29.7801 32.2183 30.0759C31.2961 30.3716 30.2969 30.3137 29.415 29.9133C28.8471 29.6488 28.2238 29.5249 27.5978 29.5523C26.9719 29.5797 26.3618 29.7574 25.8191 30.0705C25.2764 30.3836 24.8172 30.8229 24.4802 31.3511C24.1433 31.8793 23.9385 32.4809 23.8833 33.105C23.7915 34.0711 23.3428 34.9683 22.6248 35.6212C21.9069 36.2741 20.9713 36.636 20.0008 36.636C19.0304 36.636 18.0948 36.2741 17.3768 35.6212C16.6589 34.9683 16.2102 34.0711 16.1183 33.105C16.0632 32.4807 15.8585 31.8788 15.5214 31.3505C15.1844 30.8221 14.725 30.3827 14.1821 30.0695C13.6392 29.7564 13.0288 29.5787 12.4026 29.5515C11.7765 29.5243 11.153 29.6484 10.585 29.9133C9.70315 30.3137 8.70388 30.3716 7.78167 30.0759C6.85946 29.7801 6.08029 29.1518 5.59581 28.3132C5.11132 27.4746 4.95619 26.4857 5.1606 25.539C5.36501 24.5924 5.91434 23.7556 6.70167 23.1917C7.21437 22.8319 7.63288 22.354 7.92181 21.7983C8.21075 21.2426 8.36159 20.6255 8.36159 19.9992C8.36159 19.3728 8.21075 18.7557 7.92181 18.2C7.63288 17.6443 7.21437 17.1664 6.70167 16.8067C5.91544 16.2424 5.36708 15.406 5.16317 14.46C4.95925 13.5139 5.11435 12.5259 5.59831 11.6879C6.08227 10.8498 6.86052 10.2216 7.78182 9.9254C8.70311 9.62917 9.70164 9.68606 10.5833 10.085C11.1513 10.3496 11.7746 10.4734 12.4005 10.446C13.0264 10.4187 13.6366 10.2409 14.1792 9.9278C14.7219 9.61468 15.1812 9.17543 15.5181 8.64723C15.8551 8.11903 16.0598 7.51742 16.115 6.89333" stroke="var(--stroke-0, white)" stroke-width="3.33333" stroke-linecap="round" stroke-linejoin="round"/>
<path id="Vector_2" d="M20 25C22.7614 25 25 22.7614 25 20C25 17.2386 22.7614 15 20 15C17.2386 15 15 17.2386 15 20C15 22.7614 17.2386 25 20 25Z" stroke="var(--stroke-0, white)" stroke-width="3.33333" stroke-linecap="round" stroke-linejoin="round"/>
</g>
</svg>
