<svg preserveAspectRatio="none" width="100%" height="100%" overflow="visible" style="display: block;" viewBox="0 0 16 16" fill="none" xmlns="http://www.w3.org/2000/svg">
<g id="SVG">
<path id="Vector" stroke="black" d="M14 10.6667H11.3333C10.9651 10.6667 10.6667 10.9651 10.6667 11.3333V14C10.6667 14.3682 10.9651 14.6667 11.3333 14.6667H14C14.3682 14.6667 14.6667 14.3682 14.6667 14V11.3333C14.6667 10.9651 14.3682 10.6667 14 10.6667Z" stroke="black" stroke-width="1.33333" stroke-linecap="round" stroke-linejoin="round"/>
<path id="Vector_2" stroke="black" d="M4.66667 10.6667H2C1.63181 10.6667 1.33333 10.9651 1.33333 11.3333V14C1.33333 14.3682 1.63181 14.6667 2 14.6667H4.66667C5.03486 14.6667 5.33333 14.3682 5.33333 14V11.3333C5.33333 10.9651 5.03486 10.6667 4.66667 10.6667Z" stroke="black" stroke-width="1.33333" stroke-linecap="round" stroke-linejoin="round"/>
<path id="Vector_3" stroke="black" d="M9.33333 1.33333H6.66667C6.29848 1.33333 6 1.63181 6 2V4.66667C6 5.03486 6.29848 5.33333 6.66667 5.33333H9.33333C9.70152 5.33333 10 5.03486 10 4.66667V2C10 1.63181 9.70152 1.33333 9.33333 1.33333Z" stroke="black" stroke-width="1.33333" stroke-linecap="round" stroke-linejoin="round"/>
<path id="Vector_4" stroke="black" d="M3.33333 10.6667V8.66667C3.33333 8.48986 3.40357 8.32029 3.5286 8.19526C3.65362 8.07024 3.82319 8 4 8H12C12.1768 8 12.3464 8.07024 12.4714 8.19526C12.5964 8.32029 12.6667 8.48986 12.6667 8.66667V10.6667" stroke="black" stroke-width="1.33333" stroke-linecap="round" stroke-linejoin="round"/>
<path id="Vector_5" stroke="black" d="M8 8V5.33333" stroke="black" stroke-width="1.33333" stroke-linecap="round" stroke-linejoin="round"/>
</g>
</svg>
