<svg preserveAspectRatio="none"  viewBox="0 0 20 20" fill="none" xmlns="http://www.w3.org/2000/svg">
<g id="SVG">
<path id="Vector" d="M12.1125 18.0721C12.1442 18.151 12.1992 18.2184 12.2702 18.2651C12.3413 18.3118 12.4249 18.3357 12.5099 18.3335C12.5949 18.3313 12.6772 18.3032 12.7457 18.2529C12.8143 18.2026 12.8658 18.1325 12.8934 18.0521L18.31 2.21879C18.3367 2.14495 18.3418 2.06504 18.3247 1.98842C18.3076 1.91179 18.2691 1.84161 18.2135 1.7861C18.158 1.73059 18.0879 1.69203 18.0112 1.67495C17.9346 1.65786 17.8547 1.66295 17.7809 1.68962L1.94752 7.10629C1.8671 7.13387 1.79704 7.18539 1.74675 7.25393C1.69645 7.32247 1.66833 7.40476 1.66615 7.48975C1.66398 7.57474 1.68785 7.65836 1.73457 7.72939C1.78129 7.80042 1.84862 7.85546 1.92752 7.88712L8.53585 10.5371C8.74476 10.6208 8.93456 10.7458 9.09382 10.9048C9.25309 11.0638 9.3785 11.2534 9.46252 11.4621L12.1125 18.0721Z" stroke="currentColor" stroke-width="1.66667" stroke-linecap="round" stroke-linejoin="round"/>
<path id="Vector_2" d="M18.2124 1.78906L9.0957 10.9049" stroke="currentColor" stroke-width="1.66667" stroke-linecap="round" stroke-linejoin="round"/>
</g>
</svg>
