<svg preserveAspectRatio="none" width="100%" height="100%" overflow="visible" style="display: block;" viewBox="0 0 32 32" fill="none" xmlns="http://www.w3.org/2000/svg">
<g id="SVG">
<path id="Vector" d="M28 21.3333H22.6667C21.9303 21.3333 21.3333 21.9303 21.3333 22.6667V28C21.3333 28.7364 21.9303 29.3333 22.6667 29.3333H28C28.7364 29.3333 29.3333 28.7364 29.3333 28V22.6667C29.3333 21.9303 28.7364 21.3333 28 21.3333Z" stroke="black" stroke-width="2.66667" stroke-linecap="round" stroke-linejoin="round"/>
<path id="Vector_2" d="M9.33333 21.3333H4C3.26362 21.3333 2.66667 21.9303 2.66667 22.6667V28C2.66667 28.7364 3.26362 29.3333 4 29.3333H9.33333C10.0697 29.3333 10.6667 28.7364 10.6667 28V22.6667C10.6667 21.9303 10.0697 21.3333 9.33333 21.3333Z" stroke="black" stroke-width="2.66667" stroke-linecap="round" stroke-linejoin="round"/>
<path id="Vector_3" d="M18.6667 2.66667H13.3333C12.597 2.66667 12 3.26362 12 4V9.33333C12 10.0697 12.597 10.6667 13.3333 10.6667H18.6667C19.403 10.6667 20 10.0697 20 9.33333V4C20 3.26362 19.403 2.66667 18.6667 2.66667Z" stroke="black" stroke-width="2.66667" stroke-linecap="round" stroke-linejoin="round"/>
<path id="Vector_4" d="M6.66667 21.3333V17.3333C6.66667 16.9797 6.80714 16.6406 7.05719 16.3905C7.30724 16.1405 7.64638 16 8 16H24C24.3536 16 24.6928 16.1405 24.9428 16.3905C25.1929 16.6406 25.3333 16.9797 25.3333 17.3333V21.3333" stroke="black" stroke-width="2.66667" stroke-linecap="round" stroke-linejoin="round"/>
<path id="Vector_5" d="M16 16V10.6667" stroke="black" stroke-width="2.66667" stroke-linecap="round" stroke-linejoin="round"/>
</g>
</svg>
