<svg width="21" height="21" viewBox="0 0 21 21" fill="none" xmlns="http://www.w3.org/2000/svg">
<path d="M12.7188 18.9774C12.7521 19.0603 12.8099 19.131 12.8844 19.18C12.959 19.2291 13.0468 19.2542 13.1361 19.2519C13.2253 19.2496 13.3117 19.2201 13.3837 19.1672C13.4557 19.1144 13.5097 19.0409 13.5387 18.9564L19.2262 2.33144C19.2542 2.2539 19.2596 2.17 19.2416 2.08955C19.2237 2.00909 19.1832 1.9354 19.1249 1.87712C19.0666 1.81883 18.9929 1.77834 18.9125 1.7604C18.832 1.74246 18.7481 1.74781 18.6706 1.77581L2.04558 7.46331C1.96114 7.49227 1.88758 7.54636 1.83477 7.61834C1.78196 7.69031 1.75243 7.77671 1.75014 7.86595C1.74786 7.95519 1.77292 8.04299 1.82198 8.11757C1.87104 8.19215 1.94173 8.24994 2.02458 8.28319L8.96333 11.0657C9.18268 11.1535 9.38198 11.2848 9.5492 11.4518C9.71642 11.6187 9.84811 11.8177 9.93633 12.0369L12.7188 18.9774Z" stroke="#155DFC" stroke-width="1.75" stroke-linecap="round" stroke-linejoin="round"/>
<path d="M19.1223 1.875L9.5498 11.4466" stroke="#155DFC" stroke-width="1.75" stroke-linecap="round" stroke-linejoin="round"/>
</svg>
