<svg width="28" height="28" viewBox="0 0 28 28" fill="none" xmlns="http://www.w3.org/2000/svg">
<path d="M16.3335 21V7.00002C16.3335 6.38118 16.0877 5.78769 15.6501 5.3501C15.2125 4.91252 14.619 4.66669 14.0002 4.66669H4.66683C4.04799 4.66669 3.4545 4.91252 3.01691 5.3501C2.57933 5.78769 2.3335 6.38118 2.3335 7.00002V19.8334C2.3335 20.1428 2.45641 20.4395 2.6752 20.6583C2.894 20.8771 3.19074 21 3.50016 21H5.8335" stroke="white" stroke-width="2.33333" stroke-linecap="round" stroke-linejoin="round"/>
<path d="M17.5 21H10.5" stroke="white" stroke-width="2.33333" stroke-linecap="round" stroke-linejoin="round"/>
<path d="M22.1668 21H24.5002C24.8096 21 25.1063 20.8771 25.3251 20.6583C25.5439 20.4395 25.6668 20.1427 25.6668 19.8333V15.575C25.6664 15.3102 25.5758 15.0535 25.4102 14.847L21.3502 9.77198C21.241 9.63534 21.1026 9.52497 20.9451 9.44904C20.7876 9.37311 20.615 9.33356 20.4402 9.33331H16.3335" stroke="white" stroke-width="2.33333" stroke-linecap="round" stroke-linejoin="round"/>
<path d="M19.8333 23.3334C21.122 23.3334 22.1667 22.2887 22.1667 21C22.1667 19.7114 21.122 18.6667 19.8333 18.6667C18.5447 18.6667 17.5 19.7114 17.5 21C17.5 22.2887 18.5447 23.3334 19.8333 23.3334Z" stroke="white" stroke-width="2.33333" stroke-linecap="round" stroke-linejoin="round"/>
<path d="M8.16683 23.3334C9.45549 23.3334 10.5002 22.2887 10.5002 21C10.5002 19.7114 9.45549 18.6667 8.16683 18.6667C6.87816 18.6667 5.8335 19.7114 5.8335 21C5.8335 22.2887 6.87816 23.3334 8.16683 23.3334Z" stroke="white" stroke-width="2.33333" stroke-linecap="round" stroke-linejoin="round"/>
</svg>
