<svg preserveAspectRatio="none" width="100%" height="100%" overflow="visible" style="display: block;" viewBox="0 0 40 40" fill="none" xmlns="http://www.w3.org/2000/svg">
<g id="SVG">
<path id="Vector" d="M36.2167 30L22.8833 6.66667C22.5926 6.15367 22.171 5.72698 21.6615 5.43011C21.1521 5.13325 20.573 4.97684 19.9833 4.97684C19.3937 4.97684 18.8146 5.13325 18.3051 5.43011C17.7957 5.72698 17.3741 6.15367 17.0833 6.66667L3.75 30C3.45614 30.5089 3.30205 31.0865 3.30335 31.6742C3.30465 32.2619 3.4613 32.8387 3.75741 33.3464C4.05352 33.854 4.47858 34.2743 4.98949 34.5647C5.5004 34.8551 6.07901 35.0053 6.66667 35H33.3333C33.9182 34.9994 34.4925 34.8449 34.9988 34.5521C35.5051 34.2593 35.9254 33.8385 36.2175 33.3319C36.5097 32.8252 36.6634 32.2506 36.6632 31.6658C36.6631 31.081 36.5091 30.5065 36.2167 30Z" stroke="var(--stroke-0, white)" stroke-width="3.33333" stroke-linecap="round" stroke-linejoin="round"/>
<path id="Vector_2" d="M20 15V21.6667" stroke="var(--stroke-0, white)" stroke-width="3.33333" stroke-linecap="round" stroke-linejoin="round"/>
<path id="Vector_3" d="M20 28.3333H20.0167" stroke="var(--stroke-0, white)" stroke-width="3.33333" stroke-linecap="round" stroke-linejoin="round"/>
</g>
</svg>
