<svg preserveAspectRatio="none" width="100%" height="100%" overflow="visible" style="display: block;" viewBox="0 0 16 16" fill="none" xmlns="http://www.w3.org/2000/svg">
<g id="SVG">
<path id="Vector" stroke="black" d="M6 2H3.33333C2.59695 2 2 2.59695 2 3.33333V6C2 6.73638 2.59695 7.33333 3.33333 7.33333H6C6.73638 7.33333 7.33333 6.73638 7.33333 6V3.33333C7.33333 2.59695 6.73638 2 6 2Z" stroke="black" stroke-width="1.33333" stroke-linecap="round" stroke-linejoin="round"/>
<path id="Vector_2" stroke="black" d="M4.66667 7.33333V10C4.66667 10.3536 4.80714 10.6928 5.05719 10.9428C5.30724 11.1929 5.64638 11.3333 6 11.3333H8.66667" stroke="black" stroke-width="1.33333" stroke-linecap="round" stroke-linejoin="round"/>
<path id="Vector_3" stroke="black" d="M12.6667 8.66667H10C9.26362 8.66667 8.66667 9.26362 8.66667 10V12.6667C8.66667 13.403 9.26362 14 10 14H12.6667C13.403 14 14 13.403 14 12.6667V10C14 9.26362 13.403 8.66667 12.6667 8.66667Z" stroke="black" stroke-width="1.33333" stroke-linecap="round" stroke-linejoin="round"/>
</g>
</svg>
