<svg preserveAspectRatio="none" width="100%" height="100%" overflow="visible" style="display: block;" viewBox="0 0 40 40" fill="none" xmlns="http://www.w3.org/2000/svg">
<g id="SVG">
<path id="Vector" stroke="black" d="M21.3833 3.63333C20.9491 3.43525 20.4773 3.33274 20 3.33274C19.5227 3.33274 19.0509 3.43525 18.6167 3.63333L4.33333 10.1333C4.03758 10.2637 3.78613 10.4773 3.6096 10.7481C3.43308 11.0189 3.33909 11.3351 3.33909 11.6583C3.33909 11.9816 3.43308 12.2978 3.6096 12.5686C3.78613 12.8393 4.03758 13.0529 4.33333 13.1833L18.6333 19.7C19.0676 19.8981 19.5394 20.0006 20.0167 20.0006C20.494 20.0006 20.9657 19.8981 21.4 19.7L35.7 13.2C35.9958 13.0696 36.2472 12.856 36.4237 12.5852C36.6003 12.3145 36.6942 11.9982 36.6942 11.675C36.6942 11.3518 36.6003 11.0355 36.4237 10.7648C36.2472 10.494 35.9958 10.2804 35.7 10.15L21.3833 3.63333Z" stroke="black" stroke-width="3.33333" stroke-linecap="round" stroke-linejoin="round"/>
<path id="Vector_2" stroke="black" d="M3.33333 20C3.33254 20.3188 3.42319 20.6311 3.59453 20.8999C3.76586 21.1687 4.0107 21.3828 4.3 21.5167L18.6333 28.0333C19.0653 28.229 19.5341 28.3301 20.0083 28.3301C20.4826 28.3301 20.9513 28.229 21.3833 28.0333L35.6833 21.5333C35.9783 21.4007 36.2284 21.1852 36.403 20.9129C36.5776 20.6406 36.6692 20.3234 36.6667 20" stroke="black" stroke-width="3.33333" stroke-linecap="round" stroke-linejoin="round"/>
<path id="Vector_3" stroke="black" d="M3.33333 28.3333C3.33254 28.6521 3.42319 28.9644 3.59453 29.2332C3.76586 29.5021 4.0107 29.7161 4.3 29.85L18.6333 36.3667C19.0653 36.5623 19.5341 36.6635 20.0083 36.6635C20.4826 36.6635 20.9513 36.5623 21.3833 36.3667L35.6833 29.8667C35.9783 29.7341 36.2284 29.5185 36.403 29.2462C36.5776 28.974 36.6692 28.6568 36.6667 28.3333" stroke="black" stroke-width="3.33333" stroke-linecap="round" stroke-linejoin="round"/>
</g>
</svg>
