<svg preserveAspectRatio="none" width="100%" height="100%" overflow="visible" style="display: block;" viewBox="0 0 16 16" fill="none" xmlns="http://www.w3.org/2000/svg">
<g id="SVG">
<path id="Vector" d="M12 14C13.1046 14 14 13.1046 14 12C14 10.8954 13.1046 10 12 10C10.8954 10 10 10.8954 10 12C10 13.1046 10.8954 14 12 14Z" stroke="white" stroke-width="1.33333" stroke-linecap="round" stroke-linejoin="round"/>
<path id="Vector_2" d="M6.86667 13.3333H2.66667C2.31304 13.3333 1.97391 13.1929 1.72386 12.9428C1.47381 12.6928 1.33333 12.3536 1.33333 12V3.33333C1.33333 2.97971 1.47381 2.64057 1.72386 2.39052C1.97391 2.14048 2.31304 2 2.66667 2H5.26667C5.48966 1.99781 5.70964 2.05159 5.90647 2.15641C6.1033 2.26123 6.27069 2.41375 6.39333 2.6L6.93333 3.4C7.05474 3.58435 7.22002 3.73568 7.41433 3.8404C7.60865 3.94512 7.82593 3.99996 8.04667 4H13.3333C13.687 4 14.0261 4.14048 14.2761 4.39052C14.5262 4.64057 14.6667 4.97971 14.6667 5.33333V7.53333" stroke="white" stroke-width="1.33333" stroke-linecap="round" stroke-linejoin="round"/>
<path id="Vector_3" d="M14.4667 12.9333L13.8667 12.7333" stroke="white" stroke-width="1.33333" stroke-linecap="round" stroke-linejoin="round"/>
<path id="Vector_4" d="M10.1333 11.2667L9.53333 11.0667" stroke="white" stroke-width="1.33333" stroke-linecap="round" stroke-linejoin="round"/>
<path id="Vector_5" d="M11.0667 14.4667L11.2667 13.8667" stroke="white" stroke-width="1.33333" stroke-linecap="round" stroke-linejoin="round"/>
<path id="Vector_6" d="M12.7333 10.1333L12.9333 9.53333" stroke="white" stroke-width="1.33333" stroke-linecap="round" stroke-linejoin="round"/>
<path id="Vector_7" d="M13.0667 14.4667L12.8 13.8" stroke="white" stroke-width="1.33333" stroke-linecap="round" stroke-linejoin="round"/>
<path id="Vector_8" d="M11.2 10.2L10.9333 9.53333" stroke="white" stroke-width="1.33333" stroke-linecap="round" stroke-linejoin="round"/>
<path id="Vector_9" d="M9.53333 13.0667L10.2 12.8" stroke="white" stroke-width="1.33333" stroke-linecap="round" stroke-linejoin="round"/>
<path id="Vector_10" d="M13.8 11.2L14.4667 10.9333" stroke="white" stroke-width="1.33333" stroke-linecap="round" stroke-linejoin="round"/>
</g>
</svg>
